SplineFontDB: 3.0
FontName: FdSymbolD-Book
FullName: FdSymbolD-Book
FamilyName: FdSymbolD
Weight: Book
Copyright: Copyright (c) 2012, Michael Ummels. This Font Software is licensed under the SIL Open Font License, Version 1.1.
Version: 1.008
ItalicAngle: 0
UnderlinePosition: -100
UnderlineWidth: 50
Ascent: 800
Descent: 200
InvalidEm: 0
LayerCount: 2
Layer: 0 0 "Back" 1
Layer: 1 0 "Fore" 0
UniqueID: 4455571
OS2Version: 0
OS2_WeightWidthSlopeOnly: 0
OS2_UseTypoMetrics: 0
CreationTime: 1431874582
ModificationTime: 1431874582
OS2TypoAscent: 0
OS2TypoAOffset: 1
OS2TypoDescent: 0
OS2TypoDOffset: 1
OS2TypoLinegap: 0
OS2WinAscent: 0
OS2WinAOffset: 1
OS2WinDescent: 0
OS2WinDOffset: 1
HheadAscent: 0
HheadAOffset: 1
HheadDescent: 0
HheadDOffset: 1
OS2Vendor: 'PfEd'
DEI: 91125
Encoding: Custom
UnicodeInterp: none
NameList: AGL For New Fonts
DisplaySize: -48
AntiAlias: 1
FitToEm: 0
BeginPrivate: 2
BlueValues 31 [-10 0 546 556 707 717 754 764]
OtherBlues 11 [-230 -220]
EndPrivate
BeginChars: 256 232

StartChar: uni219B
Encoding: 0 8603 0
Width: 930
Flags: W
HStem: 243 64<90 346 430 731>
LayerCount: 2
Back
Fore
SplineSet
455 543 m 1
 509 523 l 1
 430 307 l 1
 731 307 l 1
 631 406 l 1
 677 452 l 1
 853 275 l 1
 677 98 l 1
 631 144 l 1
 731 243 l 1
 407 243 l 1
 321 7 l 1
 267 27 l 1
 346 243 l 1
 90 243 l 1
 90 307 l 1
 369 307 l 1
 455 543 l 1
EndSplineSet
EndChar

StartChar: uni21910338
Encoding: 1 -1 1
Width: 706
Flags: W
VStem: 321 64<-100 156 240 541>
LayerCount: 2
Back
Fore
SplineSet
105 77 m 1
 85 131 l 1
 321 217 l 1
 321 541 l 1
 222 441 l 1
 176 487 l 1
 353 663 l 1
 530 487 l 1
 484 441 l 1
 385 541 l 1
 385 240 l 1
 601 319 l 1
 621 265 l 1
 385 179 l 1
 385 -100 l 1
 321 -100 l 1
 321 156 l 1
 105 77 l 1
EndSplineSet
EndChar

StartChar: uni219A
Encoding: 2 8602 2
Width: 930
Flags: W
HStem: 243 64<199 500 584 840>
LayerCount: 2
Back
Fore
SplineSet
475 7 m 1
 421 27 l 1
 500 243 l 1
 199 243 l 1
 299 144 l 1
 253 98 l 1
 77 275 l 1
 253 452 l 1
 299 406 l 1
 199 307 l 1
 523 307 l 1
 609 543 l 1
 663 523 l 1
 584 307 l 1
 840 307 l 1
 840 243 l 1
 561 243 l 1
 475 7 l 1
EndSplineSet
EndChar

StartChar: uni21930338
Encoding: 3 -1 3
Width: 706
Flags: W
VStem: 321 64<9 310 394 650>
LayerCount: 2
Back
Fore
SplineSet
601 473 m 1
 621 419 l 1
 385 333 l 1
 385 9 l 1
 484 109 l 1
 530 63 l 1
 353 -113 l 1
 176 63 l 1
 222 109 l 1
 321 9 l 1
 321 310 l 1
 105 231 l 1
 85 285 l 1
 321 371 l 1
 321 650 l 1
 385 650 l 1
 385 394 l 1
 601 473 l 1
EndSplineSet
EndChar

StartChar: uni21970338
Encoding: 4 -1 4
Width: 1082
Flags: W
HStem: 486 64<566 707>
VStem: 752 64<300 441>
LayerCount: 2
Back
Fore
SplineSet
345 457 m 1
 397 482 l 1
 494 273 l 1
 707 486 l 1
 566 486 l 1
 566 550 l 1
 816 550 l 1
 816 300 l 1
 752 300 l 1
 752 441 l 1
 523 211 l 1
 629 -16 l 1
 577 -41 l 1
 480 168 l 1
 299 -13 l 1
 253 32 l 1
 451 230 l 1
 345 457 l 1
EndSplineSet
EndChar

StartChar: uni21960338
Encoding: 5 -1 5
Width: 1082
Flags: W
HStem: 486 64<375 516>
VStem: 267 64<300 440>
LayerCount: 2
Back
Fore
SplineSet
506 -41 m 1
 453 -16 l 1
 559 212 l 1
 331 440 l 1
 331 300 l 1
 267 300 l 1
 267 550 l 1
 516 550 l 1
 516 486 l 1
 375 486 l 1
 588 273 l 1
 686 482 l 1
 738 457 l 1
 632 229 l 1
 829 32 l 1
 784 -13 l 1
 603 168 l 1
 506 -41 l 1
EndSplineSet
EndChar

StartChar: uni21990338
Encoding: 6 -1 6
Width: 1082
Flags: W
HStem: 0 64<375 516>
VStem: 267 64<110 250>
LayerCount: 2
Back
Fore
SplineSet
738 93 m 1
 686 68 l 1
 588 277 l 1
 375 64 l 1
 516 64 l 1
 516 0 l 1
 267 0 l 1
 267 250 l 1
 331 250 l 1
 331 110 l 1
 559 338 l 1
 453 566 l 1
 506 591 l 1
 603 382 l 1
 784 563 l 1
 829 518 l 1
 632 321 l 1
 738 93 l 1
EndSplineSet
EndChar

StartChar: uni21980338
Encoding: 7 -1 7
Width: 1082
Flags: W
HStem: 0 64<566 707>
VStem: 752 64<109 250>
LayerCount: 2
Back
Fore
SplineSet
577 591 m 1
 629 566 l 1
 523 339 l 1
 752 109 l 1
 752 250 l 1
 816 250 l 1
 816 0 l 1
 566 0 l 1
 566 64 l 1
 707 64 l 1
 494 277 l 1
 397 68 l 1
 345 93 l 1
 451 320 l 1
 253 518 l 1
 299 563 l 1
 480 382 l 1
 577 591 l 1
EndSplineSet
EndChar

StartChar: uni21CF
Encoding: 8 8655 8
Width: 1080
Flags: W
HStem: 147 64<90 309 393 785> 339 64<90 379 463 785>
LayerCount: 2
Back
Fore
SplineSet
849 339 m 1
 440 339 l 1
 393 211 l 1
 849 211 l 1
 913 275 l 1
 849 339 l 1
475 605 m 1
 529 585 l 1
 463 403 l 1
 785 403 l 1
 735 453 l 1
 780 498 l 1
 1003 275 l 1
 780 52 l 1
 735 97 l 1
 785 147 l 1
 370 147 l 1
 297 -55 l 1
 243 -35 l 1
 309 147 l 1
 90 147 l 1
 90 211 l 1
 332 211 l 1
 379 339 l 1
 90 339 l 1
 90 403 l 1
 402 403 l 1
 475 605 l 1
EndSplineSet
EndChar

StartChar: uni21D10338
Encoding: 9 -1 9
Width: 829
Flags: W
VStem: 286 64<-175 44 128 519> 479 64<-175 114 198 519>
LayerCount: 2
Back
Fore
SplineSet
350 583 m 1
 350 128 l 1
 479 175 l 1
 479 584 l 1
 415 648 l 1
 350 583 l 1
105 -22 m 1
 85 32 l 1
 286 105 l 1
 286 519 l 1
 237 470 l 1
 192 515 l 1
 415 738 l 1
 637 515 l 1
 592 470 l 1
 543 519 l 1
 543 198 l 1
 724 264 l 1
 744 210 l 1
 543 137 l 1
 543 -175 l 1
 479 -175 l 1
 479 114 l 1
 350 67 l 1
 350 -175 l 1
 286 -175 l 1
 286 44 l 1
 105 -22 l 1
EndSplineSet
EndChar

StartChar: uni21CD
Encoding: 10 8653 10
Width: 1080
Flags: W
HStem: 147 64<295 617 701 990> 339 64<295 687 771 990>
LayerCount: 2
Back
Fore
SplineSet
231 211 m 1
 640 211 l 1
 687 339 l 1
 231 339 l 1
 167 275 l 1
 231 211 l 1
605 -55 m 1
 551 -35 l 1
 617 147 l 1
 295 147 l 1
 345 97 l 1
 300 52 l 1
 77 275 l 1
 300 498 l 1
 345 453 l 1
 295 403 l 1
 710 403 l 1
 783 605 l 1
 837 585 l 1
 771 403 l 1
 990 403 l 1
 990 339 l 1
 748 339 l 1
 701 211 l 1
 990 211 l 1
 990 147 l 1
 678 147 l 1
 605 -55 l 1
EndSplineSet
EndChar

StartChar: uni21D30338
Encoding: 11 -1 11
Width: 829
Flags: W
VStem: 286 64<31 352 436 725> 479 64<31 422 506 725>
LayerCount: 2
Back
Fore
SplineSet
479 -34 m 1
 479 422 l 1
 350 375 l 1
 350 -33 l 1
 415 -98 l 1
 479 -34 l 1
724 572 m 1
 744 518 l 1
 543 445 l 1
 543 31 l 1
 592 80 l 1
 637 35 l 1
 415 -188 l 1
 192 35 l 1
 237 80 l 1
 286 31 l 1
 286 352 l 1
 105 286 l 1
 85 340 l 1
 286 413 l 1
 286 725 l 1
 350 725 l 1
 350 436 l 1
 479 483 l 1
 479 725 l 1
 543 725 l 1
 543 506 l 1
 724 572 l 1
EndSplineSet
EndChar

StartChar: uni21D70338
Encoding: 12 -1 12
Width: 1275
Flags: W
HStem: 539 64<650 721 811 901>
VStem: 901 64<287 357 447 539>
LayerCount: 2
Back
Fore
SplineSet
811 539 m 1
 522 250 l 1
 580 126 l 1
 901 447 l 1
 901 539 l 1
 811 539 l 1
359 462 m 1
 411 487 l 1
 493 311 l 1
 721 539 l 1
 650 539 l 1
 650 603 l 1
 965 603 l 1
 965 287 l 1
 901 287 l 1
 901 357 l 1
 608 64 l 1
 699 -130 l 1
 646 -154 l 1
 565 21 l 1
 410 -134 l 1
 365 -89 l 1
 536 82 l 1
 478 206 l 1
 274 2 l 1
 229 47 l 1
 450 268 l 1
 359 462 l 1
EndSplineSet
EndChar

StartChar: uni21D60338
Encoding: 13 -1 13
Width: 1275
Flags: W
HStem: 539 64<374 465 555 625>
VStem: 310 64<287 358 448 539>
LayerCount: 2
Back
Fore
SplineSet
374 448 m 1
 696 126 l 1
 754 250 l 1
 465 539 l 1
 374 539 l 1
 374 448 l 1
629 -154 m 1
 577 -130 l 1
 667 64 l 1
 374 358 l 1
 374 287 l 1
 310 287 l 1
 310 603 l 1
 625 603 l 1
 625 539 l 1
 555 539 l 1
 782 312 l 1
 864 487 l 1
 916 462 l 1
 826 268 l 1
 1047 47 l 1
 1001 2 l 1
 797 206 l 1
 739 82 l 1
 910 -89 l 1
 865 -134 l 1
 710 21 l 1
 629 -154 l 1
EndSplineSet
EndChar

StartChar: uni21D90338
Encoding: 14 -1 14
Width: 1275
Flags: W
HStem: -53 64<374 465 555 625> 528 20G<981 1021.44>
VStem: 310 64<11 102 192 263>
LayerCount: 2
Back
Fore
SplineSet
465 11 m 1
 754 300 l 1
 696 424 l 1
 374 102 l 1
 374 11 l 1
 465 11 l 1
916 88 m 1
 864 63 l 1
 782 238 l 1
 555 11 l 1
 625 11 l 1
 625 -53 l 1
 310 -53 l 1
 310 263 l 1
 374 263 l 1
 374 192 l 1
 667 486 l 1
 577 680 l 1
 629 704 l 1
 710 529 l 1
 865 684 l 1
 910 639 l 1
 739 468 l 1
 797 344 l 1
 1001 548 l 1
 1047 503 l 1
 826 282 l 1
 916 88 l 1
EndSplineSet
EndChar

StartChar: uni21D80338
Encoding: 15 -1 15
Width: 1275
Flags: W
HStem: -53 64<650 721 811 901> 528 20G<254 294>
VStem: 901 64<11 103 193 263>
LayerCount: 2
Back
Fore
SplineSet
901 103 m 1
 580 424 l 1
 522 300 l 1
 811 11 l 1
 901 11 l 1
 901 103 l 1
646 704 m 1
 699 680 l 1
 608 486 l 1
 901 193 l 1
 901 263 l 1
 965 263 l 1
 965 -53 l 1
 650 -53 l 1
 650 11 l 1
 721 11 l 1
 493 239 l 1
 411 63 l 1
 359 88 l 1
 450 282 l 1
 229 503 l 1
 274 548 l 1
 478 344 l 1
 536 468 l 1
 365 639 l 1
 410 684 l 1
 565 529 l 1
 646 704 l 1
EndSplineSet
EndChar

StartChar: uni21AE
Encoding: 16 8622 16
Width: 1080
Flags: W
HStem: 243 64<199 498 582 881>
LayerCount: 2
Back
Fore
SplineSet
607 543 m 1
 661 523 l 1
 582 307 l 1
 881 307 l 1
 781 406 l 1
 827 452 l 1
 1003 275 l 1
 827 98 l 1
 781 144 l 1
 881 243 l 1
 559 243 l 1
 473 7 l 1
 419 27 l 1
 498 243 l 1
 199 243 l 1
 299 144 l 1
 253 98 l 1
 77 275 l 1
 253 452 l 1
 299 406 l 1
 199 307 l 1
 521 307 l 1
 607 543 l 1
EndSplineSet
EndChar

StartChar: uni21950338
Encoding: 17 -1 17
Width: 706
Flags: W
VStem: 321 64<-66 233 317 616>
LayerCount: 2
Back
Fore
SplineSet
105 154 m 1
 85 208 l 1
 321 294 l 1
 321 616 l 1
 222 516 l 1
 176 562 l 1
 353 738 l 1
 530 562 l 1
 484 516 l 1
 385 616 l 1
 385 317 l 1
 601 396 l 1
 621 342 l 1
 385 256 l 1
 385 -66 l 1
 484 34 l 1
 530 -12 l 1
 353 -188 l 1
 176 -12 l 1
 222 34 l 1
 321 -66 l 1
 321 233 l 1
 105 154 l 1
EndSplineSet
EndChar

StartChar: uni29210338
Encoding: 18 -1 18
Width: 1188
Flags: W
HStem: -53 64<375 516> 539 64<672 813>
VStem: 267 64<57 197> 858 64<353 494>
LayerCount: 2
Back
Fore
SplineSet
452 512 m 1
 504 536 l 1
 601 327 l 1
 813 539 l 1
 672 539 l 1
 672 603 l 1
 922 603 l 1
 922 353 l 1
 858 353 l 1
 858 494 l 1
 630 266 l 1
 736 38 l 1
 684 14 l 1
 587 223 l 1
 375 11 l 1
 516 11 l 1
 516 -53 l 1
 267 -53 l 1
 267 197 l 1
 331 197 l 1
 331 57 l 1
 558 284 l 1
 452 512 l 1
EndSplineSet
EndChar

StartChar: uni29220338
Encoding: 19 -1 19
Width: 1188
Flags: W
HStem: -53 64<672 813> 539 64<375 516>
VStem: 267 64<353 493> 858 64<56 197>
LayerCount: 2
Back
Fore
SplineSet
504 14 m 1
 452 38 l 1
 558 266 l 1
 331 493 l 1
 331 353 l 1
 267 353 l 1
 267 603 l 1
 516 603 l 1
 516 539 l 1
 375 539 l 1
 587 327 l 1
 684 536 l 1
 736 512 l 1
 630 284 l 1
 858 56 l 1
 858 197 l 1
 922 197 l 1
 922 -53 l 1
 672 -53 l 1
 672 11 l 1
 813 11 l 1
 601 223 l 1
 504 14 l 1
EndSplineSet
EndChar

StartChar: uni21CE
Encoding: 20 8654 20
Width: 1230
Flags: W
HStem: 147 64<295 538 622 935> 339 64<295 608 692 935>
LayerCount: 2
Back
Fore
SplineSet
231 339 m 1
 167 275 l 1
 231 211 l 1
 561 211 l 1
 608 339 l 1
 231 339 l 1
999 339 m 1
 669 339 l 1
 622 211 l 1
 999 211 l 1
 1063 275 l 1
 999 339 l 1
704 605 m 1
 758 585 l 1
 692 403 l 1
 935 403 l 1
 885 453 l 1
 930 498 l 1
 1153 275 l 1
 930 52 l 1
 885 97 l 1
 935 147 l 1
 599 147 l 1
 526 -55 l 1
 472 -35 l 1
 538 147 l 1
 295 147 l 1
 345 97 l 1
 300 52 l 1
 77 275 l 1
 300 498 l 1
 345 453 l 1
 295 403 l 1
 631 403 l 1
 704 605 l 1
EndSplineSet
EndChar

StartChar: uni21D50338
Encoding: 21 -1 21
Width: 829
Flags: W
HStem: 545 21G<217 257 572 612>
VStem: 286 64<-44 198 282 594> 479 64<-44 268 352 594>
LayerCount: 2
Back
Fore
SplineSet
350 -108 m 1
 415 -173 l 1
 479 -109 l 1
 479 268 l 1
 350 221 l 1
 350 -108 l 1
350 658 m 1
 350 282 l 1
 479 329 l 1
 479 659 l 1
 415 723 l 1
 350 658 l 1
105 132 m 1
 85 186 l 1
 286 259 l 1
 286 594 l 1
 237 545 l 1
 192 590 l 1
 415 813 l 1
 637 590 l 1
 592 545 l 1
 543 594 l 1
 543 352 l 1
 724 418 l 1
 744 364 l 1
 543 291 l 1
 543 -44 l 1
 592 5 l 1
 637 -40 l 1
 415 -263 l 1
 192 -40 l 1
 237 5 l 1
 286 -44 l 1
 286 198 l 1
 105 132 l 1
EndSplineSet
EndChar

StartChar: sym030_uni0338
Encoding: 22 -1 22
Width: 1382
Flags: W
HStem: -106 64<374 465 555 625> 592 64<756 827 917 1007>
VStem: 310 64<-42 49 139 210> 1007 64<340 410 500 592>
LayerCount: 2
Back
Fore
SplineSet
374 49 m 1
 374 -42 l 1
 465 -42 l 1
 698 191 l 1
 640 315 l 1
 374 49 l 1
917 592 m 1
 684 359 l 1
 742 235 l 1
 1007 500 l 1
 1007 592 l 1
 917 592 l 1
521 571 m 1
 573 595 l 1
 655 420 l 1
 827 592 l 1
 756 592 l 1
 756 656 l 1
 1071 656 l 1
 1071 340 l 1
 1007 340 l 1
 1007 410 l 1
 770 173 l 1
 861 -21 l 1
 808 -45 l 1
 727 130 l 1
 555 -42 l 1
 625 -42 l 1
 625 -106 l 1
 310 -106 l 1
 310 210 l 1
 374 210 l 1
 374 139 l 1
 612 377 l 1
 521 571 l 1
EndSplineSet
EndChar

StartChar: sym031_uni0338
Encoding: 23 -1 23
Width: 1382
Flags: W
HStem: -106 64<756 827 917 1007> 592 64<374 465 555 625>
VStem: 310 64<340 411 501 592> 1007 64<-42 50 140 210>
LayerCount: 2
Back
Fore
SplineSet
917 -42 m 1
 1007 -42 l 1
 1007 50 l 1
 742 315 l 1
 684 191 l 1
 917 -42 l 1
374 501 m 1
 640 235 l 1
 698 359 l 1
 465 592 l 1
 374 592 l 1
 374 501 l 1
573 -45 m 1
 521 -21 l 1
 612 173 l 1
 374 411 l 1
 374 340 l 1
 310 340 l 1
 310 656 l 1
 625 656 l 1
 625 592 l 1
 555 592 l 1
 727 420 l 1
 808 595 l 1
 861 571 l 1
 770 377 l 1
 1007 140 l 1
 1007 210 l 1
 1071 210 l 1
 1071 -106 l 1
 756 -106 l 1
 756 -42 l 1
 827 -42 l 1
 655 130 l 1
 573 -45 l 1
EndSplineSet
EndChar

StartChar: uni21A00338
Encoding: 24 -1 24
Width: 1118
Flags: W
HStem: 243 64<90 322 407 684 774 918>
LayerCount: 2
Back
Fore
SplineSet
431 543 m 1
 486 523 l 1
 407 307 l 1
 684 307 l 1
 585 406 l 1
 630 452 l 1
 774 307 l 1
 918 307 l 1
 819 406 l 1
 864 452 l 1
 1041 275 l 1
 864 98 l 1
 819 144 l 1
 918 243 l 1
 774 243 l 1
 630 98 l 1
 585 144 l 1
 684 243 l 1
 384 243 l 1
 298 7 l 1
 244 27 l 1
 322 243 l 1
 90 243 l 1
 90 307 l 1
 345 307 l 1
 431 543 l 1
EndSplineSet
EndChar

StartChar: uni219F0338
Encoding: 25 -1 25
Width: 706
Flags: W
HStem: 737 20G<333 373>
VStem: 321 64<-194 39 123 400 491 635>
LayerCount: 2
Back
Fore
SplineSet
105 -40 m 1
 85 14 l 1
 321 100 l 1
 321 400 l 1
 222 301 l 1
 176 346 l 1
 321 491 l 1
 321 635 l 1
 222 535 l 1
 176 580 l 1
 353 757 l 1
 530 580 l 1
 484 535 l 1
 385 635 l 1
 385 491 l 1
 530 346 l 1
 484 301 l 1
 385 400 l 1
 385 123 l 1
 601 202 l 1
 621 148 l 1
 385 62 l 1
 385 -194 l 1
 321 -194 l 1
 321 39 l 1
 105 -40 l 1
EndSplineSet
EndChar

StartChar: uni219E0338
Encoding: 26 -1 26
Width: 1118
Flags: W
HStem: 243 64<199 343 434 711 795 1028>
LayerCount: 2
Back
Fore
SplineSet
686 7 m 1
 632 27 l 1
 711 243 l 1
 434 243 l 1
 533 144 l 1
 488 98 l 1
 343 243 l 1
 199 243 l 1
 299 144 l 1
 253 98 l 1
 77 275 l 1
 253 452 l 1
 299 406 l 1
 199 307 l 1
 343 307 l 1
 488 452 l 1
 533 406 l 1
 434 307 l 1
 734 307 l 1
 820 543 l 1
 874 523 l 1
 795 307 l 1
 1028 307 l 1
 1028 243 l 1
 772 243 l 1
 686 7 l 1
EndSplineSet
EndChar

StartChar: uni21A10338
Encoding: 27 -1 27
Width: 706
Flags: W
VStem: 321 64<-85 59 150 427 511 744>
LayerCount: 2
Back
Fore
SplineSet
601 590 m 1
 621 536 l 1
 385 450 l 1
 385 150 l 1
 484 249 l 1
 530 204 l 1
 385 59 l 1
 385 -85 l 1
 484 15 l 1
 530 -30 l 1
 353 -207 l 1
 176 -30 l 1
 222 15 l 1
 321 -85 l 1
 321 59 l 1
 176 204 l 1
 222 249 l 1
 321 150 l 1
 321 427 l 1
 105 348 l 1
 85 402 l 1
 321 488 l 1
 321 744 l 1
 385 744 l 1
 385 511 l 1
 601 590 l 1
EndSplineSet
EndChar

StartChar: sym033_uni0338
Encoding: 28 -1 28
Width: 1215
Flags: W
HStem: 386 64<533 674> 552 64<698 840>
VStem: 719 64<200 341> 884 64<366 506>
LayerCount: 2
Back
Fore
SplineSet
328 374 m 1
 380 399 l 1
 477 190 l 1
 674 386 l 1
 533 386 l 1
 533 450 l 1
 738 450 l 1
 840 552 l 1
 698 552 l 1
 698 616 l 1
 948 616 l 1
 948 366 l 1
 884 366 l 1
 884 506 l 1
 783 405 l 1
 783 200 l 1
 719 200 l 1
 719 341 l 1
 506 128 l 1
 612 -99 l 1
 560 -123 l 1
 463 85 l 1
 299 -79 l 1
 253 -34 l 1
 434 147 l 1
 328 374 l 1
EndSplineSet
EndChar

StartChar: sym032_uni0338
Encoding: 29 -1 29
Width: 1215
Flags: W
HStem: 386 64<541 682> 552 64<375 516>
VStem: 267 64<366 506> 432 64<200 341>
LayerCount: 2
Back
Fore
SplineSet
655 -123 m 1
 603 -99 l 1
 709 128 l 1
 496 341 l 1
 496 200 l 1
 432 200 l 1
 432 405 l 1
 331 506 l 1
 331 366 l 1
 267 366 l 1
 267 616 l 1
 516 616 l 1
 516 552 l 1
 375 552 l 1
 477 450 l 1
 682 450 l 1
 682 386 l 1
 541 386 l 1
 738 190 l 1
 835 399 l 1
 887 374 l 1
 781 147 l 1
 962 -34 l 1
 916 -79 l 1
 752 85 l 1
 655 -123 l 1
EndSplineSet
EndChar

StartChar: sym035_uni0338
Encoding: 30 -1 30
Width: 1215
Flags: W
HStem: -66 64<375 516> 100 64<541 682>
VStem: 267 64<44 184> 432 64<209 350>
LayerCount: 2
Back
Fore
SplineSet
887 176 m 1
 835 151 l 1
 738 360 l 1
 541 164 l 1
 682 164 l 1
 682 100 l 1
 477 100 l 1
 375 -2 l 1
 516 -2 l 1
 516 -66 l 1
 267 -66 l 1
 267 184 l 1
 331 184 l 1
 331 44 l 1
 432 145 l 1
 432 350 l 1
 496 350 l 1
 496 209 l 1
 709 422 l 1
 603 649 l 1
 655 673 l 1
 752 465 l 1
 916 629 l 1
 962 584 l 1
 781 403 l 1
 887 176 l 1
EndSplineSet
EndChar

StartChar: sym034_uni0338
Encoding: 31 -1 31
Width: 1215
Flags: W
HStem: -66 64<698 840> 100 64<533 674>
VStem: 719 64<209 350> 884 64<44 184>
LayerCount: 2
Back
Fore
SplineSet
560 673 m 1
 612 649 l 1
 506 422 l 1
 719 209 l 1
 719 350 l 1
 783 350 l 1
 783 145 l 1
 884 44 l 1
 884 184 l 1
 948 184 l 1
 948 -66 l 1
 698 -66 l 1
 698 -2 l 1
 840 -2 l 1
 738 100 l 1
 533 100 l 1
 533 164 l 1
 674 164 l 1
 477 360 l 1
 380 151 l 1
 328 176 l 1
 434 403 l 1
 253 584 l 1
 299 629 l 1
 463 465 l 1
 560 673 l 1
EndSplineSet
EndChar

StartChar: uni21A30338
Encoding: 32 -1 32
Width: 930
Flags: W
HStem: 243 64<289 423 507 731>
LayerCount: 2
Back
Fore
SplineSet
532 543 m 1
 586 523 l 1
 507 307 l 1
 731 307 l 1
 631 406 l 1
 677 452 l 1
 853 275 l 1
 677 98 l 1
 631 144 l 1
 731 243 l 1
 484 243 l 1
 398 7 l 1
 344 27 l 1
 423 243 l 1
 289 243 l 1
 145 98 l 1
 99 144 l 1
 231 275 l 1
 99 406 l 1
 145 452 l 1
 289 307 l 1
 446 307 l 1
 532 543 l 1
EndSplineSet
EndChar

StartChar: sym036_uni0338
Encoding: 33 -1 33
Width: 706
Flags: W
VStem: 321 64<99 233 317 541>
LayerCount: 2
Back
Fore
SplineSet
105 154 m 1
 85 208 l 1
 321 294 l 1
 321 541 l 1
 222 441 l 1
 176 487 l 1
 353 663 l 1
 530 487 l 1
 484 441 l 1
 385 541 l 1
 385 317 l 1
 601 396 l 1
 621 342 l 1
 385 256 l 1
 385 99 l 1
 530 -45 l 1
 484 -91 l 1
 353 41 l 1
 222 -91 l 1
 176 -45 l 1
 321 99 l 1
 321 233 l 1
 105 154 l 1
EndSplineSet
EndChar

StartChar: uni21A20338
Encoding: 34 -1 34
Width: 930
Flags: W
HStem: 243 64<199 423 507 641>
LayerCount: 2
Back
Fore
SplineSet
398 7 m 1
 344 27 l 1
 423 243 l 1
 199 243 l 1
 299 144 l 1
 253 98 l 1
 77 275 l 1
 253 452 l 1
 299 406 l 1
 199 307 l 1
 446 307 l 1
 532 543 l 1
 586 523 l 1
 507 307 l 1
 641 307 l 1
 785 452 l 1
 831 406 l 1
 699 275 l 1
 831 144 l 1
 785 98 l 1
 641 243 l 1
 484 243 l 1
 398 7 l 1
EndSplineSet
EndChar

StartChar: sym037_uni0338
Encoding: 35 -1 35
Width: 706
Flags: W
VStem: 321 64<9 233 317 451>
LayerCount: 2
Back
Fore
SplineSet
601 396 m 1
 621 342 l 1
 385 256 l 1
 385 9 l 1
 484 109 l 1
 530 63 l 1
 353 -113 l 1
 176 63 l 1
 222 109 l 1
 321 9 l 1
 321 233 l 1
 105 154 l 1
 85 208 l 1
 321 294 l 1
 321 451 l 1
 176 595 l 1
 222 641 l 1
 353 509 l 1
 484 641 l 1
 530 595 l 1
 385 451 l 1
 385 317 l 1
 601 396 l 1
EndSplineSet
EndChar

StartChar: sym039_uni0338
Encoding: 36 -1 36
Width: 1082
Flags: W
HStem: 109 64<190 375> 486 64<566 707>
VStem: 375 64<-76 109> 752 64<300 441>
LayerCount: 2
Back
Fore
SplineSet
399 512 m 1
 451 536 l 1
 548 327 l 1
 707 486 l 1
 566 486 l 1
 566 550 l 1
 816 550 l 1
 816 300 l 1
 752 300 l 1
 752 441 l 1
 577 266 l 1
 683 38 l 1
 631 14 l 1
 534 223 l 1
 439 128 l 1
 439 -76 l 1
 375 -76 l 1
 375 109 l 1
 190 109 l 1
 190 173 l 1
 394 173 l 1
 505 284 l 1
 399 512 l 1
EndSplineSet
EndChar

StartChar: sym038_uni0338
Encoding: 37 -1 37
Width: 1082
Flags: W
HStem: 109 64<707 893> 486 64<375 516>
VStem: 267 64<300 440> 643 64<-76 109>
LayerCount: 2
Back
Fore
SplineSet
451 14 m 1
 399 38 l 1
 505 266 l 1
 331 440 l 1
 331 300 l 1
 267 300 l 1
 267 550 l 1
 516 550 l 1
 516 486 l 1
 375 486 l 1
 534 327 l 1
 631 536 l 1
 683 512 l 1
 577 284 l 1
 688 173 l 1
 893 173 l 1
 893 109 l 1
 707 109 l 1
 707 -76 l 1
 643 -76 l 1
 643 128 l 1
 548 223 l 1
 451 14 l 1
EndSplineSet
EndChar

StartChar: sym03B_uni0338
Encoding: 38 -1 38
Width: 1082
Flags: W
HStem: 0 64<375 516> 377 64<707 893>
VStem: 267 64<110 250> 643 64<441 626>
LayerCount: 2
Back
Fore
SplineSet
683 38 m 1
 631 14 l 1
 534 223 l 1
 375 64 l 1
 516 64 l 1
 516 0 l 1
 267 0 l 1
 267 250 l 1
 331 250 l 1
 331 110 l 1
 505 284 l 1
 399 512 l 1
 451 536 l 1
 548 327 l 1
 643 422 l 1
 643 626 l 1
 707 626 l 1
 707 441 l 1
 893 441 l 1
 893 377 l 1
 688 377 l 1
 577 266 l 1
 683 38 l 1
EndSplineSet
EndChar

StartChar: sym03A_uni0338
Encoding: 39 -1 39
Width: 1082
Flags: W
HStem: 0 64<566 707> 377 64<190 375>
VStem: 375 64<441 626> 752 64<109 250>
LayerCount: 2
Back
Fore
SplineSet
631 536 m 1
 683 512 l 1
 577 284 l 1
 752 109 l 1
 752 250 l 1
 816 250 l 1
 816 0 l 1
 566 0 l 1
 566 64 l 1
 707 64 l 1
 548 223 l 1
 451 14 l 1
 399 38 l 1
 505 266 l 1
 394 377 l 1
 190 377 l 1
 190 441 l 1
 375 441 l 1
 375 626 l 1
 439 626 l 1
 439 422 l 1
 534 327 l 1
 631 536 l 1
EndSplineSet
EndChar

StartChar: uni21A60338
Encoding: 40 -1 40
Width: 930
Flags: W
HStem: 243 64<154 346 430 731>
VStem: 90 64<89 243 307 461>
LayerCount: 2
Back
Fore
SplineSet
455 543 m 1
 509 523 l 1
 430 307 l 1
 731 307 l 1
 631 406 l 1
 677 452 l 1
 853 275 l 1
 677 98 l 1
 631 144 l 1
 731 243 l 1
 407 243 l 1
 321 7 l 1
 267 27 l 1
 346 243 l 1
 154 243 l 1
 154 89 l 1
 90 89 l 1
 90 461 l 1
 154 461 l 1
 154 307 l 1
 369 307 l 1
 455 543 l 1
EndSplineSet
EndChar

StartChar: uni21A50338
Encoding: 41 -1 41
Width: 706
Flags: W
HStem: -100 64<167 321 385 539>
VStem: 321 64<-36 156 240 541>
LayerCount: 2
Back
Fore
SplineSet
105 77 m 1
 85 131 l 1
 321 217 l 1
 321 541 l 1
 222 441 l 1
 176 487 l 1
 353 663 l 1
 530 487 l 1
 484 441 l 1
 385 541 l 1
 385 240 l 1
 601 319 l 1
 621 265 l 1
 385 179 l 1
 385 -36 l 1
 539 -36 l 1
 539 -100 l 1
 167 -100 l 1
 167 -36 l 1
 321 -36 l 1
 321 156 l 1
 105 77 l 1
EndSplineSet
EndChar

StartChar: uni21A40338
Encoding: 42 -1 42
Width: 930
Flags: W
HStem: 243 64<199 500 584 776>
VStem: 776 64<89 243 307 461>
LayerCount: 2
Back
Fore
SplineSet
475 7 m 1
 421 27 l 1
 500 243 l 1
 199 243 l 1
 299 144 l 1
 253 98 l 1
 77 275 l 1
 253 452 l 1
 299 406 l 1
 199 307 l 1
 523 307 l 1
 609 543 l 1
 663 523 l 1
 584 307 l 1
 776 307 l 1
 776 461 l 1
 840 461 l 1
 840 89 l 1
 776 89 l 1
 776 243 l 1
 561 243 l 1
 475 7 l 1
EndSplineSet
EndChar

StartChar: uni21A70338
Encoding: 43 -1 43
Width: 706
Flags: W
HStem: 586 64<167 321 385 539>
VStem: 321 64<9 310 394 586>
LayerCount: 2
Back
Fore
SplineSet
601 473 m 1
 621 419 l 1
 385 333 l 1
 385 9 l 1
 484 109 l 1
 530 63 l 1
 353 -113 l 1
 176 63 l 1
 222 109 l 1
 321 9 l 1
 321 310 l 1
 105 231 l 1
 85 285 l 1
 321 371 l 1
 321 586 l 1
 167 586 l 1
 167 650 l 1
 539 650 l 1
 539 586 l 1
 385 586 l 1
 385 394 l 1
 601 473 l 1
EndSplineSet
EndChar

StartChar: uni29070338
Encoding: 44 -1 44
Width: 1080
Flags: W
HStem: 147 64<154 386 470 785> 339 64<154 456 540 785>
VStem: 90 64<43 147 211 339 403 507>
LayerCount: 2
Back
Fore
SplineSet
849 339 m 1
 517 339 l 1
 470 211 l 1
 849 211 l 1
 913 275 l 1
 849 339 l 1
154 339 m 1
 154 211 l 1
 409 211 l 1
 456 339 l 1
 154 339 l 1
552 605 m 1
 606 585 l 1
 540 403 l 1
 785 403 l 1
 735 453 l 1
 780 498 l 1
 1003 275 l 1
 780 52 l 1
 735 97 l 1
 785 147 l 1
 447 147 l 1
 374 -55 l 1
 320 -35 l 1
 386 147 l 1
 154 147 l 1
 154 43 l 1
 90 43 l 1
 90 507 l 1
 154 507 l 1
 154 403 l 1
 479 403 l 1
 552 605 l 1
EndSplineSet
EndChar

StartChar: sym03C_uni0338
Encoding: 45 -1 45
Width: 829
Flags: W
HStem: -175 64<182 286 350 479 543 647>
VStem: 286 64<-111 121 205 519> 479 64<-111 191 275 519>
LayerCount: 2
Back
Fore
SplineSet
350 583 m 1
 350 205 l 1
 479 252 l 1
 479 584 l 1
 415 648 l 1
 350 583 l 1
350 -111 m 1
 479 -111 l 1
 479 191 l 1
 350 144 l 1
 350 -111 l 1
105 55 m 1
 85 109 l 1
 286 182 l 1
 286 519 l 1
 237 470 l 1
 192 515 l 1
 415 738 l 1
 637 515 l 1
 592 470 l 1
 543 519 l 1
 543 275 l 1
 724 341 l 1
 744 287 l 1
 543 214 l 1
 543 -111 l 1
 647 -111 l 1
 647 -175 l 1
 182 -175 l 1
 182 -111 l 1
 286 -111 l 1
 286 121 l 1
 105 55 l 1
EndSplineSet
EndChar

StartChar: uni29060338
Encoding: 46 -1 46
Width: 1080
Flags: W
HStem: 147 64<295 540 624 926> 339 64<295 610 694 926>
VStem: 926 64<43 147 211 339 403 507>
LayerCount: 2
Back
Fore
SplineSet
231 211 m 1
 563 211 l 1
 610 339 l 1
 231 339 l 1
 167 275 l 1
 231 211 l 1
926 211 m 1
 926 339 l 1
 671 339 l 1
 624 211 l 1
 926 211 l 1
528 -55 m 1
 474 -35 l 1
 540 147 l 1
 295 147 l 1
 345 97 l 1
 300 52 l 1
 77 275 l 1
 300 498 l 1
 345 453 l 1
 295 403 l 1
 633 403 l 1
 706 605 l 1
 760 585 l 1
 694 403 l 1
 926 403 l 1
 926 507 l 1
 990 507 l 1
 990 43 l 1
 926 43 l 1
 926 147 l 1
 601 147 l 1
 528 -55 l 1
EndSplineSet
EndChar

StartChar: sym03D_uni0338
Encoding: 47 -1 47
Width: 829
Flags: W
HStem: 661 64<182 286 350 479 543 647>
VStem: 286 64<31 275 359 661> 479 64<31 345 429 661>
LayerCount: 2
Back
Fore
SplineSet
479 -34 m 1
 479 345 l 1
 350 298 l 1
 350 -33 l 1
 415 -98 l 1
 479 -34 l 1
479 661 m 1
 350 661 l 1
 350 359 l 1
 479 406 l 1
 479 661 l 1
724 495 m 1
 744 441 l 1
 543 368 l 1
 543 31 l 1
 592 80 l 1
 637 35 l 1
 415 -188 l 1
 192 35 l 1
 237 80 l 1
 286 31 l 1
 286 275 l 1
 105 209 l 1
 85 263 l 1
 286 336 l 1
 286 661 l 1
 182 661 l 1
 182 725 l 1
 647 725 l 1
 647 661 l 1
 543 661 l 1
 543 429 l 1
 724 495 l 1
EndSplineSet
EndChar

StartChar: uni21AA0338
Encoding: 48 -1 48
Width: 930
Flags: W
HStem: 243 64<161.602 346 430 731> 397 64<161.602 231>
VStem: 90 64<314.041 389.959>
LayerCount: 2
Back
Fore
SplineSet
455 543 m 1
 509 523 l 1
 430 307 l 1
 731 307 l 1
 631 406 l 1
 677 452 l 1
 853 275 l 1
 677 98 l 1
 631 144 l 1
 731 243 l 1
 407 243 l 1
 321 7 l 1
 267 27 l 1
 346 243 l 1
 199 243 l 2
 139 243 90 292 90 352 c 0
 90 412 139 461 199 461 c 2
 231 461 l 1
 231 397 l 1
 199 397 l 2
 174 397 154 377 154 352 c 0
 154 327 174 307 199 307 c 2
 369 307 l 1
 455 543 l 1
EndSplineSet
EndChar

StartChar: sym03E_uni0338
Encoding: 49 -1 49
Width: 706
Flags: W
HStem: -100 64<238.041 313.959>
VStem: 167 64<-28.3981 41> 321 64<-28.3981 156 240 541>
LayerCount: 2
Back
Fore
SplineSet
105 77 m 1
 85 131 l 1
 321 217 l 1
 321 541 l 1
 222 441 l 1
 176 487 l 1
 353 663 l 1
 530 487 l 1
 484 441 l 1
 385 541 l 1
 385 240 l 1
 601 319 l 1
 621 265 l 1
 385 179 l 1
 385 9 l 2
 385 -51 336 -100 276 -100 c 0
 216 -100 167 -51 167 9 c 2
 167 41 l 1
 231 41 l 1
 231 9 l 2
 231 -16 251 -36 276 -36 c 0
 301 -36 321 -16 321 9 c 2
 321 156 l 1
 105 77 l 1
EndSplineSet
EndChar

StartChar: uni21A90338.alt
Encoding: 50 -1 50
Width: 930
Flags: W
HStem: 89 64<699 768.398> 243 64<199 500 584 768.398>
VStem: 776 64<160.041 235.959>
LayerCount: 2
Back
Fore
SplineSet
475 7 m 1
 421 27 l 1
 500 243 l 1
 199 243 l 1
 299 144 l 1
 253 98 l 1
 77 275 l 1
 253 452 l 1
 299 406 l 1
 199 307 l 1
 523 307 l 1
 609 543 l 1
 663 523 l 1
 584 307 l 1
 731 307 l 2
 791 307 840 258 840 198 c 0
 840 138 791 89 731 89 c 2
 699 89 l 1
 699 153 l 1
 731 153 l 2
 756 153 776 173 776 198 c 0
 776 223 756 243 731 243 c 2
 561 243 l 1
 475 7 l 1
EndSplineSet
EndChar

StartChar: sym03F_uni0338.alt
Encoding: 51 -1 51
Width: 706
Flags: W
HStem: 586 64<392.041 467.959>
VStem: 321 64<9 310 394 578.398> 475 64<509 578.398>
LayerCount: 2
Back
Fore
SplineSet
601 473 m 1
 621 419 l 1
 385 333 l 1
 385 9 l 1
 484 109 l 1
 530 63 l 1
 353 -113 l 1
 176 63 l 1
 222 109 l 1
 321 9 l 1
 321 310 l 1
 105 231 l 1
 85 285 l 1
 321 371 l 1
 321 541 l 2
 321 601 370 650 430 650 c 0
 490 650 539 601 539 541 c 2
 539 509 l 1
 475 509 l 1
 475 541 l 2
 475 566 455 586 430 586 c 0
 405 586 385 566 385 541 c 2
 385 394 l 1
 601 473 l 1
EndSplineSet
EndChar

StartChar: uni29240338.alt
Encoding: 52 -1 52
Width: 1082
Flags: W
HStem: 32 64<261.298 337.433> 486 64<566 707>
VStem: 190 64<102.841 182.234> 752 64<300 441>
LayerCount: 2
Back
Fore
SplineSet
254 142 m 0
 254 118 274 96 298 96 c 0
 310 96 322 101 330 110 c 2
 451 230 l 1
 345 457 l 1
 397 482 l 1
 494 274 l 1
 707 486 l 1
 566 486 l 1
 566 550 l 1
 816 550 l 1
 816 300 l 1
 752 300 l 1
 752 441 l 1
 523 211 l 1
 629 -16 l 1
 577 -41 l 1
 480 168 l 1
 376 64 l 2
 354 43 327 32 299 32 c 0
 271 32 243 43 222 64 c 0
 200 86 190 113 190 141 c 0
 190 169 200 197 222 218 c 1
 244 241 l 1
 289 196 l 1
 267 173 l 2
 258 165 254 154 254 142 c 0
EndSplineSet
EndChar

StartChar: uni29230338
Encoding: 53 -1 53
Width: 1082
Flags: W
HStem: -76 64<633.766 713.295> 486 64<375 516>
VStem: 267 64<300 440> 720 64<-5.03399 72.0653>
LayerCount: 2
Back
Fore
SplineSet
675 -12 m 0
 699 -12 720 8 720 32 c 0
 720 44 715 56 707 64 c 2
 603 168 l 1
 506 -41 l 1
 453 -16 l 1
 559 212 l 1
 331 440 l 1
 331 300 l 1
 267 300 l 1
 267 550 l 1
 516 550 l 1
 516 486 l 1
 375 486 l 1
 588 273 l 1
 686 482 l 1
 738 457 l 1
 632 230 l 1
 752 110 l 2
 773 88 784 60 784 32 c 0
 784 4 773 -23 752 -45 c 0
 730 -66 703 -76 675 -76 c 0
 647 -76 619 -66 598 -45 c 2
 575 -22 l 1
 620 23 l 1
 643 1 l 2
 652 -8 663 -12 675 -12 c 0
EndSplineSet
EndChar

StartChar: uni29260338.alt
Encoding: 54 -1 54
Width: 1082
Flags: W
HStem: 0 64<375 516> 454 64<744.304 821.034>
VStem: 267 64<110 250> 828 64<367.766 447.159>
LayerCount: 2
Back
Fore
SplineSet
828 408 m 0
 828 432 808 454 784 454 c 0
 772 454 760 449 752 440 c 2
 632 320 l 1
 738 93 l 1
 686 68 l 1
 588 277 l 1
 375 64 l 1
 516 64 l 1
 516 0 l 1
 267 0 l 1
 267 250 l 1
 331 250 l 1
 331 110 l 1
 559 338 l 1
 453 566 l 1
 506 591 l 1
 603 382 l 1
 707 486 l 2
 728 507 756 518 784 518 c 0
 812 518 839 507 861 486 c 0
 882 464 892 437 892 409 c 0
 892 381 882 353 861 332 c 2
 838 309 l 1
 793 354 l 1
 815 377 l 2
 824 385 828 396 828 408 c 0
EndSplineSet
EndChar

StartChar: uni29250338
Encoding: 55 -1 55
Width: 1082
Flags: W
HStem: 0 64<566 707> 562 64<369.115 447.936>
VStem: 298 64<479.371 555.034> 752 64<109 250>
LayerCount: 2
Back
Fore
SplineSet
408 562 m 0
 384 562 362 542 362 518 c 0
 362 506 367 494 376 486 c 2
 480 382 l 1
 577 591 l 1
 629 566 l 1
 523 339 l 1
 752 109 l 1
 752 250 l 1
 816 250 l 1
 816 0 l 1
 566 0 l 1
 566 64 l 1
 707 64 l 1
 494 276 l 1
 397 68 l 1
 345 93 l 1
 451 320 l 1
 330 440 l 2
 309 462 298 490 298 518 c 0
 298 546 309 573 330 595 c 0
 352 616 380 626 408 626 c 0
 436 626 463 616 485 595 c 1
 507 572 l 1
 462 527 l 1
 439 549 l 2
 431 558 420 562 408 562 c 0
EndSplineSet
EndChar

StartChar: uni21AA0338.alt
Encoding: 56 -1 56
Width: 930
Flags: W
HStem: 89 64<161.602 231> 243 64<161.602 346 430 731>
VStem: 90 64<160.041 235.959>
LayerCount: 2
Back
Fore
SplineSet
455 543 m 1
 509 523 l 1
 430 307 l 1
 731 307 l 1
 631 406 l 1
 677 452 l 1
 853 275 l 1
 677 98 l 1
 631 144 l 1
 731 243 l 1
 407 243 l 1
 321 7 l 1
 267 27 l 1
 346 243 l 1
 199 243 l 2
 174 243 154 223 154 198 c 0
 154 173 174 153 199 153 c 2
 231 153 l 1
 231 89 l 1
 199 89 l 2
 139 89 90 138 90 198 c 0
 90 258 139 307 199 307 c 2
 369 307 l 1
 455 543 l 1
EndSplineSet
EndChar

StartChar: sym03E_uni0338.alt
Encoding: 57 -1 57
Width: 706
Flags: W
HStem: -100 64<392.041 467.959>
VStem: 321 64<-28.3981 156 240 541> 475 64<-28.3981 41>
LayerCount: 2
Back
Fore
SplineSet
105 77 m 1
 85 131 l 1
 321 217 l 1
 321 541 l 1
 222 441 l 1
 176 487 l 1
 353 663 l 1
 530 487 l 1
 484 441 l 1
 385 541 l 1
 385 240 l 1
 601 319 l 1
 621 265 l 1
 385 179 l 1
 385 9 l 2
 385 -16 405 -36 430 -36 c 0
 455 -36 475 -16 475 9 c 2
 475 41 l 1
 539 41 l 1
 539 9 l 2
 539 -51 490 -100 430 -100 c 0
 370 -100 321 -51 321 9 c 2
 321 156 l 1
 105 77 l 1
EndSplineSet
EndChar

StartChar: uni21A90338
Encoding: 58 -1 58
Width: 930
Flags: W
HStem: 243 64<199 500 584 768.398> 397 64<699 768.398>
VStem: 776 64<314.041 389.959>
LayerCount: 2
Back
Fore
SplineSet
475 7 m 1
 421 27 l 1
 500 243 l 1
 199 243 l 1
 299 144 l 1
 253 98 l 1
 77 275 l 1
 253 452 l 1
 299 406 l 1
 199 307 l 1
 523 307 l 1
 609 543 l 1
 663 523 l 1
 584 307 l 1
 731 307 l 2
 756 307 776 327 776 352 c 0
 776 377 756 397 731 397 c 2
 699 397 l 1
 699 461 l 1
 731 461 l 2
 791 461 840 412 840 352 c 0
 840 292 791 243 731 243 c 2
 561 243 l 1
 475 7 l 1
EndSplineSet
EndChar

StartChar: sym03F_uni0338
Encoding: 59 -1 59
Width: 706
Flags: W
HStem: 586 64<238.041 313.959>
VStem: 167 64<509 578.398> 321 64<9 310 394 578.398>
LayerCount: 2
Back
Fore
SplineSet
601 473 m 1
 621 419 l 1
 385 333 l 1
 385 9 l 1
 484 109 l 1
 530 63 l 1
 353 -113 l 1
 176 63 l 1
 222 109 l 1
 321 9 l 1
 321 310 l 1
 105 231 l 1
 85 285 l 1
 321 371 l 1
 321 541 l 2
 321 566 301 586 276 586 c 0
 251 586 231 566 231 541 c 2
 231 509 l 1
 167 509 l 1
 167 541 l 2
 167 601 216 650 276 650 c 0
 336 650 385 601 385 541 c 2
 385 394 l 1
 601 473 l 1
EndSplineSet
EndChar

StartChar: uni29240338
Encoding: 60 -1 60
Width: 1082
Flags: W
HStem: -76 64<369.115 447.936> 486 64<566 707>
VStem: 298 64<-5.03399 70.6285> 752 64<300 441>
LayerCount: 2
Back
Fore
SplineSet
362 32 m 0
 362 8 384 -12 408 -12 c 0
 420 -12 431 -8 439 1 c 2
 462 23 l 1
 507 -22 l 1
 485 -45 l 1
 463 -66 436 -76 408 -76 c 0
 380 -76 352 -66 330 -45 c 0
 309 -23 298 4 298 32 c 0
 298 60 309 88 330 110 c 2
 451 230 l 1
 345 457 l 1
 397 482 l 1
 494 274 l 1
 707 486 l 1
 566 486 l 1
 566 550 l 1
 816 550 l 1
 816 300 l 1
 752 300 l 1
 752 441 l 1
 523 211 l 1
 629 -16 l 1
 577 -41 l 1
 480 168 l 1
 376 64 l 2
 367 56 362 44 362 32 c 0
EndSplineSet
EndChar

StartChar: uni29230338.alt
Encoding: 61 -1 61
Width: 1082
Flags: W
HStem: 32 64<744.304 821.034> 486 64<375 516>
VStem: 267 64<300 440> 828 64<102.841 182.234>
LayerCount: 2
Back
Fore
SplineSet
784 96 m 0
 808 96 828 118 828 142 c 0
 828 154 824 165 815 173 c 2
 793 196 l 1
 838 241 l 1
 861 218 l 2
 882 197 892 169 892 141 c 0
 892 113 882 86 861 64 c 0
 839 43 812 32 784 32 c 0
 756 32 728 43 707 64 c 2
 603 168 l 1
 506 -41 l 1
 453 -16 l 1
 559 212 l 1
 331 440 l 1
 331 300 l 1
 267 300 l 1
 267 550 l 1
 516 550 l 1
 516 486 l 1
 375 486 l 1
 588 273 l 1
 686 482 l 1
 738 457 l 1
 632 230 l 1
 752 110 l 2
 760 101 772 96 784 96 c 0
EndSplineSet
EndChar

StartChar: uni29260338
Encoding: 62 -1 62
Width: 1082
Flags: W
HStem: 0 64<375 516> 562 64<633.766 713.295>
VStem: 267 64<110 250> 720 64<477.935 555.034>
LayerCount: 2
Back
Fore
SplineSet
720 518 m 0
 720 542 699 562 675 562 c 0
 663 562 652 558 643 549 c 2
 620 527 l 1
 575 572 l 1
 598 595 l 2
 619 616 647 626 675 626 c 0
 703 626 730 616 752 595 c 0
 773 573 784 546 784 518 c 0
 784 490 773 462 752 440 c 2
 632 320 l 1
 738 93 l 1
 686 68 l 1
 588 277 l 1
 375 64 l 1
 516 64 l 1
 516 0 l 1
 267 0 l 1
 267 250 l 1
 331 250 l 1
 331 110 l 1
 559 338 l 1
 453 566 l 1
 506 591 l 1
 603 382 l 1
 707 486 l 2
 715 494 720 506 720 518 c 0
EndSplineSet
EndChar

StartChar: uni29250338.alt
Encoding: 63 -1 63
Width: 1082
Flags: W
HStem: 0 64<566 707> 454 64<261.298 337.433>
VStem: 190 64<367.766 447.159> 752 64<109 250>
LayerCount: 2
Back
Fore
SplineSet
298 454 m 0
 274 454 254 432 254 408 c 0
 254 396 258 385 267 377 c 2
 289 354 l 1
 244 309 l 1
 222 332 l 1
 200 353 190 381 190 409 c 0
 190 437 200 464 222 486 c 0
 243 507 271 518 299 518 c 0
 327 518 354 507 376 486 c 2
 480 382 l 1
 577 591 l 1
 629 566 l 1
 523 339 l 1
 752 109 l 1
 752 250 l 1
 816 250 l 1
 816 0 l 1
 566 0 l 1
 566 64 l 1
 707 64 l 1
 494 276 l 1
 397 68 l 1
 345 93 l 1
 451 320 l 1
 330 440 l 2
 322 449 310 454 298 454 c 0
EndSplineSet
EndChar

StartChar: uni21C00338
Encoding: 64 -1 64
Width: 930
Flags: W
HStem: 243 64<90 346 430 731>
LayerCount: 2
Back
Fore
SplineSet
455 543 m 1
 509 523 l 1
 430 307 l 1
 731 307 l 1
 615 422 l 1
 661 468 l 1
 853 275 l 1
 845 243 l 1
 407 243 l 1
 321 7 l 1
 267 27 l 1
 346 243 l 1
 90 243 l 1
 90 307 l 1
 369 307 l 1
 455 543 l 1
EndSplineSet
EndChar

StartChar: uni21BF0338
Encoding: 65 -1 65
Width: 706
Flags: W
VStem: 321 64<-100 156 240 541>
LayerCount: 2
Back
Fore
SplineSet
105 77 m 1
 85 131 l 1
 321 217 l 1
 321 541 l 1
 206 425 l 1
 160 471 l 1
 353 663 l 1
 385 655 l 1
 385 240 l 1
 601 319 l 1
 621 265 l 1
 385 179 l 1
 385 -100 l 1
 321 -100 l 1
 321 156 l 1
 105 77 l 1
EndSplineSet
EndChar

StartChar: uni21BD0338
Encoding: 66 -1 66
Width: 930
Flags: W
HStem: 243 64<199 500 584 840>
LayerCount: 2
Back
Fore
SplineSet
475 7 m 1
 421 27 l 1
 500 243 l 1
 199 243 l 1
 315 128 l 1
 269 82 l 1
 77 275 l 1
 85 307 l 1
 523 307 l 1
 609 543 l 1
 663 523 l 1
 584 307 l 1
 840 307 l 1
 840 243 l 1
 561 243 l 1
 475 7 l 1
EndSplineSet
EndChar

StartChar: uni21C20338
Encoding: 67 -1 67
Width: 706
Flags: W
VStem: 321 64<9 310 394 650>
LayerCount: 2
Back
Fore
SplineSet
601 473 m 1
 621 419 l 1
 385 333 l 1
 385 9 l 1
 500 125 l 1
 546 79 l 1
 353 -113 l 1
 321 -105 l 1
 321 310 l 1
 105 231 l 1
 85 285 l 1
 321 371 l 1
 321 650 l 1
 385 650 l 1
 385 394 l 1
 601 473 l 1
EndSplineSet
EndChar

StartChar: sym041_uni0338
Encoding: 68 -1 68
Width: 1082
Flags: W
HStem: 486 64<543 707>
LayerCount: 2
Back
Fore
SplineSet
345 457 m 1
 397 482 l 1
 494 273 l 1
 707 486 l 1
 543 486 l 1
 543 550 l 1
 816 550 l 1
 832 521 l 1
 729 418 626 314 523 211 c 1
 629 -16 l 1
 577 -41 l 1
 480 168 l 1
 299 -13 l 1
 253 32 l 1
 451 230 l 1
 345 457 l 1
EndSplineSet
EndChar

StartChar: sym040_uni0338
Encoding: 69 -1 69
Width: 1082
Flags: W
VStem: 267 64<277 440 530 531>
LayerCount: 2
Back
Fore
SplineSet
506 -41 m 1
 453 -16 l 1
 559 212 l 1
 331 440 l 1
 331 277 l 1
 267 277 l 1
 267 550 l 1
 295 566 l 1
 331 531 l 1
 331 530 l 1
 588 273 l 1
 686 482 l 1
 738 457 l 1
 632 229 l 1
 829 32 l 1
 784 -13 l 1
 603 168 l 1
 506 -41 l 1
EndSplineSet
EndChar

StartChar: sym043_uni0338
Encoding: 70 -1 70
Width: 1082
Flags: W
HStem: 0 64<375 539>
LayerCount: 2
Back
Fore
SplineSet
738 93 m 1
 686 68 l 1
 588 277 l 1
 375 64 l 1
 539 64 l 1
 539 0 l 1
 267 0 l 1
 250 29 l 1
 559 338 l 1
 453 566 l 1
 506 591 l 1
 603 382 l 1
 784 563 l 1
 829 518 l 1
 632 321 l 1
 738 93 l 1
EndSplineSet
EndChar

StartChar: sym042_uni0338
Encoding: 71 -1 71
Width: 1082
Flags: W
VStem: 752 64<109 273>
LayerCount: 2
Back
Fore
SplineSet
577 591 m 1
 629 566 l 1
 523 339 l 1
 752 109 l 1
 752 273 l 1
 816 273 l 1
 816 0 l 1
 787 -16 l 1
 494 277 l 1
 397 68 l 1
 345 93 l 1
 451 320 l 1
 253 518 l 1
 299 563 l 1
 480 382 l 1
 577 591 l 1
EndSplineSet
EndChar

StartChar: uni21C10338
Encoding: 72 -1 72
Width: 930
Flags: W
HStem: 243 64<90 346 430 731>
LayerCount: 2
Back
Fore
SplineSet
455 543 m 1
 509 523 l 1
 430 307 l 1
 845 307 l 1
 853 275 l 1
 661 82 l 1
 615 128 l 1
 731 243 l 1
 407 243 l 1
 321 7 l 1
 267 27 l 1
 346 243 l 1
 90 243 l 1
 90 307 l 1
 369 307 l 1
 455 543 l 1
EndSplineSet
EndChar

StartChar: uni21BE0338
Encoding: 73 -1 73
Width: 706
Flags: W
VStem: 321 64<-100 156 240 541>
LayerCount: 2
Back
Fore
SplineSet
105 77 m 1
 85 131 l 1
 321 217 l 1
 321 655 l 1
 353 663 l 1
 546 471 l 1
 500 425 l 1
 385 541 l 1
 385 240 l 1
 601 319 l 1
 621 265 l 1
 385 179 l 1
 385 -100 l 1
 321 -100 l 1
 321 156 l 1
 105 77 l 1
EndSplineSet
EndChar

StartChar: uni21BC0338
Encoding: 74 -1 74
Width: 930
Flags: W
HStem: 243 64<199 500 584 840>
LayerCount: 2
Back
Fore
SplineSet
475 7 m 1
 421 27 l 1
 500 243 l 1
 85 243 l 1
 77 275 l 1
 269 468 l 1
 315 422 l 1
 199 307 l 1
 523 307 l 1
 609 543 l 1
 663 523 l 1
 584 307 l 1
 840 307 l 1
 840 243 l 1
 561 243 l 1
 475 7 l 1
EndSplineSet
EndChar

StartChar: uni21C30338
Encoding: 75 -1 75
Width: 706
Flags: W
VStem: 321 64<9 310 394 650>
LayerCount: 2
Back
Fore
SplineSet
601 473 m 1
 621 419 l 1
 385 333 l 1
 385 -105 l 1
 353 -113 l 1
 160 79 l 1
 206 125 l 1
 321 9 l 1
 321 310 l 1
 105 231 l 1
 85 285 l 1
 321 371 l 1
 321 650 l 1
 385 650 l 1
 385 394 l 1
 601 473 l 1
EndSplineSet
EndChar

StartChar: sym045_uni0338
Encoding: 76 -1 76
Width: 1082
Flags: W
VStem: 752 64<277 441>
LayerCount: 2
Back
Fore
SplineSet
345 457 m 1
 397 482 l 1
 494 273 l 1
 787 566 l 1
 816 550 l 1
 816 277 l 1
 752 277 l 1
 752 441 l 1
 523 211 l 1
 629 -16 l 1
 577 -41 l 1
 480 168 l 1
 299 -13 l 1
 253 32 l 1
 451 230 l 1
 345 457 l 1
EndSplineSet
EndChar

StartChar: sym044_uni0338
Encoding: 77 -1 77
Width: 1082
Flags: W
HStem: 486 64<375 539>
LayerCount: 2
Back
Fore
SplineSet
506 -41 m 1
 453 -16 l 1
 559 212 l 1
 250 521 l 1
 267 550 l 1
 539 550 l 1
 539 486 l 1
 375 486 l 1
 588 273 l 1
 686 482 l 1
 738 457 l 1
 632 229 l 1
 829 32 l 1
 784 -13 l 1
 603 168 l 1
 506 -41 l 1
EndSplineSet
EndChar

StartChar: sym047_uni0338
Encoding: 78 -1 78
Width: 1082
Flags: W
VStem: 267 64<19 20 110 273>
LayerCount: 2
Back
Fore
SplineSet
738 93 m 1
 686 68 l 1
 588 277 l 1
 331 20 l 1
 331 19 l 1
 295 -16 l 1
 267 0 l 1
 267 273 l 1
 331 273 l 1
 331 110 l 1
 559 338 l 1
 453 566 l 1
 506 591 l 1
 603 382 l 1
 784 563 l 1
 829 518 l 1
 632 321 l 1
 738 93 l 1
EndSplineSet
EndChar

StartChar: sym046_uni0338
Encoding: 79 -1 79
Width: 1082
Flags: W
HStem: 0 64<543 707>
LayerCount: 2
Back
Fore
SplineSet
577 591 m 1
 629 566 l 1
 523 339 l 1
 626 236 729 132 832 29 c 1
 816 0 l 1
 543 0 l 1
 543 64 l 1
 707 64 l 1
 494 277 l 1
 397 68 l 1
 345 93 l 1
 451 320 l 1
 253 518 l 1
 299 563 l 1
 480 382 l 1
 577 591 l 1
EndSplineSet
EndChar

StartChar: uni294B0338
Encoding: 80 -1 80
Width: 930
Flags: W
HStem: 243 64<199 430 500 731>
LayerCount: 2
Back
Fore
SplineSet
482 539 m 1
 539 529 l 1
 500 307 l 1
 731 307 l 1
 615 422 l 1
 661 468 l 1
 853 275 l 1
 845 243 l 1
 489 243 l 1
 448 11 l 1
 391 21 l 1
 430 243 l 1
 199 243 l 1
 315 128 l 1
 269 82 l 1
 77 275 l 1
 85 307 l 1
 441 307 l 1
 482 539 l 1
EndSplineSet
EndChar

StartChar: uni294D0338
Encoding: 81 -1 81
Width: 706
Flags: W
VStem: 321 64<9 233 317 541>
LayerCount: 2
Back
Fore
SplineSet
105 154 m 1
 85 208 l 1
 321 294 l 1
 321 541 l 1
 206 425 l 1
 160 471 l 1
 353 663 l 1
 385 655 l 1
 385 317 l 1
 601 396 l 1
 621 342 l 1
 385 256 l 1
 385 9 l 1
 500 125 l 1
 546 79 l 1
 353 -113 l 1
 321 -105 l 1
 321 233 l 1
 105 154 l 1
EndSplineSet
EndChar

StartChar: sym049_uni0338
Encoding: 82 -1 82
Width: 1082
Flags: W
HStem: 0 64<375 539> 486 64<543 707>
LayerCount: 2
Back
Fore
SplineSet
366 474 m 1
 414 507 l 1
 543 322 l 1
 707 486 l 1
 543 486 l 1
 543 550 l 1
 816 550 l 1
 832 521 l 1
 580 269 l 1
 716 76 l 1
 669 43 l 1
 539 228 l 1
 375 64 l 1
 539 64 l 1
 539 0 l 1
 267 0 l 1
 250 29 l 1
 502 281 l 1
 366 474 l 1
EndSplineSet
EndChar

StartChar: sym048_uni0338
Encoding: 83 -1 83
Width: 1082
Flags: W
VStem: 267 64<277 440 530 531> 752 64<109 273>
LayerCount: 2
Back
Fore
SplineSet
451 14 m 1
 399 38 l 1
 505 266 l 1
 331 440 l 1
 331 277 l 1
 267 277 l 1
 267 550 l 1
 295 566 l 1
 331 531 l 1
 331 530 l 1
 534 327 l 1
 631 536 l 1
 683 512 l 1
 577 284 l 1
 752 109 l 1
 752 273 l 1
 816 273 l 1
 816 0 l 1
 787 -16 l 1
 548 223 l 1
 451 14 l 1
EndSplineSet
EndChar

StartChar: uni294A0338
Encoding: 84 -1 84
Width: 930
Flags: W
HStem: 243 64<199 423 507 731>
LayerCount: 2
Back
Fore
SplineSet
532 543 m 1
 586 523 l 1
 507 307 l 1
 845 307 l 1
 853 275 l 1
 661 82 l 1
 615 128 l 1
 731 243 l 1
 484 243 l 1
 398 7 l 1
 344 27 l 1
 423 243 l 1
 85 243 l 1
 77 275 l 1
 269 468 l 1
 315 422 l 1
 199 307 l 1
 446 307 l 1
 532 543 l 1
EndSplineSet
EndChar

StartChar: uni294C0338
Encoding: 85 -1 85
Width: 706
Flags: W
VStem: 321 64<9 240 310 541>
LayerCount: 2
Back
Fore
SplineSet
99 201 m 1
 89 258 l 1
 321 299 l 1
 321 655 l 1
 353 663 l 1
 546 471 l 1
 500 425 l 1
 385 541 l 1
 385 310 l 1
 607 349 l 1
 617 292 l 1
 385 251 l 1
 385 -105 l 1
 353 -113 l 1
 160 79 l 1
 206 125 l 1
 321 9 l 1
 321 240 l 1
 99 201 l 1
EndSplineSet
EndChar

StartChar: sym04B_uni0338
Encoding: 86 -1 86
Width: 1082
Flags: W
VStem: 267 64<19 20 110 273> 752 64<277 441>
LayerCount: 2
Back
Fore
SplineSet
399 512 m 1
 451 536 l 1
 548 327 l 1
 787 566 l 1
 816 550 l 1
 816 277 l 1
 752 277 l 1
 752 441 l 1
 577 266 l 1
 683 38 l 1
 631 14 l 1
 534 223 l 1
 331 20 l 1
 331 19 l 1
 295 -16 l 1
 267 0 l 1
 267 273 l 1
 331 273 l 1
 331 110 l 1
 505 284 l 1
 399 512 l 1
EndSplineSet
EndChar

StartChar: sym04A_uni0338
Encoding: 87 -1 87
Width: 1082
Flags: W
HStem: 0 64<543 707> 486 64<375 539>
LayerCount: 2
Back
Fore
SplineSet
414 43 m 1
 366 76 l 1
 502 269 l 1
 250 521 l 1
 267 550 l 1
 539 550 l 1
 539 486 l 1
 375 486 l 1
 539 322 l 1
 669 507 l 1
 716 474 l 1
 580 281 l 1
 832 29 l 1
 816 0 l 1
 543 0 l 1
 543 64 l 1
 707 64 l 1
 543 228 l 1
 414 43 l 1
EndSplineSet
EndChar

StartChar: uni21CC0338
Encoding: 88 -1 88
Width: 930
Flags: W
HStem: 147 64<199 413 483 840> 339 64<90 447 517 731>
LayerCount: 2
Back
Fore
SplineSet
499 636 m 1
 556 626 l 1
 517 403 l 1
 731 403 l 1
 615 519 l 1
 661 564 l 1
 853 371 l 1
 845 339 l 1
 506 339 l 1
 483 211 l 1
 840 211 l 1
 840 147 l 1
 472 147 l 1
 431 -86 l 1
 374 -76 l 1
 413 147 l 1
 199 147 l 1
 315 31 l 1
 269 -14 l 1
 77 179 l 1
 85 211 l 1
 424 211 l 1
 447 339 l 1
 90 339 l 1
 90 403 l 1
 458 403 l 1
 499 636 l 1
EndSplineSet
EndChar

StartChar: uni296E0338
Encoding: 89 -1 89
Width: 898
Flags: W
VStem: 321 64<-100 198 282 541> 513 64<9 268 352 650>
LayerCount: 2
Back
Fore
SplineSet
105 119 m 1
 85 173 l 1
 321 259 l 1
 321 541 l 1
 206 425 l 1
 160 471 l 1
 353 663 l 1
 385 655 l 1
 385 282 l 1
 513 329 l 1
 513 650 l 1
 577 650 l 1
 577 352 l 1
 794 431 l 1
 813 377 l 1
 577 291 l 1
 577 9 l 1
 693 125 l 1
 738 79 l 1
 545 -113 l 1
 513 -105 l 1
 513 268 l 1
 385 221 l 1
 385 -100 l 1
 321 -100 l 1
 321 198 l 1
 105 119 l 1
EndSplineSet
EndChar

StartChar: sym04D_uni0338
Encoding: 90 -1 90
Width: 1218
Flags: W
HStem: -68 64<511 675> 554 64<543 707>
LayerCount: 2
Back
Fore
SplineSet
378 554 m 1
 426 587 l 1
 555 403 l 1
 707 554 l 1
 543 554 l 1
 543 618 l 1
 816 618 l 1
 832 589 l 1
 752 509 673 429 593 349 c 1
 667 242 l 1
 920 495 l 1
 965 449 l 1
 705 189 l 1
 840 -4 l 1
 793 -37 l 1
 663 148 l 1
 511 -4 l 1
 675 -4 l 1
 675 -68 l 1
 403 -68 l 1
 386 -39 l 1
 626 201 l 1
 551 308 l 1
 299 55 l 1
 253 101 l 1
 514 361 l 1
 378 554 l 1
EndSplineSet
EndChar

StartChar: sym04C_uni0338
Encoding: 91 -1 91
Width: 1218
Flags: W
VStem: 267 64<209 372 462 463> 888 64<177 341>
LayerCount: 2
Back
Fore
SplineSet
476 -79 m 1
 424 -55 l 1
 530 173 l 1
 331 372 l 1
 331 209 l 1
 267 209 l 1
 267 481 l 1
 295 498 l 1
 331 463 l 1
 331 462 l 1
 559 234 l 1
 616 359 l 1
 389 586 l 1
 435 631 l 1
 645 421 l 1
 742 629 l 1
 795 605 l 1
 689 377 l 1
 888 177 l 1
 888 341 l 1
 952 341 l 1
 952 69 l 1
 923 52 l 1
 660 315 l 1
 602 191 l 1
 829 -36 l 1
 784 -81 l 1
 573 130 l 1
 476 -79 l 1
EndSplineSet
EndChar

StartChar: uni21CB0338
Encoding: 92 -1 92
Width: 930
Flags: W
HStem: 147 64<90 388 472 731> 339 64<199 458 542 840>
LayerCount: 2
Back
Fore
SplineSet
567 639 m 1
 621 619 l 1
 542 403 l 1
 840 403 l 1
 840 339 l 1
 519 339 l 1
 472 211 l 1
 845 211 l 1
 853 179 l 1
 661 -14 l 1
 615 31 l 1
 731 147 l 1
 449 147 l 1
 363 -89 l 1
 309 -69 l 1
 388 147 l 1
 90 147 l 1
 90 211 l 1
 411 211 l 1
 458 339 l 1
 85 339 l 1
 77 371 l 1
 269 564 l 1
 315 519 l 1
 199 403 l 1
 481 403 l 1
 567 639 l 1
EndSplineSet
EndChar

StartChar: uni296F0338
Encoding: 93 -1 93
Width: 898
Flags: W
VStem: 321 64<9 223 293 650> 513 64<-100 257 327 541>
LayerCount: 2
Back
Fore
SplineSet
99 184 m 1
 89 241 l 1
 321 282 l 1
 321 650 l 1
 385 650 l 1
 385 293 l 1
 513 316 l 1
 513 655 l 1
 545 663 l 1
 738 471 l 1
 693 425 l 1
 577 541 l 1
 577 327 l 1
 800 366 l 1
 810 309 l 1
 577 268 l 1
 577 -100 l 1
 513 -100 l 1
 513 257 l 1
 385 234 l 1
 385 -105 l 1
 353 -113 l 1
 160 79 l 1
 206 125 l 1
 321 9 l 1
 321 223 l 1
 99 184 l 1
EndSplineSet
EndChar

StartChar: sym04F_uni0338
Encoding: 94 -1 94
Width: 1218
Flags: W
VStem: 267 64<87 88 178 341> 888 64<209 373>
LayerCount: 2
Back
Fore
SplineSet
424 605 m 1
 476 629 l 1
 573 420 l 1
 784 631 l 1
 829 586 l 1
 602 359 l 1
 660 235 l 1
 923 498 l 1
 952 481 l 1
 952 209 l 1
 888 209 l 1
 888 373 l 1
 689 173 l 1
 795 -55 l 1
 742 -79 l 1
 645 129 l 1
 435 -81 l 1
 389 -36 l 1
 616 191 l 1
 559 316 l 1
 331 88 l 1
 331 87 l 1
 295 52 l 1
 267 69 l 1
 267 341 l 1
 331 341 l 1
 331 178 l 1
 530 377 l 1
 424 605 l 1
EndSplineSet
EndChar

StartChar: sym04E_uni0338
Encoding: 95 -1 95
Width: 1218
Flags: W
HStem: -68 64<543 707> 554 64<511 675>
LayerCount: 2
Back
Fore
SplineSet
426 -37 m 1
 378 -4 l 1
 514 189 l 1
 253 449 l 1
 299 495 l 1
 551 242 l 1
 626 349 l 1
 386 589 l 1
 403 618 l 1
 675 618 l 1
 675 554 l 1
 511 554 l 1
 663 402 l 1
 793 587 l 1
 840 554 l 1
 705 361 l 1
 965 101 l 1
 920 55 l 1
 667 308 l 1
 593 201 l 1
 673 121 752 41 832 -39 c 1
 816 -68 l 1
 543 -68 l 1
 543 -4 l 1
 707 -4 l 1
 555 147 l 1
 426 -37 l 1
EndSplineSet
EndChar

StartChar: uni21E20338
Encoding: 96 -1 96
Width: 930
Flags: W
HStem: 243 64<90 259 568 731>
LayerCount: 2
Back
Fore
SplineSet
90 243 m 1
 90 307 l 1
 259 307 l 1
 259 243 l 1
 90 243 l 1
853 275 m 1
 677 98 l 1
 631 144 l 1
 731 243 l 1
 568 243 l 1
 568 307 l 1
 731 307 l 1
 631 406 l 1
 677 452 l 1
 853 275 l 1
480 543 m 1
 535 523 l 1
 347 7 l 1
 293 27 l 1
 480 543 l 1
EndSplineSet
EndChar

StartChar: uni21E10338
Encoding: 97 -1 97
Width: 706
Flags: W
VStem: 321 64<-100 69 378 541>
LayerCount: 2
Back
Fore
SplineSet
385 -100 m 1
 321 -100 l 1
 321 69 l 1
 385 69 l 1
 385 -100 l 1
353 663 m 1
 530 487 l 1
 484 441 l 1
 385 541 l 1
 385 378 l 1
 321 378 l 1
 321 541 l 1
 222 441 l 1
 176 487 l 1
 353 663 l 1
105 103 m 1
 85 157 l 1
 601 345 l 1
 621 290 l 1
 105 103 l 1
EndSplineSet
EndChar

StartChar: uni21E00338
Encoding: 98 -1 98
Width: 930
Flags: W
HStem: 243 64<199 362 671 840>
LayerCount: 2
Back
Fore
SplineSet
840 307 m 1
 840 243 l 1
 671 243 l 1
 671 307 l 1
 840 307 l 1
77 275 m 1
 253 452 l 1
 299 406 l 1
 199 307 l 1
 362 307 l 1
 362 243 l 1
 199 243 l 1
 299 144 l 1
 253 98 l 1
 77 275 l 1
450 7 m 1
 395 27 l 1
 583 543 l 1
 637 523 l 1
 450 7 l 1
EndSplineSet
EndChar

StartChar: uni21E30338
Encoding: 99 -1 99
Width: 706
Flags: W
VStem: 321 64<9 172 481 650>
LayerCount: 2
Back
Fore
SplineSet
321 650 m 1
 385 650 l 1
 385 481 l 1
 321 481 l 1
 321 650 l 1
353 -113 m 1
 176 63 l 1
 222 109 l 1
 321 9 l 1
 321 172 l 1
 385 172 l 1
 385 9 l 1
 484 109 l 1
 530 63 l 1
 353 -113 l 1
601 447 m 1
 621 393 l 1
 105 205 l 1
 85 260 l 1
 601 447 l 1
EndSplineSet
EndChar

StartChar: sym051_uni0338
Encoding: 100 -1 100
Width: 1082
Flags: W
HStem: 486 64<566 707>
VStem: 752 64<300 441>
LayerCount: 2
Back
Fore
SplineSet
299 -13 m 1
 253 32 l 1
 373 152 l 1
 418 107 l 1
 299 -13 l 1
816 550 m 1
 816 300 l 1
 752 300 l 1
 752 441 l 1
 637 325 l 1
 591 370 l 1
 707 486 l 1
 566 486 l 1
 566 550 l 1
 816 550 l 1
363 475 m 1
 415 500 l 1
 647 2 l 1
 595 -22 l 1
 363 475 l 1
EndSplineSet
EndChar

StartChar: sym050_uni0338
Encoding: 101 -1 101
Width: 1082
Flags: W
HStem: 486 64<375 516>
VStem: 267 64<300 440>
LayerCount: 2
Back
Fore
SplineSet
829 32 m 1
 784 -13 l 1
 664 107 l 1
 709 152 l 1
 829 32 l 1
267 550 m 1
 516 550 l 1
 516 486 l 1
 375 486 l 1
 491 370 l 1
 446 325 l 1
 331 440 l 1
 331 300 l 1
 267 300 l 1
 267 550 l 1
488 -22 m 1
 435 2 l 1
 667 500 l 1
 720 475 l 1
 488 -22 l 1
EndSplineSet
EndChar

StartChar: sym053_uni0338
Encoding: 102 -1 102
Width: 1082
Flags: W
HStem: 0 64<375 516>
VStem: 267 64<110 250>
LayerCount: 2
Back
Fore
SplineSet
784 563 m 1
 829 518 l 1
 709 398 l 1
 664 443 l 1
 784 563 l 1
267 0 m 1
 267 250 l 1
 331 250 l 1
 331 110 l 1
 446 225 l 1
 491 180 l 1
 375 64 l 1
 516 64 l 1
 516 0 l 1
 267 0 l 1
720 75 m 1
 667 50 l 1
 435 548 l 1
 488 572 l 1
 720 75 l 1
EndSplineSet
EndChar

StartChar: sym052_uni0338
Encoding: 103 -1 103
Width: 1082
Flags: W
HStem: 0 64<566 707>
VStem: 752 64<109 250>
LayerCount: 2
Back
Fore
SplineSet
253 518 m 1
 299 563 l 1
 418 443 l 1
 373 398 l 1
 253 518 l 1
816 0 m 1
 566 0 l 1
 566 64 l 1
 707 64 l 1
 591 180 l 1
 637 225 l 1
 752 109 l 1
 752 250 l 1
 816 250 l 1
 816 0 l 1
595 572 m 1
 647 548 l 1
 415 50 l 1
 363 75 l 1
 595 572 l 1
EndSplineSet
EndChar

StartChar: uni22B80338
Encoding: 104 -1 104
Width: 930
Flags: W
HStem: 120 64<627.63 742.368> 243 64<90 300 384 539.272> 366 64<627.63 742.368>
VStem: 776 64<217.45 332.55>
CounterMasks: 1 e0
LayerCount: 2
Back
Fore
SplineSet
685 184 m 0
 734 184 776 226 776 275 c 0
 776 324 734 366 685 366 c 0
 635 366 594 325 594 275 c 0
 594 225 635 184 685 184 c 0
685 120 m 0
 609 120 547 175 533 243 c 1
 361 243 l 1
 275 7 l 1
 221 27 l 1
 300 243 l 1
 90 243 l 1
 90 307 l 1
 323 307 l 1
 409 543 l 1
 463 523 l 1
 384 307 l 1
 533 307 l 1
 547 375 609 430 685 430 c 0
 726 430 765 414 795 385 c 0
 824 356 840 316 840 275 c 0
 840 234 824 194 795 165 c 0
 765 136 726 120 685 120 c 0
EndSplineSet
EndChar

StartChar: uni2AEF0338
Encoding: 105 -1 105
Width: 706
Flags: W
HStem: 586 64<295.45 410.55>
VStem: 198 64<437.63 552.368> 321 64<-100 110 194 349.272> 444 64<437.63 552.368>
CounterMasks: 1 70
LayerCount: 2
Back
Fore
SplineSet
353 404 m 0
 403 404 444 445 444 495 c 0
 444 544 402 586 353 586 c 0
 304 586 262 544 262 495 c 0
 262 445 303 404 353 404 c 0
508 495 m 0
 508 419 453 357 385 343 c 1
 385 194 l 1
 601 273 l 1
 621 219 l 1
 385 133 l 1
 385 -100 l 1
 321 -100 l 1
 321 110 l 1
 105 31 l 1
 85 85 l 1
 321 171 l 1
 321 343 l 1
 253 357 198 419 198 495 c 0
 198 536 214 575 243 605 c 0
 272 634 312 650 353 650 c 0
 394 650 434 634 463 605 c 0
 492 575 508 536 508 495 c 0
EndSplineSet
EndChar

StartChar: uni27DC0338
Encoding: 106 -1 106
Width: 930
Flags: W
HStem: 120 64<187.632 302.37> 243 64<390.728 546 630 840> 366 64<187.632 302.37>
VStem: 90 64<217.45 332.55>
CounterMasks: 1 e0
LayerCount: 2
Back
Fore
SplineSet
245 184 m 0
 295 184 336 225 336 275 c 0
 336 325 295 366 245 366 c 0
 196 366 154 324 154 275 c 0
 154 226 196 184 245 184 c 0
245 430 m 0
 321 430 383 375 397 307 c 1
 569 307 l 1
 655 543 l 1
 709 523 l 1
 630 307 l 1
 840 307 l 1
 840 243 l 1
 607 243 l 1
 521 7 l 1
 467 27 l 1
 546 243 l 1
 397 243 l 1
 383 175 321 120 245 120 c 0
 204 120 165 136 135 165 c 0
 106 194 90 234 90 275 c 0
 90 316 106 356 135 385 c 0
 165 414 204 430 245 430 c 0
EndSplineSet
EndChar

StartChar: uni2AF00338
Encoding: 107 -1 107
Width: 706
Flags: W
HStem: -100 64<295.45 410.55>
VStem: 198 64<-2.36848 112.37> 321 64<200.728 356 440 650> 444 64<-2.36848 112.37>
CounterMasks: 1 70
LayerCount: 2
Back
Fore
SplineSet
353 -36 m 0
 402 -36 444 6 444 55 c 0
 444 105 403 146 353 146 c 0
 303 146 262 105 262 55 c 0
 262 6 304 -36 353 -36 c 0
198 55 m 0
 198 131 253 193 321 207 c 1
 321 356 l 1
 105 277 l 1
 85 331 l 1
 321 417 l 1
 321 650 l 1
 385 650 l 1
 385 440 l 1
 601 519 l 1
 621 465 l 1
 385 379 l 1
 385 207 l 1
 453 193 508 131 508 55 c 0
 508 14 492 -25 463 -55 c 0
 434 -84 394 -100 353 -100 c 0
 312 -100 272 -84 243 -55 c 0
 214 -25 198 14 198 55 c 0
EndSplineSet
EndChar

StartChar: sym054_uni0338
Encoding: 108 -1 108
Width: 930
Flags: W
HStem: 120 310<607.199 764.452> 243 64<90 300 384 539.272>
LayerCount: 2
Back
Fore
SplineSet
685 120 m 0x80
 609 120 547 175 533 243 c 1
 361 243 l 1
 275 7 l 1
 221 27 l 1
 300 243 l 1
 90 243 l 1
 90 307 l 1
 323 307 l 1
 409 543 l 1
 463 523 l 1
 384 307 l 1
 533 307 l 1x40
 547 375 609 430 685 430 c 0
 726 430 765 414 795 385 c 0
 824 356 840 316 840 275 c 0
 840 234 824 194 795 165 c 0
 765 136 726 120 685 120 c 0x80
EndSplineSet
EndChar

StartChar: sym056_uni0338
Encoding: 109 -1 109
Width: 706
Flags: W
VStem: 198 310<417.199 574.452> 321 64<-100 110 194 349.272>
LayerCount: 2
Back
Fore
SplineSet
508 495 m 0x80
 508 419 453 357 385 343 c 1
 385 194 l 1
 601 273 l 1
 621 219 l 1
 385 133 l 1
 385 -100 l 1
 321 -100 l 1
 321 110 l 1
 105 31 l 1
 85 85 l 1
 321 171 l 1
 321 343 l 1x40
 253 357 198 419 198 495 c 0
 198 536 214 575 243 605 c 0
 272 634 312 650 353 650 c 0
 394 650 434 634 463 605 c 0
 492 575 508 536 508 495 c 0x80
EndSplineSet
EndChar

StartChar: sym055_uni0338
Encoding: 110 -1 110
Width: 930
Flags: W
HStem: 120 310<165.548 322.801> 243 64<390.728 546 630 840>
LayerCount: 2
Back
Fore
SplineSet
245 430 m 0x80
 321 430 383 375 397 307 c 1
 569 307 l 1
 655 543 l 1
 709 523 l 1
 630 307 l 1
 840 307 l 1
 840 243 l 1
 607 243 l 1
 521 7 l 1
 467 27 l 1
 546 243 l 1
 397 243 l 1x40
 383 175 321 120 245 120 c 0
 204 120 165 136 135 165 c 0
 106 194 90 234 90 275 c 0
 90 316 106 356 135 385 c 0
 165 414 204 430 245 430 c 0x80
EndSplineSet
EndChar

StartChar: sym057_uni0338
Encoding: 111 -1 111
Width: 706
Flags: W
VStem: 198 310<-24.4519 132.801> 321 64<200.728 356 440 650>
LayerCount: 2
Back
Fore
SplineSet
198 55 m 0x80
 198 131 253 193 321 207 c 1
 321 356 l 1
 105 277 l 1
 85 331 l 1
 321 417 l 1
 321 650 l 1
 385 650 l 1
 385 440 l 1
 601 519 l 1
 621 465 l 1
 385 379 l 1
 385 207 l 1x40
 453 193 508 131 508 55 c 0
 508 14 492 -25 463 -55 c 0
 434 -84 394 -100 353 -100 c 0
 312 -100 272 -84 243 -55 c 0
 214 -25 198 14 198 55 c 0x80
EndSplineSet
EndChar

StartChar: uni29DF0338
Encoding: 112 -1 112
Width: 1230
Flags: W
HStem: 120 64<187.632 302.37 927.63 1042.37> 243 64<390.728 573 657 839.272> 366 64<187.632 302.37 927.63 1042.37>
VStem: 90 64<217.45 332.55> 1076 64<217.45 332.55>
CounterMasks: 1 e0
LayerCount: 2
Back
Fore
SplineSet
985 184 m 0
 1034 184 1076 226 1076 275 c 0
 1076 324 1034 366 985 366 c 0
 935 366 894 325 894 275 c 0
 894 225 935 184 985 184 c 0
245 184 m 0
 295 184 336 225 336 275 c 0
 336 325 295 366 245 366 c 0
 196 366 154 324 154 275 c 0
 154 226 196 184 245 184 c 0
245 430 m 0
 321 430 383 375 397 307 c 1
 596 307 l 1
 682 543 l 1
 736 523 l 1
 657 307 l 1
 833 307 l 1
 847 375 909 430 985 430 c 0
 1026 430 1065 414 1095 385 c 0
 1124 356 1140 316 1140 275 c 0
 1140 234 1124 194 1095 165 c 0
 1065 136 1026 120 985 120 c 0
 909 120 847 175 833 243 c 1
 634 243 l 1
 548 7 l 1
 494 27 l 1
 573 243 l 1
 397 243 l 1
 383 175 321 120 245 120 c 0
 204 120 165 136 135 165 c 0
 106 194 90 234 90 275 c 0
 90 316 106 356 135 385 c 0
 165 414 204 430 245 430 c 0
EndSplineSet
EndChar

StartChar: sym058_uni0338
Encoding: 113 -1 113
Width: 1230
Flags: W
HStem: 120 310<165.548 322.801 907.199 1064.45> 243 64<390.728 573 657 839.272>
LayerCount: 2
Back
Fore
SplineSet
245 430 m 0x80
 321 430 383 375 397 307 c 1
 596 307 l 1
 682 543 l 1
 736 523 l 1
 657 307 l 1
 833 307 l 1x40
 847 375 909 430 985 430 c 0
 1026 430 1065 414 1095 385 c 0
 1124 356 1140 316 1140 275 c 0
 1140 234 1124 194 1095 165 c 0
 1065 136 1026 120 985 120 c 0x80
 909 120 847 175 833 243 c 1
 634 243 l 1
 548 7 l 1
 494 27 l 1
 573 243 l 1
 397 243 l 1x40
 383 175 321 120 245 120 c 0
 204 120 165 136 135 165 c 0
 106 194 90 234 90 275 c 0
 90 316 106 356 135 385 c 0
 165 414 204 430 245 430 c 0x80
EndSplineSet
EndChar

StartChar: uni22B70338
Encoding: 114 -1 114
Width: 1230
Flags: W
HStem: 120 310<165.548 322.801> 120 64<927.63 1042.37> 243 64<390.728 573 657 839.272> 366 64<927.63 1042.37>
VStem: 1076 64<217.45 332.55>
LayerCount: 2
Back
Fore
SplineSet
985 184 m 0x58
 1034 184 1076 226 1076 275 c 0
 1076 324 1034 366 985 366 c 0
 935 366 894 325 894 275 c 0
 894 225 935 184 985 184 c 0x58
245 430 m 0x88
 321 430 383 375 397 307 c 1
 596 307 l 1
 682 543 l 1
 736 523 l 1
 657 307 l 1
 833 307 l 1
 847 375 909 430 985 430 c 0
 1026 430 1065 414 1095 385 c 0
 1124 356 1140 316 1140 275 c 0
 1140 234 1124 194 1095 165 c 0
 1065 136 1026 120 985 120 c 0
 909 120 847 175 833 243 c 1
 634 243 l 1
 548 7 l 1
 494 27 l 1
 573 243 l 1
 397 243 l 1x78
 383 175 321 120 245 120 c 0
 204 120 165 136 135 165 c 0
 106 194 90 234 90 275 c 0
 90 316 106 356 135 385 c 0
 165 414 204 430 245 430 c 0x88
EndSplineSet
EndChar

StartChar: uni22B60338
Encoding: 115 -1 115
Width: 1230
Flags: W
HStem: 120 310<907.199 1064.45> 120 64<187.632 302.37> 243 64<390.728 573 657 839.272> 366 64<187.632 302.37>
VStem: 90 64<217.45 332.55>
LayerCount: 2
Back
Fore
SplineSet
245 184 m 0x58
 295 184 336 225 336 275 c 0
 336 325 295 366 245 366 c 0
 196 366 154 324 154 275 c 0
 154 226 196 184 245 184 c 0x58
985 120 m 0x88
 909 120 847 175 833 243 c 1
 634 243 l 1
 548 7 l 1
 494 27 l 1
 573 243 l 1
 397 243 l 1
 383 175 321 120 245 120 c 0
 204 120 165 136 135 165 c 0
 106 194 90 234 90 275 c 0
 90 316 106 356 135 385 c 0
 165 414 204 430 245 430 c 0
 321 430 383 375 397 307 c 1
 596 307 l 1
 682 543 l 1
 736 523 l 1
 657 307 l 1
 833 307 l 1x78
 847 375 909 430 985 430 c 0
 1026 430 1065 414 1095 385 c 0
 1124 356 1140 316 1140 275 c 0
 1140 234 1124 194 1095 165 c 0
 1065 136 1026 120 985 120 c 0x88
EndSplineSet
EndChar

StartChar: sym05A_uni0338
Encoding: 116 -1 116
Width: 930
Flags: W
HStem: 40 64<90 223 293 364.434> 243 64<90 258 329 431 491.932 840> 446 64<90 294>
VStem: 431 64<178.71 243 307 373.306>
CounterMasks: 1 e0
LayerCount: 2
Back
Fore
SplineSet
293 104 m 1
 299 104 l 2
 371 104 420 168 431 243 c 1
 317 243 l 1
 293 104 l 1
351 434 m 1
 329 307 l 1
 431 307 l 1
 423 362 394 412 351 434 c 1
333 665 m 1
 390 655 l 1
 362 498 l 1
 435 470 485 394 495 307 c 1
 840 307 l 1
 840 243 l 1
 495 243 l 1
 482 133 406 40 299 40 c 2
 281 40 l 1
 254 -115 l 1
 197 -105 l 1
 223 40 l 1
 90 40 l 1
 90 104 l 1
 234 104 l 1
 258 243 l 1
 90 243 l 1
 90 307 l 1
 270 307 l 1
 294 446 l 1
 90 446 l 1
 90 510 l 1
 299 510 l 2
 301 510 304 510 306 510 c 1
 333 665 l 1
EndSplineSet
EndChar

StartChar: uni22D40338
Encoding: 117 -1 117
Width: 957
Flags: W
HStem: 241 64<382.71 447 511 576.702>
VStem: 244 64<-100 33 103 174.434> 447 64<-100 69 139 241 301.932 650> 649 64<-100 104>
LayerCount: 2
Back
Fore
SplineSet
637 161 m 1
 615 204 566 233 511 241 c 1
 511 139 l 1
 637 161 l 1
308 103 m 1
 447 127 l 1
 447 241 l 1
 371 230 308 181 308 109 c 2
 308 103 l 1
99 7 m 1
 89 64 l 1
 244 91 l 1
 244 109 l 2
 244 216 337 292 447 305 c 1
 447 650 l 1
 511 650 l 1
 511 305 l 1
 597 295 673 245 701 172 c 1
 858 200 l 1
 868 143 l 1
 713 116 l 1
 713 114 713 111 713 109 c 2
 713 -100 l 1
 649 -100 l 1
 649 104 l 1
 511 80 l 1
 511 -100 l 1
 447 -100 l 1
 447 69 l 1
 308 44 l 1
 308 -100 l 1
 244 -100 l 1
 244 33 l 1
 99 7 l 1
EndSplineSet
EndChar

StartChar: sym05B_uni0338
Encoding: 118 -1 118
Width: 930
Flags: W
HStem: 40 64<636 840> 243 64<90 438.068 499 601 672 840> 446 64<565.566 637 707 840>
VStem: 435 64<176.694 243 307 371.29>
CounterMasks: 1 e0
LayerCount: 2
Back
Fore
SplineSet
637 446 m 1
 631 446 l 2
 559 446 510 382 499 307 c 1
 613 307 l 1
 637 446 l 1
579 116 m 1
 601 243 l 1
 499 243 l 1
 507 188 536 138 579 116 c 1
597 -115 m 1
 540 -105 l 1
 568 52 l 1
 495 80 445 156 435 243 c 1
 90 243 l 1
 90 307 l 1
 435 307 l 1
 448 417 524 510 631 510 c 2
 649 510 l 1
 676 665 l 1
 733 655 l 1
 707 510 l 1
 840 510 l 1
 840 446 l 1
 696 446 l 1
 672 307 l 1
 840 307 l 1
 840 243 l 1
 660 243 l 1
 636 104 l 1
 840 104 l 1
 840 40 l 1
 631 40 l 2
 629 40 626 40 624 40 c 1
 597 -115 l 1
EndSplineSet
EndChar

StartChar: sym059_uni0338
Encoding: 119 -1 119
Width: 957
Flags: W
HStem: 245 64<380.694 447 511 575.183>
VStem: 244 64<446 650> 447 64<-100 248.068 309 412 482 650> 649 64<375.566 447 517 650>
LayerCount: 2
Back
Fore
SplineSet
320 389 m 1
 342 346 391 317 447 309 c 1
 447 412 l 1
 320 389 l 1
649 447 m 1
 511 423 l 1
 511 309 l 1
 586 320 649 369 649 441 c 2
 649 447 l 1
858 543 m 1
 868 486 l 1
 713 459 l 1
 713 441 l 2
 713 334 621 258 511 245 c 1
 511 -100 l 1
 447 -100 l 1
 447 245 l 1
 360 255 284 305 256 378 c 1
 99 350 l 1
 89 407 l 1
 244 434 l 1
 244 436 244 439 244 441 c 2
 244 650 l 1
 308 650 l 1
 308 446 l 1
 447 470 l 1
 447 650 l 1
 511 650 l 1
 511 482 l 1
 649 506 l 1
 649 650 l 1
 713 650 l 1
 713 517 l 1
 858 543 l 1
EndSplineSet
EndChar

StartChar: uni21C90338
Encoding: 120 -1 120
Width: 930
Flags: W
HStem: 89 64<90 290 374 731> 397 64<90 402 486 731>
LayerCount: 2
Back
Fore
SplineSet
654 275 m 1
 631 298 l 1
 731 397 l 1
 463 397 l 1
 374 153 l 1
 731 153 l 1
 631 252 l 1
 654 275 l 1
483 620 m 1
 537 600 l 1
 486 461 l 1
 731 461 l 1
 631 560 l 1
 677 606 l 1
 853 429 l 1
 700 275 l 1
 853 121 l 1
 677 -56 l 1
 631 -10 l 1
 731 89 l 1
 351 89 l 1
 293 -70 l 1
 239 -50 l 1
 290 89 l 1
 90 89 l 1
 90 153 l 1
 313 153 l 1
 402 397 l 1
 90 397 l 1
 90 461 l 1
 425 461 l 1
 483 620 l 1
EndSplineSet
EndChar

StartChar: uni21C80338
Encoding: 121 -1 121
Width: 860
Flags: W
VStem: 244 64<-100 100 184 541> 552 64<-100 212 296 541>
LayerCount: 2
Back
Fore
SplineSet
430 464 m 1
 407 441 l 1
 308 541 l 1
 308 184 l 1
 552 273 l 1
 552 541 l 1
 453 441 l 1
 430 464 l 1
105 49 m 1
 85 103 l 1
 244 161 l 1
 244 541 l 1
 145 441 l 1
 99 487 l 1
 276 663 l 1
 430 510 l 1
 584 663 l 1
 761 487 l 1
 715 441 l 1
 616 541 l 1
 616 296 l 1
 755 347 l 1
 775 293 l 1
 616 235 l 1
 616 -100 l 1
 552 -100 l 1
 552 212 l 1
 308 123 l 1
 308 -100 l 1
 244 -100 l 1
 244 100 l 1
 105 49 l 1
EndSplineSet
EndChar

StartChar: uni21C70338
Encoding: 122 -1 122
Width: 930
Flags: W
HStem: 89 64<199 444 528 840> 397 64<199 556 640 840>
LayerCount: 2
Back
Fore
SplineSet
276 275 m 1
 299 252 l 1
 199 153 l 1
 467 153 l 1
 556 397 l 1
 199 397 l 1
 299 298 l 1
 276 275 l 1
447 -70 m 1
 393 -50 l 1
 444 89 l 1
 199 89 l 1
 299 -10 l 1
 253 -56 l 1
 77 121 l 1
 230 275 l 1
 77 429 l 1
 253 606 l 1
 299 560 l 1
 199 461 l 1
 579 461 l 1
 637 620 l 1
 691 600 l 1
 640 461 l 1
 840 461 l 1
 840 397 l 1
 617 397 l 1
 528 153 l 1
 840 153 l 1
 840 89 l 1
 505 89 l 1
 447 -70 l 1
EndSplineSet
EndChar

StartChar: uni21CA0338
Encoding: 123 -1 123
Width: 860
Flags: W
VStem: 244 64<9 254 338 650> 552 64<9 366 450 650>
LayerCount: 2
Back
Fore
SplineSet
430 86 m 1
 453 109 l 1
 552 9 l 1
 552 366 l 1
 308 277 l 1
 308 9 l 1
 407 109 l 1
 430 86 l 1
755 501 m 1
 775 447 l 1
 616 389 l 1
 616 9 l 1
 715 109 l 1
 761 63 l 1
 584 -113 l 1
 430 40 l 1
 276 -113 l 1
 99 63 l 1
 145 109 l 1
 244 9 l 1
 244 254 l 1
 105 203 l 1
 85 257 l 1
 244 315 l 1
 244 650 l 1
 308 650 l 1
 308 338 l 1
 552 427 l 1
 552 650 l 1
 616 650 l 1
 616 450 l 1
 755 501 l 1
EndSplineSet
EndChar

StartChar: sym05D_uni0338
Encoding: 124 -1 124
Width: 1191
Flags: W
HStem: 377 64<761 870> 536 20G<372.833 426.403> 594 64<511 652>
VStem: 697 64<441 549> 915 64<191 331>
LayerCount: 2
Back
Fore
SplineSet
729 409 m 1
 697 409 l 1
 697 549 l 1
 508 360 l 1
 618 125 l 1
 870 377 l 1
 729 377 l 1
 729 409 l 1
364 532 m 1
 417 556 l 1
 480 422 l 1
 652 594 l 1
 511 594 l 1
 511 658 l 1
 761 658 l 1
 761 441 l 1
 979 441 l 1
 979 191 l 1
 915 191 l 1
 915 331 l 1
 647 63 l 1
 718 -90 l 1
 666 -115 l 1
 603 19 l 1
 462 -122 l 1
 417 -76 l 1
 574 81 l 1
 465 317 l 1
 244 96 l 1
 199 141 l 1
 436 378 l 1
 364 532 l 1
EndSplineSet
EndChar

StartChar: sym05C_uni0338
Encoding: 125 -1 125
Width: 1191
Flags: W
HStem: 377 64<321 430> 536 20G<765.667 818.333> 594 64<540 680>
VStem: 212 64<191 332> 430 64<441 549>
LayerCount: 2
Back
Fore
SplineSet
462 409 m 1
 462 377 l 1
 321 377 l 1
 573 125 l 1
 683 360 l 1
 494 549 l 1
 494 409 l 1
 462 409 l 1
525 -115 m 1
 473 -90 l 1
 544 63 l 1
 276 332 l 1
 276 191 l 1
 212 191 l 1
 212 441 l 1
 430 441 l 1
 430 658 l 1
 680 658 l 1
 680 594 l 1
 540 594 l 1
 712 421 l 1
 775 556 l 1
 827 532 l 1
 755 378 l 1
 992 141 l 1
 947 96 l 1
 726 317 l 1
 617 81 l 1
 774 -76 l 1
 729 -122 l 1
 588 19 l 1
 525 -115 l 1
EndSplineSet
EndChar

StartChar: sym05F_uni0338
Encoding: 126 -1 126
Width: 1191
Flags: W
HStem: -108 64<540 680> -6 21G<765.667 818.333> 109 64<321 430>
VStem: 212 64<218 359> 430 64<1 109>
LayerCount: 2
Back
Fore
SplineSet
462 141 m 1
 494 141 l 1
 494 1 l 1
 683 190 l 1
 573 425 l 1
 321 173 l 1
 462 173 l 1
 462 141 l 1
827 18 m 1
 775 -6 l 1
 712 129 l 1
 540 -44 l 1
 680 -44 l 1
 680 -108 l 1
 430 -108 l 1
 430 109 l 1
 212 109 l 1
 212 359 l 1
 276 359 l 1
 276 218 l 1
 544 487 l 1
 473 640 l 1
 525 665 l 1
 588 531 l 1
 729 672 l 1
 774 626 l 1
 617 469 l 1
 726 233 l 1
 947 454 l 1
 992 409 l 1
 755 172 l 1
 827 18 l 1
EndSplineSet
EndChar

StartChar: sym05E_uni0338
Encoding: 127 -1 127
Width: 1191
Flags: W
HStem: -108 64<511 652> -6 21G<372.833 426.403> 109 64<761 870>
VStem: 697 64<1 109> 915 64<219 359>
LayerCount: 2
Back
Fore
SplineSet
729 141 m 1
 729 173 l 1
 870 173 l 1
 618 425 l 1
 508 190 l 1
 697 1 l 1
 697 141 l 1
 729 141 l 1
666 665 m 1
 718 640 l 1
 647 487 l 1
 915 219 l 1
 915 359 l 1
 979 359 l 1
 979 109 l 1
 761 109 l 1
 761 -108 l 1
 511 -108 l 1
 511 -44 l 1
 652 -44 l 1
 480 128 l 1
 417 -6 l 1
 364 18 l 1
 436 172 l 1
 199 409 l 1
 244 454 l 1
 465 233 l 1
 574 469 l 1
 417 626 l 1
 462 672 l 1
 603 531 l 1
 666 665 l 1
EndSplineSet
EndChar

StartChar: uni21C40338
Encoding: 128 -1 128
Width: 930
Flags: W
HStem: 89 64<199 403 473 840> 397 64<90 457 527 731>
LayerCount: 2
Back
Fore
SplineSet
496 616 m 1
 553 606 l 1
 527 461 l 1
 731 461 l 1
 631 560 l 1
 677 606 l 1
 853 429 l 1
 677 252 l 1
 631 298 l 1
 731 397 l 1
 516 397 l 1
 473 153 l 1
 840 153 l 1
 840 89 l 1
 461 89 l 1
 434 -66 l 1
 377 -56 l 1
 403 89 l 1
 199 89 l 1
 299 -10 l 1
 253 -56 l 1
 77 121 l 1
 253 298 l 1
 299 252 l 1
 199 153 l 1
 414 153 l 1
 457 397 l 1
 90 397 l 1
 90 461 l 1
 469 461 l 1
 496 616 l 1
EndSplineSet
EndChar

StartChar: uni21C50338
Encoding: 129 -1 129
Width: 860
Flags: W
VStem: 244 64<-100 177 261 541> 552 64<9 289 373 650>
LayerCount: 2
Back
Fore
SplineSet
105 126 m 1
 85 180 l 1
 244 238 l 1
 244 541 l 1
 145 441 l 1
 99 487 l 1
 276 663 l 1
 453 487 l 1
 407 441 l 1
 308 541 l 1
 308 261 l 1
 552 350 l 1
 552 650 l 1
 616 650 l 1
 616 373 l 1
 755 424 l 1
 775 370 l 1
 616 312 l 1
 616 9 l 1
 715 109 l 1
 761 63 l 1
 584 -113 l 1
 407 63 l 1
 453 109 l 1
 552 9 l 1
 552 289 l 1
 308 200 l 1
 308 -100 l 1
 244 -100 l 1
 244 177 l 1
 105 126 l 1
EndSplineSet
EndChar

StartChar: sym061_uni0338
Encoding: 130 -1 130
Width: 1191
Flags: W
HStem: -108 64<540 680> 594 64<511 652>
VStem: 430 64<1 141> 697 64<409 549>
LayerCount: 2
Back
Fore
SplineSet
376 538 m 1
 423 571 l 1
 508 450 l 1
 652 594 l 1
 511 594 l 1
 511 658 l 1
 761 658 l 1
 761 409 l 1
 697 409 l 1
 697 549 l 1
 545 397 l 1
 687 194 l 1
 947 454 l 1
 992 409 l 1
 725 141 l 1
 815 12 l 1
 768 -21 l 1
 683 100 l 1
 540 -44 l 1
 680 -44 l 1
 680 -108 l 1
 430 -108 l 1
 430 141 l 1
 494 141 l 1
 494 1 l 1
 646 153 l 1
 504 356 l 1
 244 96 l 1
 199 141 l 1
 467 409 l 1
 376 538 l 1
EndSplineSet
EndChar

StartChar: sym060_uni0338
Encoding: 131 -1 131
Width: 1191
Flags: W
HStem: 109 64<729 870> 377 64<321 462>
VStem: 212 64<191 332> 915 64<219 359>
LayerCount: 2
Back
Fore
SplineSet
471 -60 m 1
 419 -36 l 1
 490 117 l 1
 276 332 l 1
 276 191 l 1
 212 191 l 1
 212 441 l 1
 462 441 l 1
 462 377 l 1
 321 377 l 1
 519 179 l 1
 629 414 l 1
 417 626 l 1
 462 672 l 1
 658 476 l 1
 720 610 l 1
 772 586 l 1
 701 433 l 1
 915 219 l 1
 915 359 l 1
 979 359 l 1
 979 109 l 1
 729 109 l 1
 729 173 l 1
 870 173 l 1
 672 371 l 1
 562 136 l 1
 774 -76 l 1
 729 -122 l 1
 533 74 l 1
 471 -60 l 1
EndSplineSet
EndChar

StartChar: uni21C60338
Encoding: 132 -1 132
Width: 930
Flags: W
HStem: 89 64<90 367 451 731> 397 64<199 479 563 840>
LayerCount: 2
Back
Fore
SplineSet
560 620 m 1
 614 600 l 1
 563 461 l 1
 840 461 l 1
 840 397 l 1
 540 397 l 1
 451 153 l 1
 731 153 l 1
 631 252 l 1
 677 298 l 1
 853 121 l 1
 677 -56 l 1
 631 -10 l 1
 731 89 l 1
 428 89 l 1
 370 -70 l 1
 316 -50 l 1
 367 89 l 1
 90 89 l 1
 90 153 l 1
 390 153 l 1
 479 397 l 1
 199 397 l 1
 299 298 l 1
 253 252 l 1
 77 429 l 1
 253 606 l 1
 299 560 l 1
 199 461 l 1
 502 461 l 1
 560 620 l 1
EndSplineSet
EndChar

StartChar: uni21F50338
Encoding: 133 -1 133
Width: 860
Flags: W
VStem: 244 64<9 213 283 650> 552 64<-100 267 337 541>
LayerCount: 2
Back
Fore
SplineSet
99 187 m 1
 89 244 l 1
 244 271 l 1
 244 650 l 1
 308 650 l 1
 308 283 l 1
 552 326 l 1
 552 541 l 1
 453 441 l 1
 407 487 l 1
 584 663 l 1
 761 487 l 1
 715 441 l 1
 616 541 l 1
 616 337 l 1
 761 363 l 1
 771 306 l 1
 616 279 l 1
 616 -100 l 1
 552 -100 l 1
 552 267 l 1
 308 224 l 1
 308 9 l 1
 407 109 l 1
 453 63 l 1
 276 -113 l 1
 99 63 l 1
 145 109 l 1
 244 9 l 1
 244 213 l 1
 99 187 l 1
EndSplineSet
EndChar

StartChar: sym063_uni0338
Encoding: 134 -1 134
Width: 1191
Flags: W
HStem: 109 64<321 462> 377 64<729 870>
VStem: 212 64<218 359> 915 64<191 331>
LayerCount: 2
Back
Fore
SplineSet
419 586 m 1
 471 610 l 1
 533 476 l 1
 729 672 l 1
 774 626 l 1
 562 414 l 1
 672 179 l 1
 870 377 l 1
 729 377 l 1
 729 441 l 1
 979 441 l 1
 979 191 l 1
 915 191 l 1
 915 331 l 1
 701 117 l 1
 772 -36 l 1
 720 -60 l 1
 658 74 l 1
 462 -122 l 1
 417 -76 l 1
 629 136 l 1
 519 371 l 1
 321 173 l 1
 462 173 l 1
 462 109 l 1
 212 109 l 1
 212 359 l 1
 276 359 l 1
 276 218 l 1
 490 433 l 1
 419 586 l 1
EndSplineSet
EndChar

StartChar: sym062_uni0338
Encoding: 135 -1 135
Width: 1191
Flags: W
HStem: -108 64<511 652> 594 64<540 680>
VStem: 430 64<409 549> 697 64<1 141>
LayerCount: 2
Back
Fore
SplineSet
423 -21 m 1
 376 12 l 1
 467 141 l 1
 199 409 l 1
 244 454 l 1
 504 194 l 1
 646 397 l 1
 494 549 l 1
 494 409 l 1
 430 409 l 1
 430 658 l 1
 680 658 l 1
 680 594 l 1
 540 594 l 1
 683 450 l 1
 768 571 l 1
 815 538 l 1
 725 409 l 1
 992 141 l 1
 947 96 l 1
 687 356 l 1
 545 153 l 1
 697 1 l 1
 697 141 l 1
 761 141 l 1
 761 -108 l 1
 511 -108 l 1
 511 -44 l 1
 652 -44 l 1
 508 100 l 1
 423 -21 l 1
EndSplineSet
EndChar

StartChar: uni219D0338
Encoding: 136 57883 136
Width: 930
Flags: W
HStem: 166 64<451.85 545.866> 243 64<614.958 731> 320 64<216.46 326.384>
CounterMasks: 1 e0
LayerCount: 2
Back
Fore
SplineSet
455 543 m 1
 509 523 l 1
 422 284 l 1
 443 256 469 230 503 230 c 0
 526 230 542 250 561 263 c 0
 590 283 624 307 656 307 c 2
 731 307 l 1
 631 406 l 1
 677 452 l 1
 853 275 l 1
 677 98 l 1
 631 144 l 1
 731 243 l 1
 656 243 l 2
 644 243 616 223 598 210 c 0
 568 190 539 166 503 166 c 0
 462 166 426 187 397 216 c 1
 321 7 l 1
 267 27 l 1
 355 268 l 1
 334 295 308 320 274 320 c 0
 217 320 182 266 148 218 c 1
 96 255 l 1
 141 319 197 384 274 384 c 0
 315 384 350 364 379 336 c 1
 455 543 l 1
EndSplineSet
EndChar

StartChar: sym064_uni0338.alt
Encoding: 137 -1 137
Width: 706
Flags: W
VStem: 244 64<26.4603 136.384> 321 64<424.958 541> 398 64<261.85 355.866>
CounterMasks: 1 e0
LayerCount: 2
Back
Fore
SplineSet
85 265 m 1
 105 319 l 1
 344 232 l 1
 372 253 398 279 398 313 c 0
 398 336 378 352 365 371 c 0
 345 400 321 434 321 466 c 2
 321 541 l 1
 222 441 l 1
 176 487 l 1
 353 663 l 1
 530 487 l 1
 484 441 l 1
 385 541 l 1
 385 466 l 2
 385 454 405 426 418 408 c 0
 438 378 462 349 462 313 c 0
 462 272 441 236 412 207 c 1
 621 131 l 1
 601 77 l 1
 360 165 l 1
 333 144 308 118 308 84 c 0
 308 27 362 -8 410 -42 c 1
 373 -94 l 1
 309 -49 244 7 244 84 c 0
 244 125 264 160 292 189 c 1
 85 265 l 1
EndSplineSet
EndChar

StartChar: uni219C0338.alt
Encoding: 138 -1 138
Width: 930
Flags: W
HStem: 166 64<603.616 713.54> 243 64<199 315.042> 320 64<384.134 478.15>
CounterMasks: 1 e0
LayerCount: 2
Back
Fore
SplineSet
475 7 m 1
 421 27 l 1
 508 266 l 1
 487 294 461 320 427 320 c 0
 404 320 388 300 369 287 c 0
 340 267 306 243 274 243 c 2
 199 243 l 1
 299 144 l 1
 253 98 l 1
 77 275 l 1
 253 452 l 1
 299 406 l 1
 199 307 l 1
 274 307 l 2
 286 307 314 327 332 340 c 0
 362 360 391 384 427 384 c 0
 468 384 504 363 533 334 c 1
 609 543 l 1
 663 523 l 1
 575 282 l 1
 596 255 622 230 656 230 c 0
 713 230 748 284 782 332 c 1
 834 295 l 1
 789 231 733 166 656 166 c 0
 615 166 580 186 551 214 c 1
 475 7 l 1
EndSplineSet
EndChar

StartChar: sym065_uni0338
Encoding: 139 -1 139
Width: 706
Flags: W
VStem: 244 64<194.134 288.15> 321 64<9 125.042> 398 64<413.616 523.54>
CounterMasks: 1 e0
LayerCount: 2
Back
Fore
SplineSet
621 285 m 1
 601 231 l 1
 362 318 l 1
 334 297 308 271 308 237 c 0
 308 214 328 198 341 179 c 0
 361 150 385 116 385 84 c 2
 385 9 l 1
 484 109 l 1
 530 63 l 1
 353 -113 l 1
 176 63 l 1
 222 109 l 1
 321 9 l 1
 321 84 l 2
 321 96 301 124 288 142 c 0
 268 172 244 201 244 237 c 0
 244 278 265 314 294 343 c 1
 85 419 l 1
 105 473 l 1
 346 385 l 1
 373 406 398 432 398 466 c 0
 398 523 344 558 296 592 c 1
 333 644 l 1
 397 599 462 543 462 466 c 0
 462 425 442 390 414 361 c 1
 621 285 l 1
EndSplineSet
EndChar

StartChar: uni219D0338.alt
Encoding: 140 -1 140
Width: 930
Flags: W
HStem: 166 64<216.46 320.246> 243 64<614.958 731> 320 64<455.39 545.866>
CounterMasks: 1 e0
LayerCount: 2
Back
Fore
SplineSet
455 543 m 1
 509 523 l 1
 455 374 l 1
 470 380 486 384 503 384 c 0
 539 384 568 360 598 340 c 0
 616 327 644 307 656 307 c 2
 731 307 l 1
 631 406 l 1
 677 452 l 1
 853 275 l 1
 677 98 l 1
 631 144 l 1
 731 243 l 1
 656 243 l 2
 624 243 590 267 561 287 c 0
 542 300 526 320 503 320 c 0
 461 320 433 281 409 249 c 1
 321 7 l 1
 267 27 l 1
 321 175 l 1
 306 169 291 166 274 166 c 0
 197 166 141 231 96 295 c 1
 148 332 l 1
 182 284 217 230 274 230 c 0
 314 230 342 264 365 296 c 1
 455 543 l 1
EndSplineSet
EndChar

StartChar: sym064_uni0338
Encoding: 141 -1 141
Width: 706
Flags: W
VStem: 244 64<265.39 355.866> 321 64<424.958 541> 398 64<26.4603 130.246>
CounterMasks: 1 e0
LayerCount: 2
Back
Fore
SplineSet
85 265 m 1
 105 319 l 1
 254 265 l 1
 248 280 244 296 244 313 c 0
 244 349 268 378 288 408 c 0
 301 426 321 454 321 466 c 2
 321 541 l 1
 222 441 l 1
 176 487 l 1
 353 663 l 1
 530 487 l 1
 484 441 l 1
 385 541 l 1
 385 466 l 2
 385 434 361 400 341 371 c 0
 328 352 308 336 308 313 c 0
 308 271 347 243 379 219 c 1
 621 131 l 1
 601 77 l 1
 453 131 l 1
 459 116 462 101 462 84 c 0
 462 7 397 -49 333 -94 c 1
 296 -42 l 1
 344 -8 398 27 398 84 c 0
 398 124 364 152 332 175 c 1
 85 265 l 1
EndSplineSet
EndChar

StartChar: uni219C0338
Encoding: 142 -1 142
Width: 930
Flags: W
HStem: 166 64<384.134 474.61> 243 64<199 315.042> 320 64<609.754 713.54>
CounterMasks: 1 e0
LayerCount: 2
Back
Fore
SplineSet
475 7 m 1
 421 27 l 1
 475 176 l 1
 460 170 444 166 427 166 c 0
 391 166 362 190 332 210 c 0
 314 223 286 243 274 243 c 2
 199 243 l 1
 299 144 l 1
 253 98 l 1
 77 275 l 1
 253 452 l 1
 299 406 l 1
 199 307 l 1
 274 307 l 2
 306 307 340 283 369 263 c 0
 388 250 404 230 427 230 c 0
 469 230 497 269 521 301 c 1
 609 543 l 1
 663 523 l 1
 609 375 l 1
 624 381 639 384 656 384 c 0
 733 384 789 319 834 255 c 1
 782 218 l 1
 748 266 713 320 656 320 c 0
 616 320 588 286 565 254 c 1
 475 7 l 1
EndSplineSet
EndChar

StartChar: sym065_uni0338.alt
Encoding: 143 -1 143
Width: 706
Flags: W
VStem: 244 64<419.754 523.54> 321 64<9 125.042> 398 64<194.134 284.61>
CounterMasks: 1 e0
LayerCount: 2
Back
Fore
SplineSet
621 285 m 1
 601 231 l 1
 452 285 l 1
 458 270 462 254 462 237 c 0
 462 201 438 172 418 142 c 0
 405 124 385 96 385 84 c 2
 385 9 l 1
 484 109 l 1
 530 63 l 1
 353 -113 l 1
 176 63 l 1
 222 109 l 1
 321 9 l 1
 321 84 l 2
 321 116 345 150 365 179 c 0
 378 198 398 214 398 237 c 0
 398 279 359 307 327 331 c 1
 85 419 l 1
 105 473 l 1
 253 419 l 1
 247 434 244 449 244 466 c 0
 244 543 309 599 373 644 c 1
 410 592 l 1
 362 558 308 523 308 466 c 0
 308 426 342 398 374 375 c 1
 621 285 l 1
EndSplineSet
EndChar

StartChar: uni21AD0338
Encoding: 144 -1 144
Width: 1080
Flags: W
HStem: 166 64<602.217 695.591> 243 64<199 316.351 763.649 881> 320 64<383.171 477.783>
CounterMasks: 1 e0
LayerCount: 2
Back
Fore
SplineSet
607 543 m 1
 661 523 l 1
 573 283 l 1
 594 256 620 230 654 230 c 0
 665 230 693 250 712 263 c 0
 741 283 770 307 806 307 c 2
 881 307 l 1
 781 406 l 1
 827 452 l 1
 1003 275 l 1
 827 98 l 1
 781 144 l 1
 881 243 l 1
 806 243 l 2
 783 243 767 223 748 210 c 0
 719 190 685 166 654 166 c 0
 613 166 578 186 549 215 c 1
 473 7 l 1
 419 27 l 1
 507 267 l 1
 486 294 460 320 426 320 c 0
 403 320 387 300 368 287 c 0
 339 267 310 243 274 243 c 2
 199 243 l 1
 299 144 l 1
 253 98 l 1
 77 275 l 1
 253 452 l 1
 299 406 l 1
 199 307 l 1
 274 307 l 2
 297 307 313 327 332 340 c 0
 361 360 390 384 426 384 c 0
 467 384 502 364 531 335 c 1
 607 543 l 1
EndSplineSet
EndChar

StartChar: sym066_uni0338.alt
Encoding: 145 -1 145
Width: 706
Flags: W
VStem: 244 64<118.171 212.783> 321 64<-66 51.3505 498.649 616> 398 64<337.217 430.591>
CounterMasks: 1 e0
LayerCount: 2
Back
Fore
SplineSet
85 342 m 1
 105 396 l 1
 345 308 l 1
 372 329 398 355 398 389 c 0
 398 400 378 428 365 447 c 0
 345 476 321 505 321 541 c 2
 321 616 l 1
 222 516 l 1
 176 562 l 1
 353 738 l 1
 530 562 l 1
 484 516 l 1
 385 616 l 1
 385 541 l 2
 385 518 405 502 418 483 c 0
 438 454 462 420 462 389 c 0
 462 348 442 313 413 284 c 1
 621 208 l 1
 601 154 l 1
 361 242 l 1
 334 221 308 195 308 161 c 0
 308 138 328 122 341 103 c 0
 361 74 385 45 385 9 c 2
 385 -66 l 1
 484 34 l 1
 530 -12 l 1
 353 -188 l 1
 176 -12 l 1
 222 34 l 1
 321 -66 l 1
 321 9 l 2
 321 32 301 48 288 67 c 0
 268 96 244 125 244 161 c 0
 244 202 264 237 293 266 c 1
 85 342 l 1
EndSplineSet
EndChar

StartChar: uni21AD0338.alt
Encoding: 146 -1 146
Width: 1080
Flags: W
HStem: 166 64<383.171 471.924> 243 64<199 316.351 763.649 881> 320 64<608.076 695.591>
CounterMasks: 1 e0
LayerCount: 2
Back
Fore
SplineSet
607 543 m 1
 661 523 l 1
 607 375 l 1
 622 381 637 384 654 384 c 0
 685 384 719 360 748 340 c 0
 767 327 783 307 806 307 c 2
 881 307 l 1
 781 406 l 1
 827 452 l 1
 1003 275 l 1
 827 98 l 1
 781 144 l 1
 881 243 l 1
 806 243 l 2
 770 243 741 267 712 287 c 0
 693 300 665 320 654 320 c 0
 613 320 585 283 562 251 c 1
 473 7 l 1
 419 27 l 1
 473 175 l 1
 458 169 443 166 426 166 c 0
 390 166 361 190 332 210 c 0
 313 223 297 243 274 243 c 2
 199 243 l 1
 299 144 l 1
 253 98 l 1
 77 275 l 1
 253 452 l 1
 299 406 l 1
 199 307 l 1
 274 307 l 2
 310 307 339 283 368 263 c 0
 387 250 403 230 426 230 c 0
 467 230 495 267 518 299 c 1
 607 543 l 1
EndSplineSet
EndChar

StartChar: sym066_uni0338
Encoding: 147 -1 147
Width: 706
Flags: W
VStem: 244 64<343.076 430.591> 321 64<-66 51.3505 498.649 616> 398 64<118.171 206.924>
CounterMasks: 1 e0
LayerCount: 2
Back
Fore
SplineSet
85 342 m 1
 105 396 l 1
 253 342 l 1
 247 357 244 372 244 389 c 0
 244 420 268 454 288 483 c 0
 301 502 321 518 321 541 c 2
 321 616 l 1
 222 516 l 1
 176 562 l 1
 353 738 l 1
 530 562 l 1
 484 516 l 1
 385 616 l 1
 385 541 l 2
 385 505 361 476 341 447 c 0
 328 428 308 400 308 389 c 0
 308 348 345 320 377 297 c 1
 621 208 l 1
 601 154 l 1
 453 208 l 1
 459 193 462 178 462 161 c 0
 462 125 438 96 418 67 c 0
 405 48 385 32 385 9 c 2
 385 -66 l 1
 484 34 l 1
 530 -12 l 1
 353 -188 l 1
 176 -12 l 1
 222 34 l 1
 321 -66 l 1
 321 9 l 2
 321 45 345 74 365 103 c 0
 378 122 398 138 398 161 c 0
 398 202 361 230 329 253 c 1
 85 342 l 1
EndSplineSet
EndChar

StartChar: sym069_uni0338
Encoding: 148 -1 148
Width: 930
Flags: W
HStem: 309 63<509 555.572> 320 64<299.137 441> 535 20G<478.512 539>
LayerCount: 2
Back
Fore
SplineSet
414 384 m 0x60
 427 384 440 384 452 383 c 1
 482 555 l 1
 539 545 l 1
 509 372 l 1
 604 348 687 290 750 212 c 1
 761 341 l 1
 825 335 l 1
 803 86 l 1
 554 108 l 1
 560 172 l 1
 710 159 l 1
 655 231 583 286 498 309 c 1xa0
 448 26 l 1
 391 36 l 1
 441 319 l 1
 433 320 423 320 414 320 c 0
 308 320 210 267 148 180 c 1
 96 216 l 1
 169 320 287 384 414 384 c 0x60
EndSplineSet
EndChar

StartChar: sym068_uni0338
Encoding: 149 -1 149
Width: 706
Flags: W
VStem: 244 64<109.137 251> 256 63<319 365.572>
LayerCount: 2
Back
Fore
SplineSet
244 224 m 0x80
 244 237 244 250 245 262 c 1
 73 292 l 1
 83 349 l 1
 256 319 l 1
 280 414 338 497 416 560 c 1
 287 571 l 1
 293 635 l 1
 542 613 l 1
 520 364 l 1
 456 370 l 1
 469 520 l 1
 397 465 342 393 319 308 c 1x40
 602 258 l 1
 592 201 l 1
 309 251 l 1
 308 243 308 233 308 224 c 0
 308 118 361 20 448 -42 c 1
 412 -94 l 1
 308 -21 244 97 244 224 c 0x80
EndSplineSet
EndChar

StartChar: sym067_uni0338
Encoding: 150 -1 150
Width: 930
Flags: W
HStem: -5 21G<391 451.488> 166 64<489 630.863> 178 63<374.428 421>
LayerCount: 2
Back
Fore
SplineSet
516 166 m 0xc0
 503 166 490 166 478 167 c 1
 448 -5 l 1
 391 5 l 1
 421 178 l 1
 326 202 243 260 180 338 c 1
 169 209 l 1
 105 215 l 1
 127 464 l 1
 376 442 l 1
 370 378 l 1
 220 391 l 1
 275 319 347 264 432 241 c 1xa0
 482 524 l 1
 539 514 l 1
 489 231 l 1
 497 230 507 230 516 230 c 0
 622 230 720 283 782 370 c 1
 834 334 l 1
 761 230 643 166 516 166 c 0xc0
EndSplineSet
EndChar

StartChar: uni29380338
Encoding: 151 -1 151
Width: 706
Flags: W
VStem: 387 63<184.428 231> 398 64<299 440.863>
LayerCount: 2
Back
Fore
SplineSet
462 326 m 0x40
 462 313 462 300 461 288 c 1
 633 258 l 1
 623 201 l 1
 450 231 l 1
 426 136 368 53 290 -10 c 1
 419 -21 l 1
 413 -85 l 1
 164 -63 l 1
 186 186 l 1
 250 180 l 1
 237 30 l 1
 309 85 364 157 387 242 c 1x80
 104 292 l 1
 114 349 l 1
 397 299 l 1
 398 307 398 317 398 326 c 0
 398 432 345 530 258 592 c 1
 294 644 l 1
 398 571 462 453 462 326 c 0x40
EndSplineSet
EndChar

StartChar: sym06C_uni0338
Encoding: 152 -1 152
Width: 1082
Flags: W
HStem: 371 63<598.603 787>
VStem: 316 64<-16.4138 159.03>
LayerCount: 2
Back
Fore
SplineSet
316 43 m 0
 316 158 368 270 456 342 c 1
 356 485 l 1
 403 518 l 1
 503 375 l 1
 571 416 651 434 732 434 c 0
 750 434 769 434 787 432 c 1
 704 531 l 1
 753 572 l 1
 913 380 l 1
 722 220 l 1
 681 269 l 1
 797 366 l 1
 775 369 753 371 731 371 c 0
 664 371 597 356 540 323 c 1
 705 87 l 1
 658 54 l 1
 493 290 l 1
 421 230 380 137 380 43 c 0
 380 23 381 4 385 -16 c 1
 322 -28 l 1
 318 -4 316 19 316 43 c 0
EndSplineSet
EndChar

StartChar: sym06B_uni0338
Encoding: 153 -1 153
Width: 1082
Flags: W
HStem: 49 64<660.731 833.379>
VStem: 382 63<334.396 521>
LayerCount: 2
Back
Fore
SplineSet
774 49 m 0
 658 49 546 102 474 190 c 1
 331 89 l 1
 298 137 l 1
 441 237 l 1
 400 305 382 385 382 466 c 0
 382 484 383 503 385 521 c 1
 285 438 l 1
 244 487 l 1
 436 647 l 1
 596 456 l 1
 547 415 l 1
 450 531 l 1
 447 509 445 487 445 465 c 0
 445 398 461 331 494 274 c 1
 729 439 l 1
 763 392 l 1
 527 227 l 1
 588 155 681 113 776 113 c 0
 795 113 814 115 833 118 c 1
 844 55 l 1
 821 51 797 49 774 49 c 0
EndSplineSet
EndChar

StartChar: uni29360338
Encoding: 154 -1 154
Width: 1082
Flags: W
HStem: 116 63<295 483.523>
VStem: 703 64<391.691 566.414>
LayerCount: 2
Back
Fore
SplineSet
767 508 m 0
 767 392 714 281 626 209 c 1
 727 65 l 1
 679 32 l 1
 579 175 l 1
 511 134 431 116 350 116 c 0
 332 116 313 117 295 119 c 1
 378 19 l 1
 329 -22 l 1
 169 170 l 1
 360 330 l 1
 401 281 l 1
 285 184 l 1
 307 181 330 179 352 179 c 0
 419 179 485 194 542 227 c 1
 377 463 l 1
 425 496 l 1
 590 261 l 1
 662 322 703 413 703 508 c 0
 703 527 701 547 698 566 c 1
 761 578 l 1
 765 555 767 531 767 508 c 0
EndSplineSet
EndChar

StartChar: uni29350338
Encoding: 155 -1 155
Width: 1082
Flags: W
HStem: 437 64<249.621 423.915>
VStem: 637 64<30 217.157>
LayerCount: 2
Back
Fore
SplineSet
308 501 m 0
 423 501 536 448 608 360 c 1
 751 461 l 1
 784 413 l 1
 641 313 l 1
 682 245 701 165 701 84 c 0
 701 66 700 48 698 30 c 1
 797 112 l 1
 838 63 l 1
 647 -97 l 1
 486 94 l 1
 535 135 l 1
 633 18 l 1
 636 40 637 62 637 84 c 0
 637 152 622 218 589 276 c 1
 353 111 l 1
 320 158 l 1
 555 324 l 1
 494 396 402 437 307 437 c 0
 288 437 269 435 250 432 c 1
 239 495 l 1
 262 499 285 501 308 501 c 0
EndSplineSet
EndChar

StartChar: uni293B0338
Encoding: 156 -1 156
Width: 930
Flags: W
HStem: -8 21G<524.655 586> 166 64<299.137 445> 182 60<524 556.516>
LayerCount: 2
Back
Fore
SplineSet
467 169 m 1xa0
 450 167 433 166 414 166 c 0
 287 166 169 230 96 334 c 1
 148 370 l 1
 210 283 308 230 414 230 c 0xc0
 425 230 435 230 445 231 c 1
 344 508 l 1
 398 528 l 1
 502 242 l 1
 585 265 656 320 710 391 c 1
 560 378 l 1
 554 442 l 1
 803 464 l 1
 825 215 l 1
 761 209 l 1
 750 338 l 1
 690 264 612 208 524 182 c 1
 586 11 l 1
 532 -8 l 1
 467 169 l 1xa0
EndSplineSet
EndChar

StartChar: sym06A_uni0338
Encoding: 157 -1 157
Width: 706
Flags: W
VStem: 386 60<334 366.516> 398 64<109.137 255>
LayerCount: 2
Back
Fore
SplineSet
459 277 m 1x80
 461 260 462 243 462 224 c 0
 462 97 398 -21 294 -94 c 1
 258 -42 l 1
 345 20 398 118 398 224 c 0x40
 398 235 398 245 397 255 c 1
 120 154 l 1
 100 208 l 1
 386 312 l 1
 363 395 308 466 237 520 c 1
 250 370 l 1
 186 364 l 1
 164 613 l 1
 413 635 l 1
 419 571 l 1
 290 560 l 1
 364 500 420 422 446 334 c 1
 617 396 l 1
 636 342 l 1
 459 277 l 1x80
EndSplineSet
EndChar

StartChar: uni293A0338
Encoding: 158 -1 158
Width: 930
Flags: W
HStem: 308 60<373.484 406> 320 64<485 630.863>
LayerCount: 2
Back
Fore
SplineSet
463 381 m 1x80
 480 383 497 384 516 384 c 0
 643 384 761 320 834 216 c 1
 782 180 l 1
 720 267 622 320 516 320 c 0x40
 505 320 495 320 485 319 c 1
 586 42 l 1
 532 22 l 1
 428 308 l 1
 345 285 274 230 220 159 c 1
 370 172 l 1
 376 108 l 1
 127 86 l 1
 105 335 l 1
 169 341 l 1
 180 212 l 1
 240 286 318 342 406 368 c 1
 344 539 l 1
 398 558 l 1
 463 381 l 1x80
EndSplineSet
EndChar

StartChar: uni29390338
Encoding: 159 -1 159
Width: 706
Flags: W
VStem: 244 64<295 440.863> 260 60<183.484 216>
LayerCount: 2
Back
Fore
SplineSet
247 273 m 1x40
 245 290 244 307 244 326 c 0
 244 453 308 571 412 644 c 1
 448 592 l 1
 361 530 308 432 308 326 c 0x80
 308 315 308 305 309 295 c 1
 586 396 l 1
 606 342 l 1
 320 238 l 1
 343 155 398 84 469 30 c 1
 456 180 l 1
 520 186 l 1
 542 -63 l 1
 293 -85 l 1
 287 -21 l 1
 416 -10 l 1
 342 50 286 128 260 216 c 1
 89 154 l 1
 70 208 l 1
 247 273 l 1x40
EndSplineSet
EndChar

StartChar: uni29340338
Encoding: 160 -1 160
Width: 1082
Flags: W
HStem: 49 64<249.621 421.306>
VStem: 637 64<331.736 520>
LayerCount: 2
Back
Fore
SplineSet
291 354 m 1
 315 406 l 1
 591 277 l 1
 623 334 637 399 637 466 c 0
 637 488 636 510 633 532 c 1
 535 415 l 1
 486 456 l 1
 647 647 l 1
 838 487 l 1
 797 438 l 1
 698 520 l 1
 700 502 701 484 701 466 c 0
 701 390 685 316 649 251 c 1
 813 174 l 1
 789 122 l 1
 617 202 l 1
 610 192 602 183 594 174 c 0
 520 92 416 49 308 49 c 0
 285 49 262 51 239 55 c 1
 250 118 l 1
 269 115 288 113 307 113 c 0
 403 113 497 157 558 230 c 1
 291 354 l 1
EndSplineSet
EndChar

StartChar: sym06D_uni0338
Encoding: 161 -1 161
Width: 1082
Flags: W
HStem: 371 63<295 484.616> 527 20G<632.667 685.333>
VStem: 703 64<-16.4138 155.626>
LayerCount: 2
Back
Fore
SplineSet
462 25 m 1
 410 49 l 1
 539 325 l 1
 483 357 418 371 352 371 c 0
 330 371 307 369 285 366 c 1
 401 269 l 1
 360 220 l 1
 169 380 l 1
 329 572 l 1
 378 531 l 1
 295 431 l 1
 313 433 332 434 350 434 c 0
 426 434 500 417 565 382 c 1
 642 547 l 1
 694 523 l 1
 614 351 l 1
 624 344 633 336 642 328 c 0
 724 254 767 150 767 42 c 0
 767 19 765 -5 761 -28 c 1
 698 -16 l 1
 701 3 703 23 703 42 c 0
 703 138 660 231 586 292 c 1
 462 25 l 1
EndSplineSet
EndChar

StartChar: sym06E_uni0338
Encoding: 162 -1 162
Width: 1082
Flags: W
HStem: 437 64<660.979 833.379>
VStem: 382 63<29 216.451>
LayerCount: 2
Back
Fore
SplineSet
791 196 m 1
 767 144 l 1
 492 272 l 1
 460 216 445 151 445 85 c 0
 445 63 447 41 450 19 c 1
 547 135 l 1
 596 94 l 1
 436 -97 l 1
 244 63 l 1
 285 112 l 1
 385 29 l 1
 383 47 382 66 382 84 c 0
 382 160 399 234 434 299 c 1
 269 376 l 1
 294 428 l 1
 465 348 l 1
 472 358 480 367 488 376 c 0
 562 458 666 501 774 501 c 0
 797 501 821 499 844 495 c 1
 833 432 l 1
 814 435 795 437 776 437 c 0
 679 437 586 393 525 320 c 1
 791 196 l 1
EndSplineSet
EndChar

StartChar: uni29370338
Encoding: 163 -1 163
Width: 1082
Flags: W
HStem: 116 63<597.5 787>
VStem: 316 64<390.028 566.414>
LayerCount: 2
Back
Fore
SplineSet
468 199 m 1
 375 269 316 386 316 507 c 0
 316 531 318 554 322 578 c 1
 385 566 l 1
 381 546 380 527 380 507 c 0
 380 411 423 318 496 258 c 1
 620 525 l 1
 672 501 l 1
 543 225 l 1
 599 193 665 179 731 179 c 0
 753 179 775 181 797 184 c 1
 681 281 l 1
 722 330 l 1
 913 170 l 1
 753 -22 l 1
 704 19 l 1
 787 118 l 1
 769 116 750 116 732 116 c 0
 656 116 582 133 517 168 c 1
 440 3 l 1
 388 27 l 1
 468 199 l 1
EndSplineSet
EndChar

StartChar: sym06F_uni0338
Encoding: 164 -1 164
Width: 1080
Flags: W
HStem: 319 63<415.199 512 581 664.559>
LayerCount: 2
Back
Fore
SplineSet
557 578 m 1
 614 568 l 1
 581 382 l 1
 703 370 813 307 892 212 c 1
 903 341 l 1
 967 335 l 1
 945 86 l 1
 696 108 l 1
 702 172 l 1
 852 159 l 1
 783 248 682 310 570 319 c 1
 523 49 l 1
 466 59 l 1
 512 319 l 1
 399 310 298 249 228 159 c 1
 378 172 l 1
 384 108 l 1
 135 86 l 1
 113 335 l 1
 177 341 l 1
 188 212 l 1
 272 313 391 379 523 384 c 1
 557 578 l 1
EndSplineSet
EndChar

StartChar: sym070_uni0338
Encoding: 165 -1 165
Width: 706
Flags: W
VStem: 246 63<150.441 234 303 399.801>
LayerCount: 2
Back
Fore
SplineSet
60 201 m 1
 50 258 l 1
 244 292 l 1
 249 424 315 543 416 627 c 1
 287 638 l 1
 293 702 l 1
 542 680 l 1
 520 431 l 1
 456 437 l 1
 469 587 l 1
 379 517 318 416 309 303 c 1
 569 349 l 1
 579 292 l 1
 309 245 l 1
 318 133 380 32 469 -37 c 1
 456 113 l 1
 520 119 l 1
 542 -130 l 1
 293 -152 l 1
 287 -88 l 1
 416 -77 l 1
 321 2 258 112 246 234 c 1
 60 201 l 1
EndSplineSet
EndChar

StartChar: sym071_uni0338
Encoding: 166 -1 166
Width: 1080
Flags: W
HStem: 168 63<415.441 499 568 664.801>
LayerCount: 2
Back
Fore
SplineSet
523 -28 m 1
 466 -18 l 1
 499 168 l 1
 377 180 267 243 188 338 c 1
 177 209 l 1
 113 215 l 1
 135 464 l 1
 384 442 l 1
 378 378 l 1
 228 391 l 1
 297 302 398 240 510 231 c 1
 557 501 l 1
 614 491 l 1
 568 231 l 1
 681 240 782 301 852 391 c 1
 702 378 l 1
 696 442 l 1
 945 464 l 1
 967 215 l 1
 903 209 l 1
 892 338 l 1
 808 237 689 171 557 166 c 1
 523 -28 l 1
EndSplineSet
EndChar

StartChar: sym072_uni0338
Encoding: 167 -1 167
Width: 706
Flags: W
VStem: 397 65<150.199 247 316 399.559>
LayerCount: 2
Back
Fore
SplineSet
646 349 m 1
 656 292 l 1
 462 258 l 1
 457 126 391 7 290 -77 c 1
 419 -88 l 1
 413 -152 l 1
 164 -130 l 1
 186 119 l 1
 250 113 l 1
 237 -37 l 1
 327 33 388 134 397 247 c 1
 137 201 l 1
 127 258 l 1
 397 305 l 1
 388 417 326 518 237 587 c 1
 250 437 l 1
 186 431 l 1
 164 680 l 1
 413 702 l 1
 419 638 l 1
 290 627 l 1
 385 548 448 438 460 316 c 1
 646 349 l 1
EndSplineSet
EndChar

StartChar: sym074_uni0338
Encoding: 168 -1 168
Width: 1188
Flags: W
HStem: 417 64<708.819 888>
VStem: 388 64<-19 160.813>
LayerCount: 2
Back
Fore
SplineSet
392 501 m 1
 439 534 l 1
 548 380 l 1
 631 448 734 481 841 481 c 0
 857 481 872 480 888 479 c 1
 805 578 l 1
 854 620 l 1
 1014 428 l 1
 823 268 l 1
 782 317 l 1
 897 413 l 1
 878 415 860 417 841 417 c 0
 748 417 656 387 584 327 c 1
 742 103 l 1
 694 70 l 1
 543 286 l 1
 482 214 452 123 452 29 c 0
 452 10 454 -9 456 -28 c 1
 553 87 l 1
 602 46 l 1
 441 -145 l 1
 250 16 l 1
 291 65 l 1
 390 -19 l 1
 389 -3 388 12 388 28 c 0
 388 143 427 255 505 340 c 1
 392 501 l 1
EndSplineSet
EndChar

StartChar: sym073_uni0338
Encoding: 169 -1 169
Width: 1188
Flags: W
HStem: 69 64<708.819 888>
VStem: 388 64<389.187 569>
LayerCount: 2
Back
Fore
SplineSet
439 16 m 1
 392 49 l 1
 505 210 l 1
 427 295 388 407 388 522 c 0
 388 538 389 553 390 569 c 1
 291 485 l 1
 250 534 l 1
 441 695 l 1
 602 504 l 1
 553 463 l 1
 456 578 l 1
 454 559 452 540 452 521 c 0
 452 427 482 336 543 264 c 1
 694 480 l 1
 742 447 l 1
 584 223 l 1
 656 163 748 133 841 133 c 0
 860 133 878 135 897 137 c 1
 782 233 l 1
 823 282 l 1
 1014 122 l 1
 854 -70 l 1
 805 -28 l 1
 888 71 l 1
 872 70 857 69 841 69 c 0
 734 69 631 102 548 170 c 1
 439 16 l 1
EndSplineSet
EndChar

StartChar: sym076_uni0338
Encoding: 170 -1 170
Width: 1188
Flags: W
HStem: 69 64<300 479.635>
VStem: 736 64<389.074 569>
LayerCount: 2
Back
Fore
SplineSet
796 49 m 1
 749 16 l 1
 641 171 l 1
 558 103 454 69 347 69 c 0
 331 69 316 70 300 71 c 1
 384 -28 l 1
 335 -70 l 1
 174 122 l 1
 366 282 l 1
 407 233 l 1
 291 137 l 1
 310 135 329 133 348 133 c 0
 441 133 532 162 604 223 c 1
 447 447 l 1
 494 480 l 1
 645 264 l 1
 706 336 736 427 736 521 c 0
 736 540 734 559 732 578 c 1
 636 463 l 1
 587 504 l 1
 747 695 l 1
 939 534 l 1
 898 485 l 1
 798 569 l 1
 799 553 800 537 800 521 c 0
 800 407 762 295 683 210 c 1
 796 49 l 1
EndSplineSet
EndChar

StartChar: sym075_uni0338
Encoding: 171 -1 171
Width: 1188
Flags: W
HStem: 417 64<300 479.635>
VStem: 736 64<-19 160.926>
LayerCount: 2
Back
Fore
SplineSet
749 534 m 1
 796 501 l 1
 683 340 l 1
 762 255 800 143 800 29 c 0
 800 13 799 -3 798 -19 c 1
 898 65 l 1
 939 16 l 1
 747 -145 l 1
 587 46 l 1
 636 87 l 1
 732 -28 l 1
 734 -9 736 10 736 29 c 0
 736 123 706 214 645 286 c 1
 494 70 l 1
 447 103 l 1
 604 327 l 1
 532 388 441 417 348 417 c 0
 329 417 310 415 291 413 c 1
 407 317 l 1
 366 268 l 1
 174 428 l 1
 335 620 l 1
 384 578 l 1
 300 479 l 1
 316 480 331 481 347 481 c 0
 454 481 558 447 641 379 c 1
 749 534 l 1
EndSplineSet
EndChar

StartChar: sym077_uni0338
Encoding: 172 -1 172
Width: 930
Flags: W
HStem: 243 64<154 423 507 840>
VStem: 90 64<89 243 307 461>
LayerCount: 2
Back
Fore
SplineSet
532 543 m 1
 586 523 l 1
 507 307 l 1
 840 307 l 1
 840 243 l 1
 484 243 l 1
 398 7 l 1
 344 27 l 1
 423 243 l 1
 154 243 l 1
 154 89 l 1
 90 89 l 1
 90 461 l 1
 154 461 l 1
 154 307 l 1
 446 307 l 1
 532 543 l 1
EndSplineSet
EndChar

StartChar: sym078_uni0338
Encoding: 173 -1 173
Width: 930
Flags: W
HStem: 243 64<90 423 507 776>
VStem: 776 64<89 243 307 461>
LayerCount: 2
Back
Fore
SplineSet
398 7 m 1
 344 27 l 1
 423 243 l 1
 90 243 l 1
 90 307 l 1
 446 307 l 1
 532 543 l 1
 586 523 l 1
 507 307 l 1
 776 307 l 1
 776 461 l 1
 840 461 l 1
 840 89 l 1
 776 89 l 1
 776 243 l 1
 484 243 l 1
 398 7 l 1
EndSplineSet
EndChar

StartChar: sym079_uni0338
Encoding: 174 -1 174
Width: 1260
Flags: W
HStem: -194 64<588 761.391> -181 63<470.24 520> 668 63<740 789.76> 680 64<498.609 672>
VStem: 161 64<143.398 406.602> 1029 63<354.778 421.476>
LayerCount: 2
Back
Fore
SplineSet
531 -118 m 1x5c
 672 678 l 1
 658 679 644 680 630 680 c 0
 523 680 419 638 343 562 c 0
 267 486 225 383 225 275 c 0
 225 167 267 64 343 -12 c 0
 395 -64 460 -100 531 -118 c 1x5c
697 820 m 1
 754 810 l 1
 740 731 l 1
 823 711 900 669 962 607 c 0
 1030 539 1075 451 1092 356 c 1
 1029 345 l 1
 1015 427 976 503 917 562 c 0
 865 614 800 650 729 668 c 1
 588 -128 l 1
 602 -129 616 -130 630 -130 c 0
 737 -130 841 -88 917 -12 c 0
 962 33 996 88 1015 148 c 1
 867 94 l 1
 845 155 l 1
 1080 240 l 1
 1165 5 l 1
 1105 -17 l 1
 1064 97 l 1
 1041 40 1006 -13 962 -57 c 0
 874 -145 754 -194 630 -194 c 0xac
 612 -194 595 -193 577 -191 c 1
 563 -270 l 1
 506 -260 l 1
 520 -181 l 1
 437 -161 360 -119 298 -57 c 0
 210 31 161 151 161 275 c 0
 161 399 210 519 298 607 c 0
 386 695 506 744 630 744 c 0
 648 744 665 743 683 741 c 1
 697 820 l 1
EndSplineSet
EndChar

StartChar: uni21BA0338
Encoding: 175 -1 175
Width: 1260
Flags: W
HStem: -194 64<499.929 761.602> 674 63<483.524 550.222>
VStem: 161 64<143.772 406.391> 1035 64<143.398 406.228>
LayerCount: 2
Back
Fore
SplineSet
338 -7 m 1
 414 -85 521 -130 630 -130 c 0
 738 -130 841 -88 917 -12 c 0
 993 64 1035 167 1035 275 c 0
 1035 361 1009 444 959 513 c 1
 338 -7 l 1
808 709 m 1
 869 684 926 646 971 598 c 1
 1067 679 l 1
 1104 635 l 1
 1007 554 l 1
 1066 474 1099 376 1099 275 c 0
 1099 151 1050 31 962 -57 c 0
 874 -145 754 -194 630 -194 c 0
 501 -194 376 -140 289 -48 c 1
 193 -129 l 1
 156 -85 l 1
 253 -4 l 1
 194 76 161 174 161 275 c 0
 161 399 210 519 298 607 c 0
 366 675 454 720 549 737 c 1
 560 674 l 1
 478 660 402 620 343 562 c 0
 267 486 225 382 225 275 c 0
 225 189 251 106 301 37 c 1
 922 557 l 1
 877 604 819 640 757 660 c 1
 811 512 l 1
 750 490 l 1
 665 725 l 1
 900 810 l 1
 922 750 l 1
 808 709 l 1
EndSplineSet
EndChar

StartChar: uni27F20338
Encoding: 176 -1 176
Width: 1260
Flags: W
HStem: -194 64<588 761.602> -181 63<470.24 520> 668 63<740 793.513> 680 64<498.609 672>
VStem: 168 63<128.524 195.222> 1035 64<143.398 406.602>
LayerCount: 2
Back
Fore
SplineSet
729 668 m 1xac
 588 -128 l 1
 602 -129 616 -130 630 -130 c 0
 738 -130 841 -88 917 -12 c 0
 993 64 1035 167 1035 275 c 0
 1035 383 993 486 917 562 c 0
 865 614 800 651 729 668 c 1xac
697 820 m 1
 754 810 l 1
 740 731 l 1
 823 711 900 669 962 607 c 0
 1050 519 1099 399 1099 275 c 0
 1099 151 1050 31 962 -57 c 0
 874 -145 754 -194 630 -194 c 0xac
 612 -194 595 -193 577 -191 c 1
 563 -270 l 1
 506 -260 l 1
 520 -181 l 1
 437 -161 360 -119 298 -57 c 0
 230 11 185 99 168 194 c 1
 231 205 l 1
 245 123 285 47 343 -12 c 0
 395 -64 460 -100 531 -118 c 1
 672 678 l 1
 658 679 644 680 630 680 c 0
 523 680 419 638 343 562 c 0
 299 517 265 462 245 402 c 1
 393 456 l 1
 415 395 l 1
 180 310 l 1
 95 545 l 1
 155 567 l 1
 196 453 l 1
 219 510 254 563 298 607 c 0
 386 695 506 744 630 744 c 0x5c
 648 744 665 743 683 741 c 1
 697 820 l 1
EndSplineSet
EndChar

StartChar: sym07C_uni0338
Encoding: 177 -1 177
Width: 1260
Flags: W
HStem: -187 63<710.667 776.925> 680 64<498.609 760.286>
VStem: 161 64<143.772 406.602> 1035 64<143.609 406.228>
LayerCount: 2
Back
Fore
SplineSet
922 557 m 1
 846 635 740 680 630 680 c 0
 523 680 419 638 343 562 c 0
 267 486 225 383 225 275 c 0
 225 189 251 106 301 37 c 1
 922 557 l 1
630 744 m 0
 759 744 884 690 971 598 c 1
 1067 679 l 1
 1104 635 l 1
 1007 554 l 1
 1066 474 1099 376 1099 275 c 0
 1099 151 1050 31 962 -57 c 0
 894 -125 806 -170 712 -187 c 1
 700 -124 l 1
 782 -110 858 -70 917 -12 c 0
 993 64 1035 168 1035 275 c 0
 1035 361 1009 444 959 513 c 1
 338 -7 l 1
 383 -54 441 -90 503 -110 c 1
 450 38 l 1
 510 60 l 1
 595 -175 l 1
 360 -260 l 1
 338 -200 l 1
 452 -159 l 1
 391 -134 334 -96 289 -48 c 1
 193 -129 l 1
 156 -85 l 1
 253 -4 l 1
 194 76 161 174 161 275 c 0
 161 399 210 519 298 607 c 0
 386 695 506 744 630 744 c 0
EndSplineSet
EndChar

StartChar: uni27F30338
Encoding: 178 -1 178
Width: 1260
Flags: W
HStem: -194 64<588 761.391> -181 63<470.24 520> 668 63<740 789.76> 680 64<498.609 672>
VStem: 161 64<143.398 406.602> 1029 63<128.524 195.222>
LayerCount: 2
Back
Fore
SplineSet
531 -118 m 1x5c
 672 678 l 1
 658 679 644 680 630 680 c 0
 523 680 419 638 343 562 c 0
 267 486 225 383 225 275 c 0
 225 167 267 64 343 -12 c 0
 395 -64 460 -100 531 -118 c 1x5c
697 820 m 1
 754 810 l 1
 740 731 l 1
 823 711 900 669 962 607 c 0
 1006 563 1041 510 1064 453 c 1
 1105 567 l 1
 1165 545 l 1
 1080 310 l 1
 845 395 l 1
 867 456 l 1
 1015 402 l 1
 996 462 962 517 917 562 c 0
 865 614 800 650 729 668 c 1
 588 -128 l 1
 602 -129 616 -130 630 -130 c 0
 737 -130 841 -88 917 -12 c 0
 976 47 1015 123 1029 205 c 1
 1092 194 l 1
 1075 99 1030 11 962 -57 c 0
 874 -145 754 -194 630 -194 c 0xac
 612 -194 595 -193 577 -191 c 1
 563 -270 l 1
 506 -260 l 1
 520 -181 l 1
 437 -161 360 -119 298 -57 c 0
 210 31 161 151 161 275 c 0
 161 399 210 519 298 607 c 0
 386 695 506 744 630 744 c 0
 648 744 665 743 683 741 c 1
 697 820 l 1
EndSplineSet
EndChar

StartChar: uni21BB0338
Encoding: 179 -1 179
Width: 1260
Flags: W
HStem: -194 64<499.929 761.602> 674 63<710.667 775.385>
VStem: 161 64<143.772 406.391> 1035 64<143.398 406.228>
LayerCount: 2
Back
Fore
SplineSet
338 -7 m 1
 414 -85 521 -130 630 -130 c 0
 738 -130 841 -88 917 -12 c 0
 993 64 1035 167 1035 275 c 0
 1035 361 1009 444 959 513 c 1
 338 -7 l 1
712 737 m 1
 810 719 903 670 971 598 c 1
 1067 679 l 1
 1104 635 l 1
 1007 554 l 1
 1066 474 1099 376 1099 275 c 0
 1099 151 1050 31 962 -57 c 0
 874 -145 754 -194 630 -194 c 0
 501 -194 376 -140 289 -48 c 1
 193 -129 l 1
 156 -85 l 1
 253 -4 l 1
 194 76 161 174 161 275 c 0
 161 399 210 519 298 607 c 0
 342 651 395 686 452 709 c 1
 338 750 l 1
 360 810 l 1
 595 725 l 1
 510 490 l 1
 450 512 l 1
 503 660 l 1
 443 640 388 606 343 562 c 0
 267 486 225 382 225 275 c 0
 225 189 251 106 301 37 c 1
 922 557 l 1
 864 617 784 660 700 674 c 1
 712 737 l 1
EndSplineSet
EndChar

StartChar: sym07A_uni0338
Encoding: 180 -1 180
Width: 1260
Flags: W
HStem: -194 64<588 761.602> -181 63<470.24 520> 668 63<740 793.513> 680 64<498.609 672>
VStem: 168 63<354.778 421.476> 1035 64<143.398 406.602>
LayerCount: 2
Back
Fore
SplineSet
729 668 m 1xac
 588 -128 l 1
 602 -129 616 -130 630 -130 c 0
 738 -130 841 -88 917 -12 c 0
 993 64 1035 167 1035 275 c 0
 1035 383 993 486 917 562 c 0
 865 614 800 651 729 668 c 1xac
697 820 m 1
 754 810 l 1
 740 731 l 1
 823 711 900 669 962 607 c 0
 1050 519 1099 399 1099 275 c 0
 1099 151 1050 31 962 -57 c 0
 874 -145 754 -194 630 -194 c 0xac
 612 -194 595 -193 577 -191 c 1
 563 -270 l 1
 506 -260 l 1
 520 -181 l 1
 437 -161 360 -119 298 -57 c 0
 254 -13 219 40 196 97 c 1
 155 -17 l 1
 95 5 l 1
 180 240 l 1
 415 155 l 1
 393 94 l 1
 245 148 l 1
 265 88 299 33 343 -12 c 0
 395 -64 460 -100 531 -118 c 1
 672 678 l 1
 658 679 644 680 630 680 c 0
 523 680 419 638 343 562 c 0
 285 503 245 427 231 345 c 1
 168 356 l 1
 185 451 230 539 298 607 c 0
 386 695 506 744 630 744 c 0x5c
 648 744 665 743 683 741 c 1
 697 820 l 1
EndSplineSet
EndChar

StartChar: sym07B_uni0338
Encoding: 181 -1 181
Width: 1260
Flags: W
HStem: 680 64<498.609 760.286>
VStem: 161 64<143.772 406.602> 1035 64<143.609 406.228>
LayerCount: 2
Back
Fore
SplineSet
922 557 m 1
 846 635 740 680 630 680 c 0
 523 680 419 638 343 562 c 0
 267 486 225 383 225 275 c 0
 225 189 251 106 301 37 c 1
 922 557 l 1
630 744 m 0
 759 744 884 690 971 598 c 1
 1067 679 l 1
 1104 635 l 1
 1007 554 l 1
 1066 474 1099 376 1099 275 c 0
 1099 151 1050 31 962 -57 c 0
 918 -101 865 -136 808 -159 c 1
 922 -200 l 1
 900 -260 l 1
 665 -175 l 1
 750 60 l 1
 811 38 l 1
 757 -110 l 1
 817 -90 872 -56 917 -12 c 0
 993 64 1035 168 1035 275 c 0
 1035 361 1009 444 959 513 c 1
 338 -7 l 1
 396 -67 476 -110 560 -124 c 1
 549 -187 l 1
 450 -169 357 -120 289 -48 c 1
 193 -129 l 1
 156 -85 l 1
 253 -4 l 1
 194 76 161 174 161 275 c 0
 161 399 210 519 298 607 c 0
 386 695 506 744 630 744 c 0
EndSplineSet
EndChar

StartChar: uni21DB0338
Encoding: 182 -1 182
Width: 1080
Flags: W
HStem: 121 51<90 299 379 758> 249 52<90 346 426 887> 378 51<90 393 473 758>
CounterMasks: 1 e0
LayerCount: 2
Back
Fore
SplineSet
887 249 m 1
 407 249 l 1
 379 172 l 1
 810 172 l 1
 887 249 l 1
810 378 m 1
 454 378 l 1
 426 301 l 1
 887 301 l 1
 810 378 l 1
487 635 m 1
 541 616 l 1
 473 429 l 1
 758 429 l 1
 704 483 l 1
 750 529 l 1
 1003 275 l 1
 750 21 l 1
 704 67 l 1
 758 121 l 1
 361 121 l 1
 286 -85 l 1
 231 -66 l 1
 299 121 l 1
 90 121 l 1
 90 172 l 1
 318 172 l 1
 346 249 l 1
 90 249 l 1
 90 301 l 1
 365 301 l 1
 393 378 l 1
 90 378 l 1
 90 429 l 1
 412 429 l 1
 487 635 l 1
EndSplineSet
EndChar

StartChar: uni290A0338
Encoding: 183 -1 183
Width: 891
Flags: W
VStem: 291 52<-175 34 115 493> 420 51<-175 81 161 622> 548 51<-175 127 208 494>
LayerCount: 2
Back
Fore
SplineSet
471 622 m 1
 471 161 l 1
 548 189 l 1
 548 545 l 1
 471 622 l 1
343 546 m 1
 343 115 l 1
 420 143 l 1
 420 623 l 1
 343 546 l 1
105 -34 m 1
 85 21 l 1
 291 96 l 1
 291 493 l 1
 237 439 l 1
 192 485 l 1
 445 738 l 1
 699 485 l 1
 654 439 l 1
 599 494 l 1
 599 208 l 1
 786 276 l 1
 806 221 l 1
 599 146 l 1
 599 -175 l 1
 548 -175 l 1
 548 127 l 1
 471 99 l 1
 471 -175 l 1
 420 -175 l 1
 420 81 l 1
 343 53 l 1
 343 -175 l 1
 291 -175 l 1
 291 34 l 1
 105 -34 l 1
EndSplineSet
EndChar

StartChar: uni21DA0338
Encoding: 184 -1 184
Width: 1080
Flags: W
HStem: 121 51<322 607 687 990> 249 52<193 654 734 990> 378 51<322 701 781 990>
CounterMasks: 1 e0
LayerCount: 2
Back
Fore
SplineSet
193 301 m 1
 673 301 l 1
 701 378 l 1
 270 378 l 1
 193 301 l 1
270 172 m 1
 626 172 l 1
 654 249 l 1
 193 249 l 1
 270 172 l 1
594 -85 m 1
 539 -66 l 1
 607 121 l 1
 322 121 l 1
 376 67 l 1
 330 21 l 1
 77 275 l 1
 330 529 l 1
 376 483 l 1
 322 429 l 1
 719 429 l 1
 794 635 l 1
 849 616 l 1
 781 429 l 1
 990 429 l 1
 990 378 l 1
 762 378 l 1
 734 301 l 1
 990 301 l 1
 990 249 l 1
 715 249 l 1
 687 172 l 1
 990 172 l 1
 990 121 l 1
 669 121 l 1
 594 -85 l 1
EndSplineSet
EndChar

StartChar: uni290B0338
Encoding: 185 -1 185
Width: 891
Flags: W
VStem: 291 52<57 342 423 725> 420 51<-72 389 469 725> 548 51<56 435 516 725>
LayerCount: 2
Back
Fore
SplineSet
420 -73 m 1
 420 389 l 1
 343 361 l 1
 343 4 l 1
 420 -73 l 1
548 5 m 1
 548 435 l 1
 471 407 l 1
 471 -72 l 1
 548 5 l 1
786 584 m 1
 806 529 l 1
 599 454 l 1
 599 56 l 1
 654 111 l 1
 699 65 l 1
 445 -188 l 1
 192 65 l 1
 237 111 l 1
 291 57 l 1
 291 342 l 1
 105 274 l 1
 85 329 l 1
 291 404 l 1
 291 725 l 1
 343 725 l 1
 343 423 l 1
 420 451 l 1
 420 725 l 1
 471 725 l 1
 471 469 l 1
 548 497 l 1
 548 725 l 1
 599 725 l 1
 599 516 l 1
 786 584 l 1
EndSplineSet
EndChar

StartChar: uni27F60338
Encoding: 186 -1 186
Width: 1680
Flags: W
HStem: 243 64<90 721 805 1481>
LayerCount: 2
Back
Fore
SplineSet
830 543 m 1
 884 523 l 1
 805 307 l 1
 1481 307 l 1
 1381 406 l 1
 1427 452 l 1
 1603 275 l 1
 1427 98 l 1
 1381 144 l 1
 1481 243 l 1
 782 243 l 1
 696 7 l 1
 642 27 l 1
 721 243 l 1
 90 243 l 1
 90 307 l 1
 744 307 l 1
 830 543 l 1
EndSplineSet
EndChar

StartChar: uni27F50338
Encoding: 187 -1 187
Width: 1680
Flags: W
HStem: 243 64<199 875 959 1590>
LayerCount: 2
Back
Fore
SplineSet
850 7 m 1
 796 27 l 1
 875 243 l 1
 199 243 l 1
 299 144 l 1
 253 98 l 1
 77 275 l 1
 253 452 l 1
 299 406 l 1
 199 307 l 1
 898 307 l 1
 984 543 l 1
 1038 523 l 1
 959 307 l 1
 1590 307 l 1
 1590 243 l 1
 936 243 l 1
 850 7 l 1
EndSplineSet
EndChar

StartChar: uni27F90338
Encoding: 188 -1 188
Width: 1680
Flags: W
HStem: 147 64<90 609 693 1385> 339 64<90 679 763 1385>
LayerCount: 2
Back
Fore
SplineSet
1449 339 m 1
 740 339 l 1
 693 211 l 1
 1449 211 l 1
 1513 275 l 1
 1449 339 l 1
775 605 m 1
 829 585 l 1
 763 403 l 1
 1385 403 l 1
 1335 453 l 1
 1380 498 l 1
 1603 275 l 1
 1380 52 l 1
 1335 97 l 1
 1385 147 l 1
 670 147 l 1
 597 -55 l 1
 543 -35 l 1
 609 147 l 1
 90 147 l 1
 90 211 l 1
 632 211 l 1
 679 339 l 1
 90 339 l 1
 90 403 l 1
 702 403 l 1
 775 605 l 1
EndSplineSet
EndChar

StartChar: uni27F80338
Encoding: 189 -1 189
Width: 1680
Flags: W
HStem: 147 64<295 917 1001 1590> 339 64<295 987 1071 1590>
LayerCount: 2
Back
Fore
SplineSet
231 211 m 1
 940 211 l 1
 987 339 l 1
 231 339 l 1
 167 275 l 1
 231 211 l 1
905 -55 m 1
 851 -35 l 1
 917 147 l 1
 295 147 l 1
 345 97 l 1
 300 52 l 1
 77 275 l 1
 300 498 l 1
 345 453 l 1
 295 403 l 1
 1010 403 l 1
 1083 605 l 1
 1137 585 l 1
 1071 403 l 1
 1590 403 l 1
 1590 339 l 1
 1048 339 l 1
 1001 211 l 1
 1590 211 l 1
 1590 147 l 1
 978 147 l 1
 905 -55 l 1
EndSplineSet
EndChar

StartChar: uni27F70338
Encoding: 190 -1 190
Width: 1680
Flags: W
HStem: 243 64<199 798 882 1481>
LayerCount: 2
Back
Fore
SplineSet
907 543 m 1
 961 523 l 1
 882 307 l 1
 1481 307 l 1
 1381 406 l 1
 1427 452 l 1
 1603 275 l 1
 1427 98 l 1
 1381 144 l 1
 1481 243 l 1
 859 243 l 1
 773 7 l 1
 719 27 l 1
 798 243 l 1
 199 243 l 1
 299 144 l 1
 253 98 l 1
 77 275 l 1
 253 452 l 1
 299 406 l 1
 199 307 l 1
 821 307 l 1
 907 543 l 1
EndSplineSet
EndChar

StartChar: uni27FA0338
Encoding: 191 -1 191
Width: 1680
Flags: W
HStem: 147 64<295 763 847 1385> 339 64<295 833 917 1385>
LayerCount: 2
Back
Fore
SplineSet
231 339 m 1
 167 275 l 1
 231 211 l 1
 786 211 l 1
 833 339 l 1
 231 339 l 1
1449 339 m 1
 894 339 l 1
 847 211 l 1
 1449 211 l 1
 1513 275 l 1
 1449 339 l 1
929 605 m 1
 983 585 l 1
 917 403 l 1
 1385 403 l 1
 1335 453 l 1
 1380 498 l 1
 1603 275 l 1
 1380 52 l 1
 1335 97 l 1
 1385 147 l 1
 824 147 l 1
 751 -55 l 1
 697 -35 l 1
 763 147 l 1
 295 147 l 1
 345 97 l 1
 300 52 l 1
 77 275 l 1
 300 498 l 1
 345 453 l 1
 295 403 l 1
 856 403 l 1
 929 605 l 1
EndSplineSet
EndChar

StartChar: uni27FC0338
Encoding: 192 -1 192
Width: 1680
Flags: W
HStem: 243 64<154 721 805 1481>
VStem: 90 64<89 243 307 461>
LayerCount: 2
Back
Fore
SplineSet
830 543 m 1
 884 523 l 1
 805 307 l 1
 1481 307 l 1
 1381 406 l 1
 1427 452 l 1
 1603 275 l 1
 1427 98 l 1
 1381 144 l 1
 1481 243 l 1
 782 243 l 1
 696 7 l 1
 642 27 l 1
 721 243 l 1
 154 243 l 1
 154 89 l 1
 90 89 l 1
 90 461 l 1
 154 461 l 1
 154 307 l 1
 744 307 l 1
 830 543 l 1
EndSplineSet
EndChar

StartChar: uni27FB0338
Encoding: 193 -1 193
Width: 1680
Flags: W
HStem: 243 64<199 875 959 1526>
VStem: 1526 64<89 243 307 461>
LayerCount: 2
Back
Fore
SplineSet
850 7 m 1
 796 27 l 1
 875 243 l 1
 199 243 l 1
 299 144 l 1
 253 98 l 1
 77 275 l 1
 253 452 l 1
 299 406 l 1
 199 307 l 1
 898 307 l 1
 984 543 l 1
 1038 523 l 1
 959 307 l 1
 1526 307 l 1
 1526 461 l 1
 1590 461 l 1
 1590 89 l 1
 1526 89 l 1
 1526 243 l 1
 936 243 l 1
 850 7 l 1
EndSplineSet
EndChar

StartChar: uni27FE0338
Encoding: 194 -1 194
Width: 1680
Flags: W
HStem: 147 64<154 609 693 1385> 339 64<154 679 763 1385>
VStem: 90 64<43 147 211 339 403 507>
LayerCount: 2
Back
Fore
SplineSet
1449 339 m 1
 740 339 l 1
 693 211 l 1
 1449 211 l 1
 1513 275 l 1
 1449 339 l 1
154 339 m 1
 154 211 l 1
 632 211 l 1
 679 339 l 1
 154 339 l 1
775 605 m 1
 829 585 l 1
 763 403 l 1
 1385 403 l 1
 1335 453 l 1
 1380 498 l 1
 1603 275 l 1
 1380 52 l 1
 1335 97 l 1
 1385 147 l 1
 670 147 l 1
 597 -55 l 1
 543 -35 l 1
 609 147 l 1
 154 147 l 1
 154 43 l 1
 90 43 l 1
 90 507 l 1
 154 507 l 1
 154 403 l 1
 702 403 l 1
 775 605 l 1
EndSplineSet
EndChar

StartChar: uni27FD0338
Encoding: 195 -1 195
Width: 1680
Flags: W
HStem: 147 64<295 917 1001 1526> 339 64<295 987 1071 1526>
VStem: 1526 64<43 147 211 339 403 507>
LayerCount: 2
Back
Fore
SplineSet
231 211 m 1
 940 211 l 1
 987 339 l 1
 231 339 l 1
 167 275 l 1
 231 211 l 1
1526 211 m 1
 1526 339 l 1
 1048 339 l 1
 1001 211 l 1
 1526 211 l 1
905 -55 m 1
 851 -35 l 1
 917 147 l 1
 295 147 l 1
 345 97 l 1
 300 52 l 1
 77 275 l 1
 300 498 l 1
 345 453 l 1
 295 403 l 1
 1010 403 l 1
 1083 605 l 1
 1137 585 l 1
 1071 403 l 1
 1526 403 l 1
 1526 507 l 1
 1590 507 l 1
 1590 43 l 1
 1526 43 l 1
 1526 147 l 1
 978 147 l 1
 905 -55 l 1
EndSplineSet
EndChar

StartChar: uni27FF0338
Encoding: 196 -1 196
Width: 1680
Flags: W
HStem: 166 64<413.197 498.717 814.003 899.53 1214.88 1294.68> 243 64<1354.35 1481> 320 64<206.19 298.124 613.688 698.699 1014.28 1099.8>
CounterMasks: 1 e0
LayerCount: 2
Back
Fore
SplineSet
830 543 m 1
 884 523 l 1
 794 277 l 1
 810 253 829 230 857 230 c 0
 891 230 911 265 931 293 c 0
 963 339 1002 384 1057 384 c 0
 1112 384 1152 339 1183 293 c 0
 1204 265 1223 230 1257 230 c 0
 1276 230 1289 246 1302 259 c 0
 1327 284 1356 307 1391 307 c 2
 1481 307 l 1
 1381 406 l 1
 1427 452 l 1
 1603 275 l 1
 1427 98 l 1
 1381 144 l 1
 1481 243 l 1
 1391 243 l 2
 1373 243 1360 227 1347 214 c 0
 1322 189 1293 166 1257 166 c 0
 1203 166 1163 211 1131 257 c 0
 1111 285 1092 320 1057 320 c 0
 1022 320 1003 285 983 257 c 0
 951 211 912 166 857 166 c 0
 822 166 793 183 769 208 c 1
 696 7 l 1
 642 27 l 1
 727 261 l 1
 708 288 689 320 656 320 c 0
 622 320 602 285 582 257 c 0
 550 211 511 166 456 166 c 0
 401 166 361 211 330 257 c 0
 309 285 290 320 256 320 c 0
 202 320 179 262 148 218 c 1
 96 255 l 1
 138 315 183 384 256 384 c 0
 310 384 350 339 382 293 c 0
 402 265 421 230 456 230 c 0
 491 230 510 265 530 293 c 0
 562 339 602 384 656 384 c 0
 695 384 727 362 753 332 c 1
 830 543 l 1
EndSplineSet
EndChar

StartChar: uni2B330338
Encoding: 197 -1 197
Width: 1680
Flags: W
HStem: 166 64<385.323 465.124 780.47 847.785 1181.28 1266.8> 243 64<199 325.655> 320 64<580.197 665.717 984.63 1066.53 1381.88 1473.81>
CounterMasks: 1 e0
LayerCount: 2
Back
Fore
SplineSet
850 7 m 1
 796 27 l 1
 848 169 l 1
 840 167 832 166 823 166 c 0
 768 166 729 211 697 257 c 0
 677 285 658 320 623 320 c 0
 588 320 569 285 549 257 c 0
 517 211 477 166 423 166 c 0
 387 166 358 189 333 214 c 0
 320 227 307 243 289 243 c 2
 199 243 l 1
 299 144 l 1
 253 98 l 1
 77 275 l 1
 253 452 l 1
 299 406 l 1
 199 307 l 1
 289 307 l 2
 324 307 353 284 378 259 c 0
 391 246 404 230 423 230 c 0
 457 230 476 265 497 293 c 0
 528 339 568 384 623 384 c 0
 678 384 717 339 749 293 c 0
 769 265 789 230 823 230 c 0
 853 230 871 256 888 281 c 1
 984 543 l 1
 1038 523 l 1
 984 376 l 1
 996 381 1010 384 1024 384 c 0
 1079 384 1118 339 1150 293 c 0
 1170 265 1189 230 1224 230 c 0
 1259 230 1278 265 1298 293 c 0
 1330 339 1370 384 1424 384 c 0
 1497 384 1542 315 1584 255 c 1
 1532 218 l 1
 1501 262 1478 320 1424 320 c 0
 1390 320 1371 285 1350 257 c 0
 1319 211 1279 166 1224 166 c 0
 1169 166 1130 211 1098 257 c 0
 1078 285 1058 320 1024 320 c 0
 989 320 970 285 950 257 c 0
 944 249 938 241 932 233 c 1
 850 7 l 1
EndSplineSet
EndChar

StartChar: uni27DD0338
Encoding: 198 -1 198
Width: 1680
Flags: W
HStem: 243 64<154 798 882 1590>
VStem: 90 64<89 243 307 461>
LayerCount: 2
Back
Fore
SplineSet
907 543 m 1
 961 523 l 1
 882 307 l 1
 1590 307 l 1
 1590 243 l 1
 859 243 l 1
 773 7 l 1
 719 27 l 1
 798 243 l 1
 154 243 l 1
 154 89 l 1
 90 89 l 1
 90 461 l 1
 154 461 l 1
 154 307 l 1
 821 307 l 1
 907 543 l 1
EndSplineSet
EndChar

StartChar: uni27DE0338
Encoding: 199 -1 199
Width: 1680
Flags: W
HStem: 243 64<90 798 882 1526>
VStem: 1526 64<89 243 307 461>
LayerCount: 2
Back
Fore
SplineSet
773 7 m 1
 719 27 l 1
 798 243 l 1
 90 243 l 1
 90 307 l 1
 821 307 l 1
 907 543 l 1
 961 523 l 1
 882 307 l 1
 1526 307 l 1
 1526 461 l 1
 1590 461 l 1
 1590 89 l 1
 1526 89 l 1
 1526 243 l 1
 859 243 l 1
 773 7 l 1
EndSplineSet
EndChar

StartChar: uni22AC
Encoding: 224 8876 200
Width: 840
Flags: W
HStem: 0 18G<90 154 331 391.354> 322 64<154 414 490 750> 690 17G<90 154 512.63 573>
VStem: 90 64<0 322 386 707>
LayerCount: 2
Back
Fore
SplineSet
518 710 m 1
 573 695 l 1
 490 386 l 1
 750 386 l 1
 750 322 l 1
 473 322 l 1
 386 -3 l 1
 331 12 l 1
 414 322 l 1
 154 322 l 1
 154 0 l 1
 90 0 l 1
 90 707 l 1
 154 707 l 1
 154 386 l 1
 431 386 l 1
 518 710 l 1
EndSplineSet
EndChar

StartChar: uni22A50338
Encoding: 225 -1 201
Width: 840
Flags: W
HStem: 0 64<90 388 452 750> 687 20G<388 452>
VStem: 388 64<64 343 428 707>
LayerCount: 2
Back
Fore
SplineSet
105 240 m 1
 85 294 l 1
 388 404 l 1
 388 707 l 1
 452 707 l 1
 452 428 l 1
 735 531 l 1
 755 477 l 1
 452 367 l 1
 452 64 l 1
 750 64 l 1
 750 0 l 1
 90 0 l 1
 90 64 l 1
 388 64 l 1
 388 343 l 1
 105 240 l 1
EndSplineSet
EndChar

StartChar: uni22A30338
Encoding: 226 -1 202
Width: 840
Flags: W
HStem: 0 18G<267 327.354 686 750> 322 64<90 350 426 686> 690 17G<448.63 509 686 750>
VStem: 686 64<0 322 386 707>
LayerCount: 2
Back
Fore
SplineSet
322 -3 m 1
 267 12 l 1
 350 322 l 1
 90 322 l 1
 90 386 l 1
 367 386 l 1
 454 710 l 1
 509 695 l 1
 426 386 l 1
 686 386 l 1
 686 707 l 1
 750 707 l 1
 750 0 l 1
 686 0 l 1
 686 322 l 1
 409 322 l 1
 322 -3 l 1
EndSplineSet
EndChar

StartChar: uni22A40338
Encoding: 227 -1 203
Width: 840
Flags: W
HStem: 0 21G<388 452> 643 64<90 388 452 750>
VStem: 388 64<0 279 364 643>
LayerCount: 2
Back
Fore
SplineSet
735 467 m 1
 755 413 l 1
 452 303 l 1
 452 0 l 1
 388 0 l 1
 388 279 l 1
 105 176 l 1
 85 230 l 1
 388 340 l 1
 388 643 l 1
 90 643 l 1
 90 707 l 1
 750 707 l 1
 750 643 l 1
 452 643 l 1
 452 364 l 1
 735 467 l 1
EndSplineSet
EndChar

StartChar: uni22A60338
Encoding: 228 -1 204
Width: 642
Flags: W
HStem: 0 18G<90 154 232 292.354> 322 64<154 315 391 552> 690 17G<90 154 413.63 474>
VStem: 90 64<0 322 386 707>
LayerCount: 2
Back
Fore
SplineSet
419 710 m 1
 474 695 l 1
 391 386 l 1
 552 386 l 1
 552 322 l 1
 374 322 l 1
 287 -3 l 1
 232 12 l 1
 315 322 l 1
 154 322 l 1
 154 0 l 1
 90 0 l 1
 90 707 l 1
 154 707 l 1
 154 386 l 1
 332 386 l 1
 419 710 l 1
EndSplineSet
EndChar

StartChar: uni2AE00338
Encoding: 229 -1 205
Width: 840
Flags: W
HStem: 0 64<90 388 452 750>
VStem: 388 64<64 237 322 495>
LayerCount: 2
Back
Fore
SplineSet
105 134 m 1
 85 188 l 1
 388 298 l 1
 388 495 l 1
 452 495 l 1
 452 322 l 1
 735 425 l 1
 755 371 l 1
 452 261 l 1
 452 64 l 1
 750 64 l 1
 750 0 l 1
 90 0 l 1
 90 64 l 1
 388 64 l 1
 388 237 l 1
 105 134 l 1
EndSplineSet
EndChar

StartChar: uni2ADE0338
Encoding: 230 -1 206
Width: 642
Flags: W
HStem: 0 18G<168 228.354 488 552> 322 64<90 251 327 488> 690 17G<349.63 410 488 552>
VStem: 488 64<0 322 386 707>
LayerCount: 2
Back
Fore
SplineSet
223 -3 m 1
 168 12 l 1
 251 322 l 1
 90 322 l 1
 90 386 l 1
 268 386 l 1
 355 710 l 1
 410 695 l 1
 327 386 l 1
 488 386 l 1
 488 707 l 1
 552 707 l 1
 552 0 l 1
 488 0 l 1
 488 322 l 1
 310 322 l 1
 223 -3 l 1
EndSplineSet
EndChar

StartChar: uni2ADF0338
Encoding: 231 -1 207
Width: 840
Flags: W
HStem: 0 21G<388 452> 431 64<90 388 452 750>
VStem: 388 64<0 173 258 431>
LayerCount: 2
Back
Fore
SplineSet
735 361 m 1
 755 307 l 1
 452 197 l 1
 452 0 l 1
 388 0 l 1
 388 173 l 1
 105 70 l 1
 85 124 l 1
 388 234 l 1
 388 431 l 1
 90 431 l 1
 90 495 l 1
 750 495 l 1
 750 431 l 1
 452 431 l 1
 452 258 l 1
 735 361 l 1
EndSplineSet
EndChar

StartChar: uni22AD
Encoding: 232 8877 208
Width: 840
Flags: W
HStem: 0 18G<90 154 331 391.351> 225 64<154 388 464 750> 418 64<154 440 516 750> 690 17G<90 154 512.649 573>
VStem: 90 64<0 225 289 418 482 707>
LayerCount: 2
Back
Fore
SplineSet
154 418 m 1
 154 289 l 1
 405 289 l 1
 440 418 l 1
 154 418 l 1
518 710 m 1
 573 695 l 1
 516 482 l 1
 750 482 l 1
 750 418 l 1
 499 418 l 1
 464 289 l 1
 750 289 l 1
 750 225 l 1
 447 225 l 1
 386 -3 l 1
 331 12 l 1
 388 225 l 1
 154 225 l 1
 154 0 l 1
 90 0 l 1
 90 707 l 1
 154 707 l 1
 154 482 l 1
 457 482 l 1
 518 710 l 1
EndSplineSet
EndChar

StartChar: uni2AEB0338
Encoding: 233 -1 209
Width: 840
Flags: W
HStem: 0 64<90 292 356 484 548 750> 687 20G<292 356 484 548>
VStem: 292 64<64 308 393 707> 484 64<64 378 463 707>
LayerCount: 2
Back
Fore
SplineSet
356 64 m 1
 484 64 l 1
 484 378 l 1
 356 332 l 1
 356 64 l 1
105 240 m 1
 85 294 l 1
 292 369 l 1
 292 707 l 1
 356 707 l 1
 356 393 l 1
 484 439 l 1
 484 707 l 1
 548 707 l 1
 548 463 l 1
 735 531 l 1
 755 477 l 1
 548 402 l 1
 548 64 l 1
 750 64 l 1
 750 0 l 1
 90 0 l 1
 90 64 l 1
 292 64 l 1
 292 308 l 1
 105 240 l 1
EndSplineSet
EndChar

StartChar: uni2AE40338
Encoding: 234 -1 210
Width: 840
Flags: W
HStem: 0 18G<267 327.351 686 750> 225 64<90 324 400 686> 418 64<90 376 452 686> 690 17G<448.649 509 686 750>
VStem: 686 64<0 225 289 418 482 707>
LayerCount: 2
Back
Fore
SplineSet
686 289 m 1
 686 418 l 1
 435 418 l 1
 400 289 l 1
 686 289 l 1
322 -3 m 1
 267 12 l 1
 324 225 l 1
 90 225 l 1
 90 289 l 1
 341 289 l 1
 376 418 l 1
 90 418 l 1
 90 482 l 1
 393 482 l 1
 454 710 l 1
 509 695 l 1
 452 482 l 1
 686 482 l 1
 686 707 l 1
 750 707 l 1
 750 0 l 1
 686 0 l 1
 686 225 l 1
 383 225 l 1
 322 -3 l 1
EndSplineSet
EndChar

StartChar: uni2AEA0338
Encoding: 235 -1 211
Width: 840
Flags: W
HStem: 0 21G<292 356 484 548> 643 64<90 292 356 484 548 750>
VStem: 292 64<0 244 329 643> 484 64<0 314 399 643>
LayerCount: 2
Back
Fore
SplineSet
484 643 m 1
 356 643 l 1
 356 329 l 1
 484 375 l 1
 484 643 l 1
735 467 m 1
 755 413 l 1
 548 338 l 1
 548 0 l 1
 484 0 l 1
 484 314 l 1
 356 268 l 1
 356 0 l 1
 292 0 l 1
 292 244 l 1
 105 176 l 1
 85 230 l 1
 292 305 l 1
 292 643 l 1
 90 643 l 1
 90 707 l 1
 750 707 l 1
 750 643 l 1
 548 643 l 1
 548 399 l 1
 735 467 l 1
EndSplineSet
EndChar

StartChar: uni22A70338
Encoding: 236 -1 212
Width: 642
Flags: W
HStem: 0 18G<90 154 232 292.351> 225 64<154 289 365 552> 418 64<154 341 417 552> 690 17G<90 154 413.649 474>
VStem: 90 64<0 225 289 418 482 707>
LayerCount: 2
Back
Fore
SplineSet
154 418 m 1
 154 289 l 1
 306 289 l 1
 341 418 l 1
 154 418 l 1
419 710 m 1
 474 695 l 1
 417 482 l 1
 552 482 l 1
 552 418 l 1
 400 418 l 1
 365 289 l 1
 552 289 l 1
 552 225 l 1
 348 225 l 1
 287 -3 l 1
 232 12 l 1
 289 225 l 1
 154 225 l 1
 154 0 l 1
 90 0 l 1
 90 707 l 1
 154 707 l 1
 154 482 l 1
 358 482 l 1
 419 710 l 1
EndSplineSet
EndChar

StartChar: sym07E_uni0338
Encoding: 237 -1 213
Width: 840
Flags: W
HStem: 0 64<90 292 356 484 548 750>
VStem: 292 64<64 202 287 495> 484 64<64 272 357 495>
LayerCount: 2
Back
Fore
SplineSet
356 64 m 1
 484 64 l 1
 484 272 l 1
 356 226 l 1
 356 64 l 1
105 134 m 1
 85 188 l 1
 292 263 l 1
 292 495 l 1
 356 495 l 1
 356 287 l 1
 484 333 l 1
 484 495 l 1
 548 495 l 1
 548 357 l 1
 735 425 l 1
 755 371 l 1
 548 296 l 1
 548 64 l 1
 750 64 l 1
 750 0 l 1
 90 0 l 1
 90 64 l 1
 292 64 l 1
 292 202 l 1
 105 134 l 1
EndSplineSet
EndChar

StartChar: sym07D_uni0338
Encoding: 238 -1 214
Width: 642
Flags: W
HStem: 0 18G<168 228.351 488 552> 225 64<90 225 301 488> 418 64<90 277 353 488> 690 17G<349.649 410 488 552>
VStem: 488 64<0 225 289 418 482 707>
LayerCount: 2
Back
Fore
SplineSet
488 289 m 1
 488 418 l 1
 336 418 l 1
 301 289 l 1
 488 289 l 1
223 -3 m 1
 168 12 l 1
 225 225 l 1
 90 225 l 1
 90 289 l 1
 242 289 l 1
 277 418 l 1
 90 418 l 1
 90 482 l 1
 294 482 l 1
 355 710 l 1
 410 695 l 1
 353 482 l 1
 488 482 l 1
 488 707 l 1
 552 707 l 1
 552 0 l 1
 488 0 l 1
 488 225 l 1
 284 225 l 1
 223 -3 l 1
EndSplineSet
EndChar

StartChar: sym07F_uni0338
Encoding: 239 -1 215
Width: 840
Flags: W
HStem: 0 21G<292 356 484 548> 431 64<90 292 356 484 548 750>
VStem: 292 64<0 138 223 431> 484 64<0 208 293 431>
LayerCount: 2
Back
Fore
SplineSet
484 431 m 1
 356 431 l 1
 356 223 l 1
 484 269 l 1
 484 431 l 1
735 361 m 1
 755 307 l 1
 548 232 l 1
 548 0 l 1
 484 0 l 1
 484 208 l 1
 356 162 l 1
 356 0 l 1
 292 0 l 1
 292 138 l 1
 105 70 l 1
 85 124 l 1
 292 199 l 1
 292 431 l 1
 90 431 l 1
 90 495 l 1
 750 495 l 1
 750 431 l 1
 548 431 l 1
 548 293 l 1
 735 361 l 1
EndSplineSet
EndChar

StartChar: uni22AE
Encoding: 240 8878 216
Width: 1038
Flags: W
HStem: 0 21G<90 154 288 352 529 589.354> 322 64<352 612 688 948> 687 20G<90 154 288 352 710.63 771>
VStem: 90 64<0 707> 288 64<0 322 386 707>
LayerCount: 2
Back
Fore
SplineSet
154 0 m 1
 90 0 l 1
 90 707 l 1
 154 707 l 1
 154 0 l 1
716 710 m 1
 771 695 l 1
 688 386 l 1
 948 386 l 1
 948 322 l 1
 671 322 l 1
 584 -3 l 1
 529 12 l 1
 612 322 l 1
 352 322 l 1
 352 0 l 1
 288 0 l 1
 288 707 l 1
 352 707 l 1
 352 386 l 1
 629 386 l 1
 716 710 l 1
EndSplineSet
EndChar

StartChar: uni234A0338
Encoding: 241 -1 217
Width: 840
Flags: W
HStem: -106 64<90 750> 92 64<90 388 452 750>
VStem: 388 64<156 442 527 813>
LayerCount: 2
Back
Fore
SplineSet
750 -42 m 1
 750 -106 l 1
 90 -106 l 1
 90 -42 l 1
 750 -42 l 1
105 339 m 1
 85 393 l 1
 388 503 l 1
 388 813 l 1
 452 813 l 1
 452 527 l 1
 735 630 l 1
 755 576 l 1
 452 466 l 1
 452 156 l 1
 750 156 l 1
 750 92 l 1
 90 92 l 1
 90 156 l 1
 388 156 l 1
 388 442 l 1
 105 339 l 1
EndSplineSet
EndChar

StartChar: uni2AE30338
Encoding: 242 -1 218
Width: 1038
Flags: W
HStem: 0 21G<267 327.354 686 750 884 948> 322 64<90 350 426 686> 687 20G<448.63 509 686 750 884 948>
VStem: 686 64<0 322 386 707> 884 64<0 707>
LayerCount: 2
Back
Fore
SplineSet
884 707 m 1
 948 707 l 1
 948 0 l 1
 884 0 l 1
 884 707 l 1
322 -3 m 1
 267 12 l 1
 350 322 l 1
 90 322 l 1
 90 386 l 1
 367 386 l 1
 454 710 l 1
 509 695 l 1
 426 386 l 1
 686 386 l 1
 686 707 l 1
 750 707 l 1
 750 0 l 1
 686 0 l 1
 686 322 l 1
 409 322 l 1
 322 -3 l 1
EndSplineSet
EndChar

StartChar: uni23510338
Encoding: 243 -1 219
Width: 840
Flags: W
HStem: 551 64<90 388 452 750> 749 64<90 750>
VStem: 388 64<-106 180 265 551>
LayerCount: 2
Back
Fore
SplineSet
90 749 m 1
 90 813 l 1
 750 813 l 1
 750 749 l 1
 90 749 l 1
735 368 m 1
 755 314 l 1
 452 204 l 1
 452 -106 l 1
 388 -106 l 1
 388 180 l 1
 105 77 l 1
 85 131 l 1
 388 241 l 1
 388 551 l 1
 90 551 l 1
 90 615 l 1
 750 615 l 1
 750 551 l 1
 452 551 l 1
 452 265 l 1
 735 368 l 1
EndSplineSet
EndChar

StartChar: uni22AE.alt
Encoding: 244 -1 220
Width: 840
Flags: W
HStem: 0 21G<90 154 288 352 430 490.354> 322 64<352 513 589 750> 687 20G<90 154 288 352 611.63 672>
VStem: 90 64<0 707> 288 64<0 322 386 707>
LayerCount: 2
Back
Fore
SplineSet
154 0 m 1
 90 0 l 1
 90 707 l 1
 154 707 l 1
 154 0 l 1
617 710 m 1
 672 695 l 1
 589 386 l 1
 750 386 l 1
 750 322 l 1
 572 322 l 1
 485 -3 l 1
 430 12 l 1
 513 322 l 1
 352 322 l 1
 352 0 l 1
 288 0 l 1
 288 707 l 1
 352 707 l 1
 352 386 l 1
 530 386 l 1
 617 710 l 1
EndSplineSet
EndChar

StartChar: uni2AE80338
Encoding: 245 -1 221
Width: 840
Flags: W
HStem: 0 64<90 750> 198 64<90 388 452 750> 687 20G<388 452>
VStem: 388 64<262 442 527 707>
LayerCount: 2
Back
Fore
SplineSet
750 64 m 1
 750 0 l 1
 90 0 l 1
 90 64 l 1
 750 64 l 1
105 339 m 1
 85 393 l 1
 388 503 l 1
 388 707 l 1
 452 707 l 1
 452 527 l 1
 735 630 l 1
 755 576 l 1
 452 466 l 1
 452 262 l 1
 750 262 l 1
 750 198 l 1
 90 198 l 1
 90 262 l 1
 388 262 l 1
 388 442 l 1
 105 339 l 1
EndSplineSet
EndChar

StartChar: uni2AE30338.alt
Encoding: 246 -1 222
Width: 840
Flags: W
HStem: 0 21G<168 228.354 488 552 686 750> 322 64<90 251 327 488> 687 20G<349.63 410 488 552 686 750>
VStem: 488 64<0 322 386 707> 686 64<0 707>
LayerCount: 2
Back
Fore
SplineSet
686 707 m 1
 750 707 l 1
 750 0 l 1
 686 0 l 1
 686 707 l 1
223 -3 m 1
 168 12 l 1
 251 322 l 1
 90 322 l 1
 90 386 l 1
 268 386 l 1
 355 710 l 1
 410 695 l 1
 327 386 l 1
 488 386 l 1
 488 707 l 1
 552 707 l 1
 552 0 l 1
 488 0 l 1
 488 322 l 1
 310 322 l 1
 223 -3 l 1
EndSplineSet
EndChar

StartChar: uni2AE70338
Encoding: 247 -1 223
Width: 840
Flags: W
HStem: 0 21G<388 452> 445 64<90 388 452 750> 643 64<90 750>
VStem: 388 64<0 180 265 445>
LayerCount: 2
Back
Fore
SplineSet
90 643 m 1
 90 707 l 1
 750 707 l 1
 750 643 l 1
 90 643 l 1
735 368 m 1
 755 314 l 1
 452 204 l 1
 452 0 l 1
 388 0 l 1
 388 180 l 1
 105 77 l 1
 85 131 l 1
 388 241 l 1
 388 445 l 1
 90 445 l 1
 90 509 l 1
 750 509 l 1
 750 445 l 1
 452 445 l 1
 452 265 l 1
 735 368 l 1
EndSplineSet
EndChar

StartChar: uni22AF
Encoding: 248 8879 224
Width: 1038
Flags: W
HStem: 0 21G<90 154 288 352 529 589.351> 225 64<352 586 662 948> 418 64<352 638 714 948> 687 20G<90 154 288 352 710.649 771>
VStem: 90 64<0 707> 288 64<0 225 289 418 482 707>
LayerCount: 2
Back
Fore
SplineSet
352 418 m 1
 352 289 l 1
 603 289 l 1
 638 418 l 1
 352 418 l 1
154 0 m 1
 90 0 l 1
 90 707 l 1
 154 707 l 1
 154 0 l 1
716 710 m 1
 771 695 l 1
 714 482 l 1
 948 482 l 1
 948 418 l 1
 697 418 l 1
 662 289 l 1
 948 289 l 1
 948 225 l 1
 645 225 l 1
 584 -3 l 1
 529 12 l 1
 586 225 l 1
 352 225 l 1
 352 0 l 1
 288 0 l 1
 288 707 l 1
 352 707 l 1
 352 482 l 1
 655 482 l 1
 716 710 l 1
EndSplineSet
EndChar

StartChar: sym080_uni0338
Encoding: 249 -1 225
Width: 840
Flags: W
HStem: -106 64<90 750> 92 64<90 292 356 484 548 750>
VStem: 292 64<156 407 492 813> 484 64<156 477 562 813>
LayerCount: 2
Back
Fore
SplineSet
356 156 m 1
 484 156 l 1
 484 477 l 1
 356 431 l 1
 356 156 l 1
750 -42 m 1
 750 -106 l 1
 90 -106 l 1
 90 -42 l 1
 750 -42 l 1
105 339 m 1
 85 393 l 1
 292 468 l 1
 292 813 l 1
 356 813 l 1
 356 492 l 1
 484 538 l 1
 484 813 l 1
 548 813 l 1
 548 562 l 1
 735 630 l 1
 755 576 l 1
 548 501 l 1
 548 156 l 1
 750 156 l 1
 750 92 l 1
 90 92 l 1
 90 156 l 1
 292 156 l 1
 292 407 l 1
 105 339 l 1
EndSplineSet
EndChar

StartChar: uni2AE50338
Encoding: 250 -1 226
Width: 1038
Flags: W
HStem: 0 21G<267 327.351 686 750 884 948> 225 64<90 324 400 686> 418 64<90 376 452 686> 687 20G<448.649 509 686 750 884 948>
VStem: 686 64<0 225 289 418 482 707> 884 64<0 707>
LayerCount: 2
Back
Fore
SplineSet
686 289 m 1
 686 418 l 1
 435 418 l 1
 400 289 l 1
 686 289 l 1
884 707 m 1
 948 707 l 1
 948 0 l 1
 884 0 l 1
 884 707 l 1
322 -3 m 1
 267 12 l 1
 324 225 l 1
 90 225 l 1
 90 289 l 1
 341 289 l 1
 376 418 l 1
 90 418 l 1
 90 482 l 1
 393 482 l 1
 454 710 l 1
 509 695 l 1
 452 482 l 1
 686 482 l 1
 686 707 l 1
 750 707 l 1
 750 0 l 1
 686 0 l 1
 686 225 l 1
 383 225 l 1
 322 -3 l 1
EndSplineSet
EndChar

StartChar: sym081_uni0338
Encoding: 251 -1 227
Width: 840
Flags: W
HStem: 551 64<90 292 356 484 548 750> 749 64<90 750>
VStem: 292 64<-106 145 230 551> 484 64<-106 215 300 551>
LayerCount: 2
Back
Fore
SplineSet
484 551 m 1
 356 551 l 1
 356 230 l 1
 484 276 l 1
 484 551 l 1
90 749 m 1
 90 813 l 1
 750 813 l 1
 750 749 l 1
 90 749 l 1
735 368 m 1
 755 314 l 1
 548 239 l 1
 548 -106 l 1
 484 -106 l 1
 484 215 l 1
 356 169 l 1
 356 -106 l 1
 292 -106 l 1
 292 145 l 1
 105 77 l 1
 85 131 l 1
 292 206 l 1
 292 551 l 1
 90 551 l 1
 90 615 l 1
 750 615 l 1
 750 551 l 1
 548 551 l 1
 548 300 l 1
 735 368 l 1
EndSplineSet
EndChar

StartChar: uni22AA0338
Encoding: 252 -1 228
Width: 1038
Flags: W
HStem: 0 21G<90 154 288 352 486 550 628 688.354> 322 64<550 711 787 948> 687 20G<90 154 288 352 486 550 809.63 870>
VStem: 90 64<0 707> 288 64<0 707> 486 64<0 322 386 707>
CounterMasks: 1 1c
LayerCount: 2
Back
Fore
SplineSet
154 0 m 1
 90 0 l 1
 90 707 l 1
 154 707 l 1
 154 0 l 1
352 0 m 1
 288 0 l 1
 288 707 l 1
 352 707 l 1
 352 0 l 1
815 710 m 1
 870 695 l 1
 787 386 l 1
 948 386 l 1
 948 322 l 1
 770 322 l 1
 683 -3 l 1
 628 12 l 1
 711 322 l 1
 550 322 l 1
 550 0 l 1
 486 0 l 1
 486 707 l 1
 550 707 l 1
 550 386 l 1
 728 386 l 1
 815 710 l 1
EndSplineSet
EndChar

StartChar: sym082_uni0338
Encoding: 253 -1 229
Width: 1038
Flags: W
HStem: 0 21G<168 228.354 488 552 686 750 884 948> 322 64<90 251 327 488> 687 20G<349.63 410 488 552 686 750 884 948>
VStem: 488 64<0 322 386 707> 686 64<0 707> 884 64<0 707>
CounterMasks: 1 1c
LayerCount: 2
Back
Fore
SplineSet
884 707 m 1
 948 707 l 1
 948 0 l 1
 884 0 l 1
 884 707 l 1
686 707 m 1
 750 707 l 1
 750 0 l 1
 686 0 l 1
 686 707 l 1
223 -3 m 1
 168 12 l 1
 251 322 l 1
 90 322 l 1
 90 386 l 1
 268 386 l 1
 355 710 l 1
 410 695 l 1
 327 386 l 1
 488 386 l 1
 488 707 l 1
 552 707 l 1
 552 0 l 1
 488 0 l 1
 488 322 l 1
 310 322 l 1
 223 -3 l 1
EndSplineSet
EndChar

StartChar: uni2AE20338
Encoding: 254 -1 230
Width: 840
Flags: W
HStem: 0 18G<90 154 331 391.303> 129 64<154 362 439 750> 322 64<154 414 490 750> 514 64<154 465 542 750> 690 17G<90 154 512.697 573>
VStem: 90 64<0 129 193 322 386 514 578 707>
LayerCount: 2
Back
Fore
SplineSet
154 386 m 1
 431 386 l 1
 465 514 l 1
 154 514 l 1
 154 386 l 1
154 193 m 1
 379 193 l 1
 414 322 l 1
 154 322 l 1
 154 193 l 1
518 710 m 1
 573 695 l 1
 542 578 l 1
 750 578 l 1
 750 514 l 1
 525 514 l 1
 490 386 l 1
 750 386 l 1
 750 322 l 1
 473 322 l 1
 439 193 l 1
 750 193 l 1
 750 129 l 1
 421 129 l 1
 386 -3 l 1
 331 12 l 1
 362 129 l 1
 154 129 l 1
 154 0 l 1
 90 0 l 1
 90 707 l 1
 154 707 l 1
 154 578 l 1
 483 578 l 1
 518 710 l 1
EndSplineSet
EndChar

StartChar: sym083_uni0338
Encoding: 255 -1 231
Width: 840
Flags: W
HStem: 0 18G<267 327.303 686 750> 129 64<90 298 375 686> 322 64<90 350 426 686> 514 64<90 401 478 686> 690 17G<448.697 509 686 750>
VStem: 686 64<0 129 193 322 386 514 578 707>
LayerCount: 2
Back
Fore
SplineSet
686 322 m 1
 409 322 l 1
 375 193 l 1
 686 193 l 1
 686 322 l 1
686 514 m 1
 461 514 l 1
 426 386 l 1
 686 386 l 1
 686 514 l 1
322 -3 m 1
 267 12 l 1
 298 129 l 1
 90 129 l 1
 90 193 l 1
 315 193 l 1
 350 322 l 1
 90 322 l 1
 90 386 l 1
 367 386 l 1
 401 514 l 1
 90 514 l 1
 90 578 l 1
 419 578 l 1
 454 710 l 1
 509 695 l 1
 478 578 l 1
 686 578 l 1
 686 707 l 1
 750 707 l 1
 750 0 l 1
 686 0 l 1
 686 129 l 1
 357 129 l 1
 322 -3 l 1
EndSplineSet
EndChar
